SplineFontDB: 3.0
FontName: Smythe
FullName: Smythe
FamilyName: Smythe
Weight: Book
Copyright: Copyright (c) 2011 by Vernon Adams. All rights reserved.
Version: 1.000
ItalicAngle: 0
UnderlinePosition: -103
UnderlineWidth: 102
Ascent: 1638
Descent: 410
sfntRevision: 0x00010000
LayerCount: 2
Layer: 0 0 "Back"  1
Layer: 1 0 "Fore"  0
NeedsXUIDChange: 1
XUID: [1021 759 1887733602 1793157]
FSType: 0
OS2Version: 2
OS2_WeightWidthSlopeOnly: 0
OS2_UseTypoMetrics: 1
CreationTime: 1301655180
ModificationTime: 1314296520
PfmFamily: 17
TTFWeight: 400
TTFWidth: 5
LineGap: 0
VLineGap: 0
Panose: 2 0 0 0 0 0 0 0 0 0
OS2TypoAscent: 245
OS2TypoAOffset: 1
OS2TypoDescent: -70
OS2TypoDOffset: 1
OS2TypoLinegap: 0
OS2WinAscent: 0
OS2WinAOffset: 1
OS2WinDescent: -47
OS2WinDOffset: 1
HheadAscent: 0
HheadAOffset: 1
HheadDescent: 47
HheadDOffset: 1
OS2SubXSize: 1434
OS2SubYSize: 1331
OS2SubXOff: 0
OS2SubYOff: 287
OS2SupXSize: 1434
OS2SupYSize: 1331
OS2SupXOff: 0
OS2SupYOff: 977
OS2StrikeYSize: 102
OS2StrikeYPos: 512
OS2Vendor: 'pyrs'
OS2CodePages: 00000001.00000000
OS2UnicodeRanges: 8000002f.4000004b.00000000.00000000
Lookup: 258 0 0 "'kern' Horizontal Kerning in Latin lookup 0"  {"'kern' Horizontal Kerning in Latin lookup 0 per glyph data 0"  "'kern' Horizontal Kerning in Latin lookup 0 kerning class 1"  } ['kern' ('latn' <'dflt' > ) ]
MarkAttachClasses: 1
DEI: 91125
KernClass2: 86+ 67 "'kern' Horizontal Kerning in Latin lookup 0 kerning class 1" 
 28 hyphen endash emdash uni00AD
 6 period
 5 seven
 3 one
 5 slash
 3 two
 5 three
 4 five
 4 zero
 3 six
 4 nine
 5 eight
 8 asterisk
 20 quotesingle quotedbl
 4 four
 5 comma
 9 backslash
 24 quoteright quotedblright
 22 quotedblleft quoteleft
 27 quotedblbase quotesinglbase
 12 questiondown
 10 exclamdown
 9 trademark
 2 at
 9 ampersand
 10 registered
 13 guilsinglleft
 14 guilsinglright
 14 guillemotright
 13 guillemotleft
 7 H H.alt
 9 T uni021A
 10 C Ccedilla
 51 O Oslash Ograve Oacute Ocircumflex Otilde Odieresis

StartChar: H
Encoding: 72 72 4
Width: 930
Flags: HW
HStem: -170 118<65 123.875> 0 5<509 516.801 882.184 890> 706 77<296.723 633.215> 1322 5<37 44.0624 410.184 418 509 516.209 882.184 890>
VStem: 165 131<-15.4459 702.301 786.062 1218.35> 628 151<47.5057 703.351 785.08 1281.09>
LayerCount: 2
Fore
SplineSet
471 783 m 0
 534.608389379 783 583.731609261 783.978528741 634 788 c 1
 631.174124198 937.771417498 626.215576551 1075.15108708 616 1222 c 1
 601.105910502 1275.61872219 566.140991398 1306.19504493 509 1322 c 1
 509 1327 l 1
 890 1327 l 1
 890 1322 l 1
 828.151622215 1306.23472723 790.886620774 1274.91893147 779 1214 c 1
 771.168584689 1039.0983914 768 864.410919693 768 684 c 0
 768 490.654848473 772.358139553 304.300464608 779 117 c 1
 790.969709241 55.6552401424 828.487909899 21.8856717923 890 5 c 1
 890 0 l 1
 509 0 l 1
 509 5 l 1
 571.000864043 22.0198450313 602.965435949 55.3228592404 615 117 c 1
 624.76230798 319.567890579 632.48822127 500.956986403 634 699 c 1
 584.735557024 705.42579691 536.436422411 706 470 706 c 0
 397.674968887 706 347.988923194 705.089398617 296 698 c 1
 296 545.5 l 130
 296 369.312225681 299.955706808 183.926013482 288.5 17 c 128
 279.896969483 -108.358444681 206.043402949 -170 65 -170 c 1
 -15 -44 l 1
 -12 -40 l 1
 11.9322182266 -45.4391405061 35.0041378584 -52 60 -52 c 0
 136.711692293 -52 137.658207852 36.4839422638 144 111 c 0
 158.319059235 285.692522667 165 483.833792267 165 671 c 0
 165 866.902996028 156.758659128 1032.895979 144 1223 c 1
 129.091609039 1275.17936836 92.6788175279 1306.264682 37 1322 c 1
 37 1327 l 1
 418 1327 l 1
 418 1322 l 1
 356.172925646 1306.24015752 318.879497544 1275.88242491 307 1215 c 1
 300.461304512 1073.76417745 297.364798431 933.668633705 296 789 c 1
 348.802513854 784.408477056 400.728945157 783 471 783 c 0
EndSplineSet
EndChar

StartChar: T
Encoding: 84 84 5
Width: 726
Flags: HW
HStem: 0 5<183 189.264 537.729 544> 1221 96<75.9799 288.905 440 651.621>
VStem: 34 5<1114 1133.4> 297.5 134.5<55.121 1221> 686 6<1114 1135.21>
LayerCount: 2
Fore
SplineSet
34 1114 m 1
 31.8557966701 1171.89348991 31 1222.68249521 31 1274 c 2
 31 1327 l 1
 141.821385123 1320.48109499 249.453154433 1317 365 1317 c 256
 479.475456973 1317 585.892328651 1320.42724871 695 1327 c 1
 695 1274 l 2
 695 1239.33333333 694 1186 692 1114 c 1
 686 1114 l 1
 686 1211.72552515 533.874476445 1216.30627618 440 1221 c 1
 432.545963642 1004.83294562 432 760.30960192 432 540 c 0
 432 405.259246653 431.836362 275.981840862 441 149 c 1
 445.288574286 71.8056628491 480.280347077 26.2398843077 544 5 c 1
 544 0 l 1
 183 0 l 1
 183 5 l 1
 246.582461281 26.1941537604 277.667748637 76.4635592592 282 153 c 0
 293.526961309 339.736773205 298 524.809861266 298 721 c 0
 298 897.410697857 298.681957267 1051.06177263 286 1221 c 1
 201.659008365 1216.67482094 110.841716181 1208.36479924 63 1167.5 c 128
 47 1153.83333333 39 1136 39 1114 c 1
 34 1114 l 1
EndSplineSet
EndChar

StartChar: C
Encoding: 67 67 6
Width: 841
Flags: HW
HStem: -18 109<356.261 579.044> 1207 110<389.595 618.317>
VStem: 66 156<316.006 955.808> 680 126<989.4 1143.83>
LayerCount: 2
Fore
SplineSet
634 911 m 1
 661.078875186 936.95058872 680 973.976180809 680 1022 c 0
 680 1102.18154342 632.149360991 1163.4253195 577 1191 c 128
 555.666666667 1201.66666667 532.666666667 1207 508 1207 c 0
 392.077982092 1207 331.558582738 1112.50681116 294 1028 c 128
 247.374971982 923.09368696 222 788.073151735 222 638 c 0
 222 438.096817308 257.498299558 239.484751604 354 137.5 c 128
 383.333333333 106.5 418 91 458 91 c 0
 532.941185885 91 584.617922599 131.674090543 621.5 176.5 c 128
 665.558331408 230.047818173 694.810672441 304.447263666 713 385 c 1
 716 385 l 1
 808 191 l 1
 742.06338576 77.8088122221 629.852109531 -18 469 -18 c 0
 330.935873882 -18 240.458231729 64.357799762 181 158.5 c 128
 105.663967495 277.782051467 66 449.259605891 66 649 c 0
 66 940.201689646 153.942159429 1172.74609752 340 1272.5 c 128
 395.333333333 1302.16666667 455 1317 519 1317 c 0
 643.966235674 1317 738.887982993 1240.47029267 783 1158 c 128
 798.333333333 1129.33333333 806 1102 806 1076 c 0
 806 1042 792.666666667 1014 766 992 c 1
 637 906 l 1
 634 911 l 1
EndSplineSet
EndChar

StartChar: O
Encoding: 79 79 7
Width: 935
Flags: W
HStem: -18 118<353.743 572.335> 1200 117<357.738 573.201>
VStem: 69 156<311.72 986.167> 708 159<332.011 981.289>
LayerCount: 2
Fore
SplineSet
472 -18 m 0
 167.387113363 -18 69 332.168096307 69 649 c 0
 69 930.598560889 142.267425857 1168.82857756 313.5 1272.5 c 0
 362.5 1302.16666667 415.333333333 1317 472 1317 c 0
 604.09809368 1317 693.015282228 1234.27224094 751 1143 c 0
 827.112039137 1023.19401247 867 851.013061543 867 649 c 0
 867 449.101799407 823.223716996 279.186175667 747 160 c 0
 689.181882844 69.5934895374 601.497837549 -18 472 -18 c 0
225 638 m 0
 225 428.756638603 261.265987876 100 461 100 c 0
 665.160822058 100 708 431.971606184 708 646 c 0
 708 861.536356762 664.800156278 1200 461 1200 c 0
 264.541227912 1200 225 846.219512465 225 638 c 0
EndSplineSet
EndChar

StartChar: U
Encoding: 85 85 8
Width: 928
Flags: HW
HStem: -18 117<359.214 588.183> 1322 5<29 35.4404 384.328 390 519 526.056 880.663 887>
VStem: 131.5 155.5<454.435 1282.57> 147 136<172.906 1190.16> 634 141<136.449 1273.7>
LayerCount: 2
Fore
SplineSet
292 1177 m 1
 286.503590441 979.129255885 283 776.460684972 283 574 c 0
 283 473.333333333 286.166666667 392 292.5 330 c 128
 305.442488316 203.299851224 322.006912177 99 449 99 c 0
 519.247824279 99 580.826209353 126.405886859 628 161 c 1
 631.72998939 357.446107852 634 530.480149805 634 721 c 0
 634 889.339998488 634.177530261 1034.63593226 619 1194 c 0
 611.953906193 1260.23328179 577.068552021 1304.32696243 519 1322 c 1
 519 1327 l 1
 887 1327 l 1
 887 1322 l 1
 818.333333333 1300 784 1251.66666667 784 1177 c 1
 781.086223558 1091.52922438 778.559174245 1008.85228806 777.5 922 c 128
 777 881 777 881 776.5 840 c 128
 775.879300314 789.10262576 775 733.694090994 775 684 c 0
 775 549.359043452 777 430.713358343 777 298.5 c 128
 777 236 777 236 777 163 c 1
 781.978345095 104.91930723 826.465488983 80.8907075211 887 69 c 1
 887 64 l 1
 639 -30 l 1
 631.043739512 -9.31372273095 629.143789478 20.2614735596 628 50 c 1
 567.177251342 9.4515008947 485.986095413 -18 394 -18 c 0
 276.450534414 -18 208.344157648 56.1741120091 173.5 144.5 c 128
 138.627846116 232.896855194 141.165932342 368.790755018 139 489 c 128
 134.729224606 726.028034375 135.618048045 966.886676721 119 1194 c 0
 113.474318189 1258.92676128 83.0195753643 1303.99347488 29 1322 c 1
 29 1327 l 1
 390 1327 l 1
 390 1322 l 1
 331.71336599 1300.45928743 292 1254.93171394 292 1177 c 1
EndSplineSet
EndChar

StartChar: G
Encoding: 71 71 9
Width: 930
Flags: W
HStem: -18 109<348.601 603.129> 0 5<893.68 898> 699 5<547 551.354 891.663 898> 1199.06 117.943<389.905 576.644>
VStem: 70 156<291.244 951.62> 611.243 178.757<989.996 1165.93> 661.209 124.154<145.787 643.078>
LayerCount: 2
Fore
SplineSet
70 649 m 0xba
 70 982.015072284 182.606843848 1317 503 1317 c 0
 642.792070435 1317 790 1210.85815631 790 1076 c 0
 790 1042 780.407226562 1008.44726562 750 992 c 2
 591 906 l 1
 579 914 l 1
 600.36683671 953.1463861 611.242638458 998.691141844 611.242638458 1041.73577429 c 0
 611.242638458 1125.0829999 570.466549231 1199.05664062 486.12109375 1199.05664062 c 0
 374.704201431 1199.05664062 226 1025.4426408 226 638 c 0
 226 433.305718475 259.660885406 91 452 91 c 0xbc
 543.182905593 91 607.663978338 127.291033976 651 177 c 1
 653.894390711 251.675280333 661.2090316 337.023378066 661.2090316 417.079305536 c 0
 661.2090316 550.001121514 641.044016353 668.333472928 547 699 c 1
 547 704 l 1
 898 704 l 1
 898 699 l 1
 829.333333333 677.666666667 795 629.333333333 795 554 c 0
 795 473.431822468 785.362615579 374.58617782 785.362615579 282.636136714 c 0
 785.362615579 152.461489409 804.678213062 36.1072623125 898 5 c 1
 898 0 l 1
 697 0 l 1x7a
 677.666666667 9.33333333333 664.333333333 24.3333333333 657 45 c 1
 585.666666667 3 507.666666667 -18 423 -18 c 0
 144.541820563 -18 70 353.85325292 70 649 c 0xba
EndSplineSet
EndChar

StartChar: S
Encoding: 83 83 10
Width: 651
Flags: HW
HStem: -18 106<199.438 378.135> 971 21G<475 491.314> 1219 107<257.757 445.852>
VStem: 67 151<906.067 1179.67> 418 164<126.724 416.713>
LayerCount: 2
Fore
SplineSet
178 304 m 1
 168.731954896 283.146898516 164 261.34103206 164 234 c 0
 164 170.167319353 197.011986626 120.738053354 239.5 99 c 128
 253.833333333 91.6666666667 268.333333333 88 283 88 c 0
 362.211432846 88 418 155.782047218 418 234 c 0
 418 344.523039351 372.814785721 429.078869037 327 502.5 c 128
 248.758185685 627.88752294 147.942089208 740.078990595 93 888 c 128
 75.6666666667 934.666666667 67 984.666666667 67 1038 c 0
 67 1173.09922292 148.575860266 1262.0701342 247.5 1302.5 c 128
 285.833333333 1318.16666667 329.333333333 1326 378 1326 c 0
 479.65888714 1326 558.971900333 1261.02809967 620 1200 c 1
 479 971 l 1
 475 974 l 1
 481.666666667 1000.66666667 485 1026.33333333 485 1051 c 0
 485 1125.61479615 453.985731244 1182.86461697 406 1208 c 128
 392 1215.33333333 378.333333333 1219 365 1219 c 0
 279.091103443 1219 218 1158.61241394 218 1073 c 0
 218 971.981628446 269.020603362 884.928878389 312.5 813 c 128
 392.551850992 680.568542803 495.629020037 552.126375092 555 401.5 c 128
 573 355.833333333 582 310.666666667 582 266 c 0
 582 130.459624018 504.922314945 43.9430190573 405 4.5 c 128
 367 -10.5 323.666666667 -18 275 -18 c 0
 173.34111286 -18 94.0280996665 46.9719003335 33 108 c 1
 174 307 l 1
 178 304 l 1
EndSplineSet
EndChar

StartChar: N
Encoding: 78 78 11
Width: 933
Flags: W
HStem: -170 118<64 122.08> 0 5<865.916 869> 1322 5<22 25.7967 541 546.376 885.663 892>
VStem: 167 124<165.946 904.158> 656 110.5<383 806.599>
LayerCount: 2
Fore
SplineSet
691 0 m 1
 687 0 l 1
 691 0 l 1
-13 -40 m 1
 10.9322182266 -45.4391405061 34.0041378584 -52 59 -52 c 0
 135.711692293 -52 136.658207852 36.4839422638 143 111 c 1
 159.808976911 277.796770888 167 450.556236163 167 631 c 0
 167 802.774454138 164.659436032 948.16138798 152 1114 c 1
 141.643574821 1213.68059235 103.677424705 1294.77419176 22 1322 c 1
 22 1327 l 1
 218 1327 l 1
 217.333333333 1324.33333333 219 1318 223 1308 c 0
 237.226263243 1271.01171557 253.191116121 1243.64165727 277 1199 c 1
 391.16159386 948.581019919 519.594100718 676.69740629 631 427.5 c 0
 643.666666667 399.166666667 650 384.333333333 650 383 c 1
 653.768679102 491.035467587 656 612.203624926 656 721 c 0
 656 888.75736561 654.948225674 1034.229415 641 1194 c 1
 633.953906193 1260.23328179 599.068552021 1304.32696243 541 1322 c 1
 541 1327 l 1
 892 1327 l 1
 892 1322 l 1
 823.333333333 1300 789 1251.66666667 789 1177 c 0
 789 910.399231342 768.20169306 626.069196511 766.5 355.5 c 0
 766.166666667 302.5 767 258.333333333 769 223 c 1
 771.432535885 124.482296676 802.651652693 35.2894629009 869 5 c 1
 869 0 l 1
 691 0 l 1
 706.187222148 7.59361107378 661.600385272 89.7992294558 653 107 c 1
 548.633885691 353.304029769 419.768653809 617.957909353 312.5 860 c 0
 299.5 889.333333333 293 905 293 907 c 1
 291.666666667 864.333333333 291 823.5 291 784.5 c 0
 291 726 291 726 291 684 c 0
 291 492.617281362 294.723894202 306.310647035 292 117 c 0
 290.526340395 44.7906793517 288.77145308 -24.5706998652 263 -75.5 c 0
 230.792088755 -139.148967461 167.268549978 -170 64 -170 c 1
 -16 -44 l 1
 -13 -40 l 1
EndSplineSet
EndChar

StartChar: J
Encoding: 74 74 12
Width: 654
Flags: HW
HStem: -66 130<166.659 318.375> 295 5<226.113 230> 1322 5<259 265.912 618.663 625>
VStem: 1 149<77.4112 248.394> 375 138<125.845 1273.45>
LayerCount: 2
Fore
SplineSet
150 170 m 0
 150 117.516442122 182.215485003 64 234 64 c 0
 316.877332628 64 342.652433514 126.912798481 357.5 205 c 128
 380.990186738 328.540982105 375 478.542544306 375 641 c 0
 375 835.670175997 375.278240845 1007.42631647 359 1194 c 0
 353.369787082 1260.15500178 315.5236205 1304.41487362 259 1322 c 1
 259 1327 l 1
 625 1327 l 1
 625 1322 l 1
 556.333333333 1300 522 1251.66666667 522 1177 c 1
 516.484311932 989.466605683 513 796.24906177 513 604 c 0
 513 336.849836133 514.21454534 55.207933822 341.5 -39 c 128
 308.5 -57 268 -66 220 -66 c 0
 95.7391308534 -66 1 -1.59948020093 1 120 c 0
 1 173.284643096 19.6888970187 213.784552374 45 249 c 1
 227 300 l 1
 230 295 l 1
 186.044311115 267.789335452 150 230.660081177 150 170 c 0
EndSplineSet
EndChar

StartChar: D
Encoding: 68 68 13
Width: 827
Flags: HW
HStem: 0 110<306 426.624> 0 5<48 54.2637> 1217 110<306 498.094> 1322 5<48 55.0563>
VStem: 163 134<110.773 1216.66> 610 149<421.92 1059.87>
LayerCount: 2
Fore
SplineSet
423 1327 m 2
 534.756646904 1327 609.970811216 1262.08757871 660 1186.5 c 128
 724.872074897 1088.48675641 759 946.971822092 759 779 c 0
 759 549.650368606 710.367165423 349.665272399 627.5 209 c 128
 587.833333333 141.666666667 542.166666667 90 490.5 54 c 128
 438.833333333 18 385.333333333 0 330 0 c 2
 48 0 l 1
 48 5 l 1
 111.582461281 26.1941537604 142.667748637 76.4635592592 147 153 c 0
 156.852271148 351.276956856 163 524.55961345 163 721 c 0
 163 888.75736561 161.948225674 1034.229415 148 1194 c 1
 140.953906193 1260.23328179 106.068552021 1304.32696243 48 1322 c 1
 48 1327 l 1
 423 1327 l 2
297 684 m 0
 297 503.876556167 306 328.200577972 306 149 c 2
 306 110 l 1
 388.089328855 110 441.04201357 158.528665817 479 211 c 128
 573.409325903 341.507009337 610 553.849935086 610 776 c 0
 610 937.74498229 575.98183432 1097.06771154 494 1177 c 128
 467.333333333 1203 436 1216 400 1216 c 2
 306 1217 l 1
 300.496977681 1042.73762658 297 862.933810387 297 684 c 0
EndSplineSet
EndChar

StartChar: V
Encoding: 86 86 14
Width: 739
Flags: HW
HStem: 0 21G<188 552> 1322 5<314.119 319 421 425.881>
VStem: 268 204<21.9102 352.341>
LayerCount: 2
Fore
SplineSet
189 5 m 1
 240.659293637 25.6637174547 273.115335662 61.3853007312 268 133 c 1
 253.222776635 302.266376724 226.880376726 448.749796151 200 606 c 0
 165.612258314 800.365496486 128.251507443 976.097425046 84 1174 c 1
 66.1335539735 1246.84012611 30.3429817192 1299.85498724 -40 1322 c 1
 -41 1327 l 1
 319 1327 l 1
 320 1322 l 1
 260.740155053 1301.01213825 234.715023622 1256.67774488 242 1178 c 1
 263.90583261 995.907766425 297.055069181 820.065677887 327 643 c 1
 339.474765751 554.290554658 355.145113037 443.12932178 370 354 c 1
 383.690278107 443.609093065 400.588919629 554.743428473 413 643 c 1
 442.955482528 820.1280706 476.086436276 995.843501543 498 1178 c 1
 505.282240917 1256.6482019 479.242161156 1301.01840126 420 1322 c 1
 421 1327 l 1
 781 1327 l 1
 780 1322 l 1
 709.647436867 1299.85197087 673.869561755 1246.85282869 656 1174 c 1
 595.238976533 902.263200604 546.568659992 654.156535087 501.5 374 c 128
 489.166666667 297.333333333 479.333333333 217 472 133 c 0
 465.277740403 62.4162742355 499.143488051 24.4461919807 551 5 c 1
 552 0 l 1
 188 0 l 1
 189 5 l 1
EndSplineSet
EndChar

StartChar: F
Encoding: 70 70 15
Width: 649
Flags: HW
HStem: 0 5<42 48.9941 416.234 423> 564 77<301 513.646> 1253 74<314 512.838> 1322 5<42 48.2812>
VStem: 564 4<1113 1119.44> 567 3<456 460.695 744.145 750>
LayerCount: 2
Fore
SplineSet
301 641 m 1
 421.39599487 641 546.230434161 651.344562263 567 750 c 1
 570 750 l 1
 570 456 l 1
 567 456 l 1
 541.01276885 554.751478369 418.808912802 555.780773525 301 564 c 1
 302.35736751 428.26324904 302.10075598 299.337526322 310 169 c 0
 315.581637207 83.8800325937 352.729109508 27.9977459791 423 5 c 1
 423 0 l 1
 42 0 l 1
 42 5 l 1
 114.330162405 29.1100541351 143.87396296 87.4875555245 151 173 c 1
 159.623984235 363.959650922 167 532.540511937 167 721 c 0
 167 881.96826384 167.166040839 1022.33959161 152 1174 c 0
 144.958025583 1250.0533237 106.384136335 1300.53862122 42 1322 c 1
 42 1327 l 1
 622 1327 l 1
 607.417380556 1255.90973021 586.702391324 1180.79616855 568 1113 c 1
 564 1113 l 1
 580.59136647 1240.20047627 431.185329854 1247.90498566 314 1253 c 1
 304.879857946 1064.08277173 301 879.096143518 301 684 c 2
 301 641 l 1
EndSplineSet
EndChar

StartChar: L
Encoding: 76 76 16
Width: 754
Flags: W
HStem: 0 5<42 48.615> 1322 5<42 48.0824 416.287 423>
VStem: 151 162<76.6936 668.038> 167 134<251.891 1194.4>
LayerCount: 2
Fore
SplineSet
313 75 m 1xe0
 379.018303854 79.1261439908 455.638127717 83.1996399456 517 95 c 1
 506.699527788 211.738685074 481.511860618 334.003428663 470 452 c 0
 453.866452785 611.868786038 511.097774073 713.119290993 618 769 c 1
 758 573 l 1
 755 569 l 1
 732.7272023 577.90911908 711.349456269 580 684 580 c 1
 583.939237042 570.237974346 594.336511448 448.797644802 607.5 347 c 0
 621.970518773 235.094654823 647 122.18302668 647 0 c 1
 42 0 l 1
 42 5 l 1
 113.816413624 28.9388045414 145.267926546 87.0188981844 151 173 c 0xe0
 163.2438778 362.780105899 167 530.727357646 167 721 c 0
 167 879.681021386 162.222642536 1020.66036196 152 1174 c 1
 140.925084737 1248.75567803 107.902395507 1300.03253483 42 1322 c 1
 42 1327 l 1
 423 1327 l 1
 423 1322 l 1
 350.202783543 1297.73426118 315.615647931 1245.44645492 310 1157 c 0
 299.457451959 1009.40432742 301 841.868873945 301 684 c 0xd0
 301 477.736741003 305.044856485 273.878587881 313 75 c 1xe0
EndSplineSet
EndChar

StartChar: E
Encoding: 69 69 17
Width: 653
Flags: HW
HStem: 0 74<313 510.564> 0 5<41 47.2812> 688 77<300 503.543> 1253 74<313 510.564> 1322 5<41 47.2812>
VStem: 166 134<74.1923 688 765 1252.81> 537 3<589 594.864 857.136 863> 561 3<209.693 215 1112 1117.31>
LayerCount: 2
Fore
SplineSet
300 684 m 2
 300 485.871710822 305.150418827 265.006475204 313 74 c 1
 431.58890485 78.1610142053 568.338187325 86.5817218211 561 215 c 1
 564 215 l 1
 581.975476782 136.184447956 597.613660726 71.9316963706 612 0 c 1
 41 0 l 1
 41 5 l 1
 105.403964436 26.4679881455 143.956169109 76.9266263753 151 153 c 1
 163.129295461 342.217009196 166 530.676568744 166 721 c 0
 166 881.96826384 166.166040839 1022.33959161 151 1174 c 0
 143.958025583 1250.0533237 105.384136335 1300.53862122 41 1322 c 1
 41 1327 l 1
 612 1327 l 1
 597.920630269 1256.60315134 581.778775926 1189.95309444 564 1112 c 1
 561 1112 l 1
 568.279968275 1239.39944482 434.126260946 1248.74995576 313 1253 c 1
 305.181395104 1091.41549881 301.369524035 930.712408186 300 765 c 1
 333 765 333 765 363.5 765 c 128
 458.38281843 765 521.035885998 787.170458493 537 863 c 1
 540 863 l 1
 540 589 l 1
 537 589 l 1
 521.302674471 663.562296263 457.302928882 687 364 687 c 128
 344.666666667 687 323.333333333 687.333333333 300 688 c 1
 300 684 l 2
EndSplineSet
EndChar

StartChar: W
Encoding: 87 87 18
Width: 1197
Flags: HW
HStem: 0 21G<187 551 646 1010> 1322 5<313.119 318 879 883.881>
VStem: 267 204<47.7827 280.822> 497 203<1004.19 1265.36> 726 204<47.7827 280.822>
CounterMasks: 1 38
LayerCount: 2
Fore
SplineSet
647 5 m 1
 691.47714269 22.7908570762 731.867367905 42.3705316527 726 103 c 0
 699.385401759 419.713719063 634.735360194 694.997346949 598 1002 c 1
 561.305851669 695.341760381 497.660324747 420.25786449 471 103 c 1
 463.267948446 43.076600456 505.317704099 21.755860963 550 5 c 1
 551 0 l 1
 187 0 l 1
 188 5 l 1
 239.659293637 25.6637174547 272.115335662 61.3853007312 267 133 c 1
 252.222776635 302.266376724 225.880376726 448.749796151 199 606 c 0
 164.612258314 800.365496486 127.251507443 976.097425046 83 1174 c 1
 65.1335539735 1246.84012611 29.3429817192 1299.85498724 -41 1322 c 1
 -42 1327 l 1
 318 1327 l 1
 319 1322 l 1
 259.740155053 1301.01213825 233.715023622 1256.67774488 241 1178 c 1
 262.829555315 984.262696581 296.083890876 791.601557519 326 603 c 1
 338.408940292 505.10724881 354.086582351 382.179999524 369 284 c 1
 382.739484352 382.674478525 399.648691213 505.561897348 412 603 c 1
 441.926702155 791.668339675 475.163176715 984.198193348 497 1178 c 1
 504.701436407 1258.09493863 476.023411417 1298.79063543 418 1322 c 1
 417 1327 l 1
 780 1327 l 1
 779 1322 l 1
 719.449231132 1302.14974371 692.457090743 1256.44625627 700 1178 c 1
 721.829555315 984.262696581 755.083890876 791.601557519 785 603 c 1
 797.408940292 505.10724881 813.086582351 382.179999524 828 284 c 1
 841.739484352 382.674478525 858.648691213 505.561897348 871 603 c 1
 900.926702155 791.668339675 934.163176715 984.198193348 956 1178 c 1
 963.282240917 1256.6482019 937.242161156 1301.01840126 878 1322 c 1
 879 1327 l 1
 1239 1327 l 1
 1238 1322 l 1
 1167.64743687 1299.85197087 1131.86956175 1246.85282869 1114 1174 c 1
 1053.23897653 902.263200604 1004.56865999 654.156535087 959.5 374 c 128
 947.166666667 297.333333333 937.333333333 217 930 133 c 0
 923.277740403 62.4162742355 957.143488051 24.4461919807 1009 5 c 1
 1010 0 l 1
 646 0 l 1
 647 5 l 1
EndSplineSet
EndChar

StartChar: Q
Encoding: 81 81 19
Width: 941
Flags: HW
HStem: -18 109<358.484 565.026> 1207 110<363.104 564.76>
VStem: 69 156<315.467 982.544> 708 159<326.695 981.859> 891 4<-232 -226.807>
LayerCount: 2
Fore
SplineSet
867 649 m 0
 867 401.587632837 804.089070172 199.089070172 681 76 c 1
 748.307014361 65.5300199882 801.827435998 52.0862820011 850 28 c 1
 895 -230 l 1
 891 -232 l 1
 839.867595612 -84.9943373841 686.013349055 -18 476 -18 c 0
 422.68258929 -18 373.774162828 -31.3728679858 327 -35.5 c 128
 278.717367045 -39.7602323195 301.672037511 -3.45550345706 320 22 c 1
 141.769644304 122.059147058 69 368.97389939 69 649 c 0
 69 930.598560889 142.267425857 1168.82857756 313.5 1272.5 c 128
 362.5 1302.16666667 415.333333333 1317 472 1317 c 0
 604.09809368 1317 693.015282228 1234.27224094 751 1143 c 128
 827.112039137 1023.19401247 867 851.013061543 867 649 c 0
279.5 271 m 128
 310.040026122 186.598473262 359.268404732 91 462 91 c 0
 560.332880879 91 615.088110976 184.667955938 646.5 265 c 128
 685.964068949 365.924504197 708 506.415024579 708 646 c 0
 708 834.952045218 676.151422571 1012.45798254 597.5 1124 c 128
 567.455590158 1166.60843578 525.949496071 1207 461 1207 c 0
 398.398089959 1207 358.843893037 1164.83675852 331 1122 c 128
 255.547925667 1005.91988564 225 828.052737434 225 638 c 0
 225 504.136209283 243.778441058 369.721399258 279.5 271 c 128
EndSplineSet
EndChar

StartChar: P
Encoding: 80 80 20
Width: 740
Flags: HW
HStem: 0 5<48 54.2617 402.73 409> 307 115<299 414.08> 1220 107<306.626 472.403> 1322 5<48 55.0563>
VStem: 163 134<56.2378 153 840 922> 518 160<611.844 1160.33>
LayerCount: 2
Fore
SplineSet
48 1327 m 1
 443 1327 l 2
 520.662945207 1327 573.244250811 1281.07002957 608.5 1229 c 128
 654.176120278 1161.5398839 678 1063.4824465 678 947 c 0
 678 730.711971589 632.053684408 527.802644348 532 407.5 c 128
 481.185408121 346.401502621 408.66670804 298.342101997 299 307 c 1
 303.400258515 218.994829702 296.936108676 114.868001388 334 58.5 c 128
 350 34.1666666667 375 16.3333333333 409 5 c 1
 409 0 l 1
 48 0 l 1
 48 5 l 1
 112.120273362 26.3734244541 141.258174822 76.9208163908 147 153 c 1
 155.638326955 351.681519965 163 525.154402689 163 721 c 0
 163 889.339998488 163.177530261 1034.63593226 148 1194 c 0
 140.953906193 1260.23328179 106.068552021 1304.32696243 48 1322 c 1
 48 1327 l 1
392 1220 m 0
 364.87430125 1220 331.050460079 1219.50504601 306 1217 c 1
 306 1177 l 1
 303.086223558 1091.52922438 300.559174245 1008.85228806 299.5 922 c 128
 299 881 299 881 298.5 840 c 128
 297.879300314 789.10262576 297 733.694090994 297 684 c 0
 297 595.272220607 297.671284964 509.695192362 299 422 c 1
 379 422 435.5 465.666666667 468.5 553 c 128
 501.5 640.333333333 518 771.666666667 518 947 c 0
 518 1075.988529 498.853331646 1220 392 1220 c 0
EndSplineSet
EndChar

StartChar: K
Encoding: 75 75 21
Width: 772
Flags: HW
HStem: -220 144<801.125 884> 0 5<48 54.2617 402.729 409> 1193 200<666.281 773> 1322 5<48 55.0563 402.663 409>
VStem: 163 134<56.2378 647.014 782 1273.7>
LayerCount: 2
Fore
SplineSet
368 692 m 1
 342.147118408 647.834660613 318.347145534 608.81299188 297 570 c 1
 297 425.405800758 296.857480157 286.137797643 306 149 c 0
 310.288574286 71.8056628491 345.280347077 26.2398843077 409 5 c 1
 409 0 l 1
 48 0 l 1
 48 5 l 1
 112.120273362 26.3734244541 141.258174822 76.9208163908 147 153 c 1
 155.638326955 351.681519965 163 525.154402689 163 721 c 0
 163 889.339998488 163.177530261 1034.63593226 148 1194 c 0
 140.953906193 1260.23328179 106.068552021 1304.32696243 48 1322 c 1
 48 1327 l 1
 409 1327 l 1
 409 1322 l 1
 340.333333333 1300 306 1251.66666667 306 1177 c 1
 301.989298395 1050.66289945 298.949891236 914.592604029 297 782 c 1
 364.620491058 919.841770234 426.177685187 1030.44673869 499 1168 c 0
 555.392787254 1276.27415153 617.346445851 1387.01332484 773 1393 c 1
 831 1157 l 1
 825 1154 l 1
 799 1180 773.333333333 1193 748 1193 c 0
 697.408176693 1193 661.808552775 1148.71282916 638 1113 c 0
 575.92535451 1021.86913747 505.032265229 914.451624366 446 820 c 1
 531.52399082 557.529821277 639.630145973 296.037735473 751 57 c 0
 773.052954602 11.0563445788 795.284831386 -38.0728891967 835.5 -64.5 c 128
 847.166666667 -72.1666666667 860.666666667 -76 876 -76 c 0
 906.983810122 -76 928.671426203 -63.2389627616 951 -47 c 1
 956 -50 l 1
 884 -220 l 1
 714.266457196 -220 651.705629289 -101.420879732 606 23 c 1
 544.145705341 183.821166113 477.922590422 361.175522966 422 526 c 1
 368 692 l 1
EndSplineSet
EndChar

StartChar: I
Encoding: 73 73 22
Width: 457
Flags: HW
HStem: 0 5<48 54.2617 402.73 409> 1322 5<48 55.0563 402.663 409>
VStem: 147 159<38.7734 447.682> 163 134<56.2378 1273.7>
LayerCount: 2
Fore
SplineSet
409 1322 m 1
 340.333333333 1300 306 1251.66666667 306 1177 c 1
 303.086223558 1091.52922438 300.559174245 1008.85228806 299.5 922 c 128
 299 881 299 881 298.5 840 c 128
 297.879300314 789.10262576 297 733.694090994 297 684 c 0
 297 499.714218128 295.463444852 324.170229336 306 149 c 1
 311.686087927 72.2378129906 344.733411008 26.4221963308 409 5 c 1
 409 0 l 1
 48 0 l 1
 48 5 l 1
 112.120273362 26.3734244541 141.258174822 76.9208163908 147 153 c 1
 155.638326955 351.681519965 163 525.154402689 163 721 c 0
 163 889.339998488 163.177530261 1034.63593226 148 1194 c 0
 140.953906193 1260.23328179 106.068552021 1304.32696243 48 1322 c 1
 48 1327 l 1
 409 1327 l 1
 409 1322 l 1
EndSplineSet
EndChar

StartChar: X
Encoding: 88 88 23
Width: 786
Flags: HW
HStem: 0 21G<-10 351 459 820> 1322 5<-38 -31.0049 429 434.389 782.011 789>
LayerCount: 2
Fore
SplineSet
-40 1327 m 1
 320 1327 l 1
 322 1322 l 1
 271.92817104 1304.90230231 250.99514911 1262.70984552 270 1194 c 0
 304.708807149 1072.51917498 343.332599352 962.249324359 385 848 c 1
 422.512492281 961.877208711 456.530677725 1072.10416695 486 1194 c 0
 502.270198408 1263.51812047 478.667453599 1305.1108488 428 1322 c 1
 429 1327 l 1
 790 1327 l 1
 789 1322 l 1
 713.666666667 1300 663.333333333 1251.66666667 638 1177 c 1
 575.961320355 1006.39363098 515.161289222 834.483867667 457 660 c 1
 523.649516672 486.711256654 588.452880022 330.102264867 664 153 c 0
 694.268623043 83.2505642916 742.268348906 27.8848783966 819 5 c 1
 820 0 l 1
 460 0 l 1
 459 5 l 1
 517.454577379 27.0828403431 530.384870963 74.718645177 507 149 c 0
 471.709377698 257.586530159 433.27647167 364.95352649 394 471 c 1
 359.981911646 365.020570896 325.882058268 257.662030066 296 149 c 1
 275.919531442 71.5467641322 294.876099817 26.2023622913 351 5 c 1
 350 0 l 1
 -10 0 l 1
 -9 5 l 1
 67.0689174685 27.6872209994 112.034376828 82.4200938994 140 153 c 1
 206.887516207 330.128052178 264.093796966 486.281390897 322 660 c 1
 314 684 l 1
 252.268326733 850.200658796 185.400850072 1014.68681093 119 1177 c 1
 89.6666666667 1251.66666667 37.3333333333 1300 -38 1322 c 1
 -40 1327 l 1
EndSplineSet
EndChar

StartChar: Y
Encoding: 89 89 24
Width: 730
Flags: HW
HStem: 0 5<181 189.82> 1322 5<309.115 314 416 420.883>
VStem: 286 158.5<46.8125 577.777>
LayerCount: 2
Fore
SplineSet
181 5 m 1
 255.930487306 22.1715700076 283.777610375 118.103661708 286 217 c 2
 289 331 l 1
 262.150481488 527.001485141 207.815307087 696.710901575 165 876 c 1
 137.844835553 974.616123517 107.860322366 1072.36147341 79 1174 c 0
 58.4898496564 1245.10185452 25.8736465665 1299.68792608 -45 1322 c 1
 -46 1327 l 1
 314 1327 l 1
 315 1322 l 1
 256.358158777 1301.23101457 226.77559531 1256.87397904 237 1178 c 1
 266.465384056 974.420982885 328.526288257 804.000149463 365 606 c 1
 401.532513946 804.319361419 463.394291553 973.451468909 493 1178 c 1
 501.749676904 1256.74709213 473.933537807 1301.12770536 415 1322 c 1
 416 1327 l 1
 776 1327 l 1
 775 1322 l 1
 704.11947353 1299.68576019 671.513289108 1245.11273557 651 1174 c 0
 587.392291398 949.990243621 520.195328866 735.035789102 469 501 c 128
 459.666666667 458.333333333 451.666666667 414.333333333 445 369 c 1
 443 223 l 1
 443 107.242313294 457.750926426 41.1106993664 539 5 c 1
 539 0 l 1
 181 0 l 1
 181 5 l 1
EndSplineSet
EndChar

StartChar: Z
Encoding: 90 90 25
Width: 679
Flags: HW
HStem: 0 114<296 568.516> 1213 114<114.637 401> 1322 5<693.078 700>
VStem: 43 9<1074 1107.04> 638 9<227.868 253>
LayerCount: 2
Fore
SplineSet
647 254 m 1
 639.794760882 169.938876958 628.683619394 81.907748686 618 0 c 1
 -13 0 l 1
 -12 5 l 1
 67.3620700495 29.2121569643 116.296610375 88.6718462722 140 169 c 1
 244.845963583 500.092516578 331.322779882 848.53454092 401 1213 c 1
 280.509328854 1208.9836443 150.086765899 1203.60445873 83 1147 c 128
 61.6666666667 1129 51.3333333333 1104.66666667 52 1074 c 1
 43 1073 l 1
 43 1121.4386332 43.5698742536 1187.61254794 46 1235 c 0
 48 1281 48 1281 50 1327 c 1
 700 1327 l 1
 700 1322 l 1
 625.362815643 1299.34228332 578.288277513 1245.87194662 553 1174 c 0
 500.739461099 1022.31697246 468.851935708 878.984459415 429 721 c 0
 382.920276416 538.121097026 342.721581828 368.965005554 301 173 c 0
 297 150.333333333 295.333333333 130.666666667 296 114 c 1
 414.168597573 118.074779227 536.089179081 125.827933391 602.5 181 c 128
 624.166666667 199 636 223 638 253 c 1
 647 254 l 1
EndSplineSet
EndChar

StartChar: k
Encoding: 107 107 26
Width: 819
Flags: HW
HStem: 0 5<25 31.2617 379.73 386> 897 179<601.859 711> 1262 5<-5 3.82812>
VStem: 140 134<56.2378 342 531 1236.3>
LayerCount: 2
Fore
SplineSet
763 861 m 1
 740.065531433 884.931619374 712.251899413 897 675 897 c 0
 625.79605675 897 598.462644198 853.112194761 576 816 c 0
 525.068344778 732.472085435 471.457112655 646.507643519 421 565 c 1
 621 227 l 2
 639.666666667 195 656.666666667 170.666666667 672 154 c 128
 687.333333333 137.333333333 705.666666667 129 727 129 c 0
 745.666666667 129 769.666666667 137 799 153 c 1
 805 148 l 1
 714 -60 l 1
 574.060805514 -35.3048480319 545.53429313 78.6254897368 485 184 c 1
 343 457 l 1
 276 342 l 1
 278.213832593 244.591365907 271.246177073 118.958939036 311 58.5 c 128
 327 34.1666666667 352 16.3333333333 386 5 c 1
 386 0 l 1
 25 0 l 1
 25 5 l 1
 89.1202733622 26.3734244541 118.258174822 76.9208163908 124 153 c 1
 132.638326955 351.681519965 140 525.154402689 140 721 c 0
 140 861.053887591 142.642622773 973.360658406 135 1088 c 128
 129.509363258 1170.35955113 124.498901838 1245.17019767 56 1257.5 c 128
 39.3333333333 1260.5 19 1262 -5 1262 c 1
 -5 1267 l 1
 286 1347 l 1
 270.207556206 1141.69823067 274 913.355722385 274 684 c 2
 274 531 l 1
 327.24805363 633.058769458 382.459920061 743.67919754 437 851 c 0
 492.680639032 960.134052502 555.194650329 1070.00748655 711 1076 c 1
 769 867 l 1
 763 861 l 1
EndSplineSet
EndChar

StartChar: question
Encoding: 63 63 27
Width: 739
Flags: HW
HStem: -29 202<211.909 366.155> 1191 138<250.438 485.116>
VStem: 38 151<897.903 1128.24> 182 202<0.909424 155.155> 238 93<270 447.646> 552 146<804.833 1123.52>
LayerCount: 2
Fore
SplineSet
357 1329 m 0
 570.992642922 1329 698 1207.48776252 698 992 c 0
 698 752.112934482 566.979193782 658.661327209 447 540.5 c 128
 382.816679566 477.289154118 331 396.55832773 331 270 c 1
 238 270 l 1
 238 503.268346426 376.132392279 604.36770464 470.5 742.5 c 128
 514.347556473 806.682655127 552 878.149882725 552 983 c 0
 552 1103.98934943 481.637235369 1191 364 1191 c 0
 257.736033366 1191 189 1104.37040752 189 1000 c 0
 189 931.032660897 224.688141639 879 294 879 c 0
 306 879 319 880 333 882 c 1
 187 779 l 1
 102.483731121 826.540401244 38 897.716243398 38 1011 c 0
 38 1153.62900581 134.197277129 1254.17974347 234 1301.5 c 128
 272.666666667 1319.83333333 313.666666667 1329 357 1329 c 0
282 -29 m 0
 226.416837321 -29 182 15.4183043476 182 71 c 0
 182 128.420250462 224.491656383 173 282 173 c 256
 340.094265188 173 384 129.090957296 384 71 c 256
 384 13.4874427197 339.416780338 -29 282 -29 c 0
EndSplineSet
EndChar

StartChar: o
Encoding: 111 111 28
Width: 724
Flags: HW
HStem: -29 106<284.579 445.33> 885 107<284.579 445.33>
VStem: 63 150<194.95 770.313> 511 150<194.95 770.313>
LayerCount: 2
Fore
SplineSet
213 482 m 256
 213 348 226.333333333 247 253 179 c 128
 279.666666667 111 317 77 365 77 c 0
 413.666666667 77 450.166666667 111 474.5 179 c 128
 498.833333333 247 511 348 511 482 c 256
 511 616 498.833333333 716.666666667 474.5 784 c 128
 450.166666667 851.333333333 413.666666667 885 365 885 c 0
 317 885 279.666666667 851.333333333 253 784 c 128
 226.333333333 716.666666667 213 616 213 482 c 256
63 482 m 256
 63 695.063706564 116.931075001 879.885291137 246 958.5 c 128
 282.666666667 980.833333333 322.333333333 992 365 992 c 0
 464.7157389 992 531.036227577 929.816130187 574 860 c 128
 630.843483544 767.62933924 661 636.423772549 661 482 c 256
 661 269.381935892 607.136357623 85.0488177624 480 5 c 128
 444 -17.6666666667 405.666666667 -29 365 -29 c 0
 262.232507256 -29 194.679129643 33.0952240303 150.5 104 c 128
 93.0657100493 196.178490044 63 327.32627148 63 482 c 256
EndSplineSet
EndChar

StartChar: p
Encoding: 112 112 29
Width: 811
Flags: HW
HStem: -371 21G<127 197.75> -291 5<407.262 416> -16 96<316.071 511.682> 900 91<337.311 511.969> 971 5<16 22.7656>
VStem: 137 134<-253.094 70 125.049 825> 597 150<194.494 771.295>
LayerCount: 2
Fore
SplineSet
434 -16 m 0
 359.367446111 -16 300.951754577 20.5468957475 273 70 c 1
 273 -60.6033643641 254.286272299 -211.458024349 329.5 -265 c 128
 349.166666667 -279 378 -286 416 -286 c 1
 416 -291 l 1
 125 -371 l 1
 141.737210773 -220.36510304 137 -27.9452790629 137 136 c 2
 138 352 l 2
 139.362170673 512.736139385 138.273836457 654.644115357 129 807 c 0
 123.418362793 892.119967406 86.2708904916 948.002254021 16 971 c 1
 16 976 l 1
 201 976 l 1
 240.791433811 958.591247708 262.24405164 927.615312805 274 885 c 1
 304.136182452 940.249667828 360.758162341 988.814311855 446 991 c 1
 560.103244409 992.521376592 627.7695224 922.70391239 671 842.5 c 128
 722.363186987 747.20777151 747 612.37558399 747 464 c 0
 747 258.810651494 689.25526739 89.2747163507 560.5 16.5 c 128
 522.166666667 -5.16666666667 480 -16 434 -16 c 0
429 900 m 0
 353.393829143 900 314.493416165 836.720745392 294.5 776 c 128
 285.5 748.666666667 280.333333333 716.666666667 279 680 c 0
 272.02446847 563.741141163 271 448.886530479 271 327 c 0
 271 229.997339271 284.177616712 157.105727603 325 113.5 c 128
 346.929162397 90.0756674392 372.338858084 80 408 80 c 0
 534 80 597 208 597 464 c 0
 597 590.262161044 584.959031196 703.766812632 550.5 788 c 128
 528.182926993 842.552845128 493.275160028 900 429 900 c 0
EndSplineSet
EndChar

StartChar: t
Encoding: 116 116 30
Width: 539
Flags: HW
HStem: -28 109<279.133 398.329> 891 77<23.2512 121 261 489.709> 908 60<23 120.197>
VStem: 123 134.5<111.947 891 968 1127.87>
LayerCount: 2
Fore
SplineSet
118 258 m 0
 118 387.336170825 123 494.500681868 123 621 c 0
 123 709 123 709 123 776.5 c 128
 123 821.5 122.666666667 861.333333333 122 896 c 1
 83.246025067 898.672687926 53.1196222422 900.470094439 23 908 c 1
 23 968 l 1
 121 968 l 1
 118.973516604 1026.76801848 120.584996802 1070.14125879 107 1107.5 c 128
 99.9990537586 1126.75260216 91.0370138849 1132 68 1132 c 1
 68 1137 l 1
 299 1247 l 1
 276.615806117 1161.41337633 266.421942413 1069.66142025 261 968 c 1
 331 968 l 2
 408.107687861 968 473.044537212 967.674089535 535 978 c 1
 495 848 l 1
 462.455584117 880.544415883 401.241050796 891 330 891 c 2
 258 891 l 1
 257.333333333 867.666666667 257 843.833333333 257 819.5 c 128
 257 783 257 783 257 745 c 0
 257 556.696928923 260 396.053623083 260 211 c 256
 260 164.333333333 267.666666667 131 283 111 c 128
 298.333333333 91 315.666666667 81 335 81 c 0
 396.257680588 81 425 162.216871613 425 226 c 0
 425 243.333333333 423 257.666666667 419 269 c 1
 422 271 l 1
 549 56 l 1
 482.484673496 9.95092780499 416.374077867 -28 325 -28 c 0
 214.521213285 -28 156.22249306 63.3958290991 132 152.5 c 128
 122.666666667 186.833333333 118 222 118 258 c 0
EndSplineSet
EndChar

StartChar: l
Encoding: 108 108 31
Width: 410
Flags: HW
HStem: 0 5<25 31.2617 379.73 386> 1262 5<-5 3.82812>
VStem: 140 134<56.2378 1236.38>
LayerCount: 2
Fore
SplineSet
286 1347 m 1
 270.15509722 1141.01626386 274 914.385413035 274 684 c 0
 274 499.714218128 272.463444852 324.170229336 283 149 c 1
 288.686087927 72.2378129906 321.733411008 26.4221963308 386 5 c 1
 386 0 l 1
 25 0 l 1
 25 5 l 1
 89.1202733622 26.3734244541 118.258174822 76.9208163908 124 153 c 1
 132.638326955 351.681519965 140 525.154402689 140 721 c 0
 140 861.053887591 142.642622773 973.360658406 135 1088 c 128
 129.509363258 1170.35955113 124.498901838 1245.17019767 56 1257.5 c 128
 39.3333333333 1260.5 19 1262 -5 1262 c 1
 -5 1267 l 1
 286 1347 l 1
EndSplineSet
EndChar

StartChar: m
Encoding: 109 109 32
Width: 1245
Flags: HW
HStem: 0 5<40 46.2637 377.286 385 792.273 799 910 914.916 1233.61 1242> 885 107<360.419 529.389 779.154 948.509>
VStem: 150 133<46.2721 799.088> 566 150<46.2721 817.848> 995 135<46.2721 836.578>
LayerCount: 2
Fore
SplineSet
664 846 m 1
 703.993866659 922.510005783 767.842261357 992 877 992 c 0
 955 992 1016.66666667 958 1062 890 c 128
 1107.33333333 822 1130 722.666666667 1130 592 c 0
 1130 528 1130 528 1130 469 c 128
 1130 347.821518399 1133.28256989 233.254412267 1139 117 c 1
 1144.40845191 46.6901252063 1182.49701198 21.6608366455 1242 5 c 1
 1242 0 l 1
 910 0 l 1
 910 5 l 1
 962.631103525 26.0524414099 986.257271004 51.060410614 989 121 c 1
 991.294852802 215.088964869 995 314.172904999 995 409 c 0
 995 532.90904508 996.713540181 656.03364489 978 753.5 c 128
 965.535999875 818.416667318 943.448796601 885 876 885 c 0
 789.278301105 885 743.70203807 807.168464289 721.5 737.5 c 128
 711.833333333 707.166666667 706.666666667 673.666666667 706 637 c 1
 714.348362753 513.8616494 716 379.453415649 716 248 c 128
 716 181 716 181 716 117 c 1
 718.554123512 50.5927886961 748.011974091 22.8458090681 799 5 c 1
 799 0 l 1
 497 0 l 1
 497 5 l 1
 544.862063604 26.8798005047 563.343500778 53.25926985 566 121 c 1
 568.294852802 215.088964869 572 314.172904999 572 409 c 0
 572 532.276813678 573.048608196 654.996379785 556.5 753.5 c 128
 545.830420083 817.009404266 526.48750993 885 463 885 c 0
 370.217898319 885 320.207360342 805.169192855 297.5 730 c 128
 287.833333333 698 283 662.666666667 283 624 c 2
 283 534 l 2
 283 395.080243003 283.741319077 249.138894761 292 117 c 0
 297.236234284 48.9289543102 328.61064544 22.1619774749 385 5 c 1
 385 0 l 1
 40 0 l 1
 40 5 l 1
 103.029824078 24.7740624558 134.657867031 47.1837395354 139 121 c 1
 144.275017869 247.600428853 150 380.66581035 150 511 c 0
 150 621.876037715 156.130481196 714.882632259 134.5 792 c 128
 119.716194452 844.707480649 90.6102053502 867 25 867 c 1
 25 872 l 1
 296 992 l 1
 285.33869162 961.348738409 286 917.619982487 286 876 c 1
 321.755872896 940.360571212 379.657738206 992 474 992 c 0
 574.970069728 992 631.828337688 925.874471948 664 846 c 1
EndSplineSet
EndChar

StartChar: n
Encoding: 110 110 33
Width: 807
Flags: HW
HStem: 0 5<52 61.312 371.638 377 479 485.391 783.959 791> 885 107<363.368 515.508>
VStem: 162 133<36.7329 808.135> 554 135<33.5522 852.623>
LayerCount: 2
Fore
SplineSet
278 856 m 1
 312.195186484 927.809891617 366.849967574 992 466 992 c 0
 535.333333333 992 589.833333333 958.166666667 629.5 890.5 c 128
 669.166666667 822.833333333 689 723.333333333 689 592 c 0
 689 522 689 522 689 463.5 c 128
 689 339.484735273 692.664399767 229.940271951 698 109 c 1
 702.615903363 50.5318907296 737.379556348 20.1536036407 791 5 c 1
 791 0 l 1
 479 0 l 1
 479 5 l 1
 523.905417141 19.1131311015 543.809457307 59.919792557 548 113 c 1
 551.311084888 216.747326481 554 314.804475055 554 409 c 0
 554 531.99987629 555.819319171 654.629255178 540 753.5 c 128
 530.188939669 814.819127071 514.470861378 885 455 885 c 0
 368.931847613 885 327.495066772 801.981785003 308 730 c 128
 299.333333333 698 295 662.666666667 295 624 c 2
 295 494 l 2
 295 361.764882716 297.445912164 236.149304028 304 109 c 1
 308.256764873 55.0809782693 332.985178783 21.3483621664 377 5 c 1
 377 0 l 1
 52 0 l 1
 52 5 l 1
 111.008829835 17.7273946703 146.239144962 52.6958361829 151 113 c 1
 157.228304019 236.320419573 162 347.586084216 162 471 c 0
 162 547.666666667 161.333333333 611.333333333 160 662 c 128
 156.714531607 786.84779895 140.981605532 867 17 867 c 1
 17 872 l 1
 288 992 l 1
 277.104577158 955.227947909 278 904.442064215 278 856 c 1
EndSplineSet
EndChar

StartChar: q
Encoding: 113 113 34
Width: 808
Flags: HW
HStem: -372 21G<523.5 594.75> -292 5<803.945 813> -17 96<295.318 519.551> 899 91<344.781 523.193> 970 5<781.006 788>
VStem: 60 150<193.494 729.06> 534 134.5<-263.155 36 98.4468 896.58>
LayerCount: 2
Fore
SplineSet
533 36 m 1
 487.477332214 6.73542785169 437.761271178 -17 373 -17 c 0
 265.951749041 -17 194.510915111 39.7668256176 147.5 110 c 128
 90.2992710938 195.456510655 60 317.523090498 60 463 c 0
 60 693.692208052 133.75463499 870.844107761 285 950.5 c 128
 335 976.833333333 393.666666667 990 461 990 c 0
 507.470040127 990 571.0000717 977.222219036 621 975 c 1
 788 975 l 1
 788 970 l 1
 715.669837595 945.889945865 686.12603704 887.512444475 679 802 c 1
 676.509677866 609.000034593 668 439.756937516 668 254 c 0
 668 113.946112409 665.357377227 1.63934159402 673 -113 c 128
 678.471136642 -195.067049634 683.554549482 -270.020223374 751.5 -282.5 c 128
 767.833333333 -285.5 788.333333333 -287 813 -287 c 1
 813 -292 l 1
 522 -372 l 1
 534.719215558 -249.047582938 533 -98.1666277971 533 36 c 1
399 79 m 0
 452.117972596 79 493.538314461 97.1379803234 534 121 c 1
 534 135 l 1
 535 351 l 2
 536.347001345 524.763173493 532.015952393 720.848877334 523 887 c 1
 510.969785163 892.012589515 492.559081978 899 478 899 c 0
 327.524102201 899 260.097128601 778.380306717 229.5 650.5 c 128
 216.5 596.166666667 210 533.666666667 210 463 c 0
 210 207 273 79 399 79 c 0
EndSplineSet
EndChar

StartChar: r
Encoding: 114 114 35
Width: 609
Flags: HW
HStem: 0 5<50 59.312 368.763 375> 887 105<361.462 493.999> 907 5<15 23.4381>
VStem: 160 133.5<37.2109 809.498>
LayerCount: 2
Fore
SplineSet
508 769 m 0
 508 821.700509731 490.175330635 887 438 887 c 0
 394.460380235 887 362.135184126 848.599821919 342 816 c 128
 312.889860242 768.869297535 293 702.110316985 293 624 c 0
 293 445.650402078 291.484740202 278.558564243 302 109 c 0
 305.333333333 56.3333333333 329.666666667 21.6666666667 375 5 c 1
 375 0 l 1
 50 0 l 1
 50 5 l 1
 109.008829835 17.7273946703 144.239144962 52.6958361829 149 113 c 1
 155.228304019 236.320419573 160 347.586084216 160 471 c 0
 160 555.666666667 159.333333333 626 158 682 c 128
 154.871141161 813.412071253 143.783010591 907 15 907 c 1
 15 912 l 1
 286 992 l 1
 275.104577158 955.227947909 276 904.442064215 276 856 c 1
 306.878038696 924.144637123 368.83334809 992 457 992 c 0
 528.805743878 992 576.91054802 948.538049854 612 899 c 1
 505 724 l 1
 502 726 l 1
 506 736.666666667 508 751 508 769 c 0
EndSplineSet
EndChar

StartChar: s
Encoding: 115 115 36
Width: 525
Flags: HW
HStem: -29 106<163.286 307.882> 887 105<209.753 364.756>
VStem: 57 134<653.745 868.267> 325 143<91.1367 308.314>
LayerCount: 2
Fore
SplineSet
142 187 m 0
 142 130.996087859 182.683659647 77 239 77 c 0
 290.401413362 77 325 129.122420766 325 181 c 0
 325 244.957143359 285.391498843 302.389527228 255.5 349 c 128
 193.563983793 445.578194764 118.625751128 540.907253064 77 658.5 c 128
 63.6666666667 696.166666667 57 734.666666667 57 774 c 0
 57 879.05748777 130.650748391 945.970973528 208.5 975.5 c 128
 237.5 986.5 267.333333333 992 298 992 c 0
 383.34109972 992 444.572637982 952.394053869 487 898 c 1
 380 739 l 1
 377 741 l 1
 381 751.666666667 383 763.333333333 383 776 c 256
 383 829.856753622 351.343179399 887 298 887 c 0
 236.939831403 887 191 844.401184856 191 783 c 0
 191 717.110270655 232.123176469 656.803314993 263 607.5 c 128
 325.501505961 507.699208224 402.97199875 404.707222774 447.5 288.5 c 128
 461.166666667 252.833333333 468 218.333333333 468 185 c 0
 468 81.7392580457 404.391716094 15.7142899863 329 -13.5 c 128
 302.333333333 -23.8333333333 274.666666667 -29 246 -29 c 0
 148.482173784 -29 81.514667772 25.5662436651 41 97 c 1
 148 226 l 1
 151 223 l 1
 145 213 142 201 142 187 c 0
EndSplineSet
EndChar

StartChar: a
Encoding: 97 97 37
Width: 682
Flags: HW
HStem: -29 106<227.089 365.844> 0 5<647.368 654> 552 81<271.472 419> 887 105<229.736 388.309>
VStem: 54 141<103.514 446.704> 419 142<135.185 551.451 626 859.995>
LayerCount: 2
Fore
SplineSet
219 785 m 0
 219 743.313999623 233.666526682 703.000239974 250 675 c 1
 248 672 l 1
 78 777 l 1
 102.231820219 909.343018117 167.56438453 992 317 992 c 0
 503.651827901 992 564.162932454 842.350247019 563 640 c 0
 563 539.476194416 562 456.331090543 562 369 c 128
 562 318.988185289 561 282.774302285 561 241.5 c 130
 561 188 l 2
 561 97.0036102839 583.580674484 27.7159114568 654 5 c 1
 654 0 l 1
 499 0 l 1
 468.926518708 18.3055973081 454.176252542 51.481446048 446 91 c 1
 416.451323245 31.9026464907 364.404884438 -29 274 -29 c 0
 121.089217651 -29 54 97.8541101445 54 250 c 0
 54 409.604701683 130.207291665 536.691780302 231 599 c 128
 267.666666667 621.666666667 308.666666667 633 354 633 c 0
 376.666666667 633 398.333333333 630.666666667 419 626 c 1
 419 713.316887718 416.312479592 784.567006559 391 837 c 128
 374.812189076 870.531894057 350.702572605 887 306 887 c 0
 244.826461706 887 219 845.805527598 219 785 c 0
291 77 m 0
 397.147285532 77 419 244.639744223 419 351 c 2
 419 542 l 1
 399.666666667 548.666666667 380.333333333 552 361 552 c 0
 238.274289776 552 195 400.863222573 195 277 c 0
 195 201.076183003 209.757908074 129.471917599 249 93.5 c 128
 261 82.5 275 77 291 77 c 0
EndSplineSet
EndChar

StartChar: b
Encoding: 98 98 38
Width: 838
Flags: HW
HStem: -15 91<282 526.094> 0 5<18 24.9941> 896 96<287.653 531.814> 1262 5<-7 1.82812>
VStem: 133 140<84.2548 876.204 938 1242.07> 626 150<218.271 770.3>
LayerCount: 2
Fore
SplineSet
445 -15 m 0
 352.186843616 -15 257.994732372 0 161 0 c 2
 18 0 l 1
 18 5 l 1
 90.3301624052 29.1100541351 119.87396296 87.4875555245 127 173 c 1
 128.248059967 366.44929496 138 535.808360312 138 721 c 0
 138 861.053887591 140.642622773 973.360658406 133 1088 c 128
 127.509363258 1170.35955113 122.498901838 1245.17019767 54 1257.5 c 128
 37.3333333333 1260.5 17 1262 -7 1262 c 1
 -7 1267 l 1
 284 1347 l 1
 271.200151637 1223.2681325 272 1072.88486353 272 938 c 1
 328 974 381.666666667 992 433 992 c 0
 614.754025684 992 708.469608061 860.694309121 750.5 714 c 128
 767.5 654.666666667 776 587.333333333 776 512 c 0
 776 294.538792506 721.62291521 108.001682413 589.5 24.5 c 128
 547.833333333 -1.83333333333 499.666666667 -15 445 -15 c 0
407 896 m 0
 353.24578063 896 312.807042559 877.065691766 272 853 c 1
 272 840 l 1
 271 624 l 2
 269.652295562 450.146127487 274.266221702 254.565196462 282 87 c 1
 331.46922705 81.1108063036 377.359675392 76 428 76 c 0
 501.236602014 76 543.914226052 130.703170494 571 188 c 128
 609.914188904 270.318476528 626 383.963399955 626 512 c 0
 626 717.194272006 586.643124908 896 407 896 c 0
EndSplineSet
EndChar

StartChar: c
Encoding: 99 99 39
Width: 735
Flags: HW
HStem: -29 105<311.156 533.337> 887 105<305.857 506.816>
VStem: 61 150<210.765 758.841>
LayerCount: 2
Fore
SplineSet
552 688 m 0
 552 793.698607 513.963450884 887 407 887 c 0
 336.829457175 887 294.45834478 840.751593925 266.5 788 c 128
 226.078092706 711.732250389 211 605.161808842 211 481 c 0
 211 347 229.666666667 246 267 178 c 128
 304.333333333 110 356.333333333 76 423 76 c 0
 541.236639459 76 595.568820029 185.496296477 620 281 c 1
 624 282 l 1
 673 146 l 1
 621.626178347 50.9037769403 544.284488773 -29 414 -29 c 0
 297.390860046 -29 216.402585493 29.2385672202 162.5 103 c 128
 96.9546119155 192.693688958 61 322.620196092 61 481 c 256
 61 700.706852265 123.79990377 880.614821953 261.5 958 c 128
 301.833333333 980.666666667 345.666666667 992 393 992 c 0
 599.592603825 992 668.008378299 850.746591886 712 687 c 1
 517 585 l 1
 514 590 l 1
 535.52487452 616.90609315 552 646.445020155 552 688 c 0
EndSplineSet
EndChar

StartChar: d
Encoding: 100 100 40
Width: 798
Flags: HW
HStem: -15 91<298.862 466.888> 0 5<778.234 785> 896 96<299.318 488.094> 1262 5<385 393.738>
VStem: 64 150<204.705 781.506> 528.5 135<143.689 857.042 906 1230.74>
LayerCount: 2
Fore
SplineSet
377 992 m 0
 447.933748905 992 502.718332383 954.4565296 528 906 c 1
 528 1036.60336436 546.713727701 1187.45802435 471.5 1241 c 128
 451.833333333 1255 423 1262 385 1262 c 1
 385 1267 l 1
 676 1347 l 1
 659.262789227 1196.36510304 664 1003.94527906 664 840 c 2
 663 624 l 2
 661.637829327 463.263860615 662.726163543 321.355884643 672 169 c 0
 677.581637207 83.8800325937 714.729109508 27.9977459791 785 5 c 1
 785 0 l 1
 600 0 l 1
 560.208566189 17.4087522924 538.75594836 48.384687195 527 91 c 1
 497.846228339 37.5514186222 447.196848105 -12.7784635647 365 -15 c 1
 250.896755591 -16.5213765921 183.2304776 53.2960876101 140 133.5 c 128
 88.6368130126 228.79222849 64 363.62441601 64 512 c 0
 64 717.189348506 121.74473261 886.725283649 250.5 959.5 c 128
 288.833333333 981.166666667 331 992 377 992 c 0
382 76 m 0
 417.333333333 76 448.666666667 94.3333333333 476 131 c 128
 503.333333333 167.666666667 518.666666667 222.666666667 522 296 c 1
 528.97553153 412.258858837 530 527.113469521 530 649 c 0
 530 745.175386135 518.298180344 818.024037166 479.5 862.5 c 128
 459.2268283 885.739977314 436.643221695 896 403 896 c 0
 277 896 214 768 214 512 c 0
 214 346.309407566 231.008900004 181.581847538 313.5 104.5 c 128
 333.833333333 85.5 356.666666667 76 382 76 c 0
EndSplineSet
EndChar

StartChar: e
Encoding: 101 101 41
Width: 701
Flags: HW
HStem: -29 105<298.158 481.456> 887 106<288.65 449.596>
VStem: 63 150<478 765.005> 510 137<123.068 310.085>
LayerCount: 2
Fore
SplineSet
510 220 m 0
 510 275.966646565 470.019564646 313.465942329 427 336 c 1
 428 341 l 1
 647 321 l 1
 647 159.791789412 578.653091556 39.9732275558 469 -8 c 128
 437 -22 405.666666667 -29 375 -29 c 0
 269.60323285 -29 199.132252174 32.6048478266 153 104 c 128
 93.8007378754 195.617905669 63 326.541822487 63 482 c 256
 63 698.165577757 119.790694577 880.138309046 252 959 c 128
 290 981.666666667 331 993 375 993 c 0
 463.960935874 993 520.055741518 938.836996078 558 876.5 c 128
 609.300850542 792.220031253 634.876684374 672.937606906 641 537 c 1
 218 389 l 1
 226.666666667 279.666666667 246 200.166666667 276 150.5 c 128
 306 100.833333333 344 76 390 76 c 0
 471.849374721 76 510 138.967396966 510 220 c 0
213 478 m 1
 286.696958735 505.954018831 386.129832012 542.378042378 457 587 c 128
 475 598.333333333 491 608 505 616 c 1
 498.333333333 708.666666667 484.166666667 777 462.5 821 c 128
 440.833333333 865 411.666666667 887 375 887 c 0
 323.666666667 887 283.833333333 853 255.5 785 c 128
 227.166666667 717 213 616 213 482 c 2
 213 478 l 1
EndSplineSet
EndChar

StartChar: quotedblbase
Encoding: 8222 8222 42
Width: 574
Flags: HW
HStem: -287 415<63.5 140.957 333.5 410.957>
VStem: 41 486
LayerCount: 2
Fore
SplineSet
257 128 m 1
 217.896854171 -10.0111029244 174.420295726 -150.66814972 125 -287 c 1
 41 -287 l 1
 61.3512477406 -153.020952374 70.960270678 -7.68216542393 54 128 c 1
 257 128 l 1
527 128 m 1
 487.896854171 -10.0111029244 444.420295726 -150.66814972 395 -287 c 1
 311 -287 l 1
 331.351247741 -153.020952374 340.960270678 -7.68216542393 324 128 c 1
 527 128 l 1
EndSplineSet
EndChar

StartChar: f
Encoding: 102 102 43
Width: 551
Flags: HW
HStem: 0 5<28 34.2637 382.729 389> 901 77<281 510.709> 918 60<44 139> 1279 109<317.952 419.329>
VStem: 140 138<51.8276 901 978 1263.09>
LayerCount: 2
Fore
SplineSet
280 901 m 1
 278.3082 747.046200015 278 600.635107312 278 427 c 0
 278 393 278 393 278 363.5 c 128
 278 288.890566774 281.31848988 223.904161912 286 149 c 0
 290.288574286 71.8056628491 325.280347077 26.2398843077 389 5 c 1
 389 0 l 1
 28 0 l 1
 28 5 l 1
 91.5824612812 26.1941537604 122.667748637 76.4635592592 127 153 c 0
 136.174565237 307.132695974 143 440.830210411 143 597 c 0
 143 704.214982206 139 800.795006666 139 907 c 1
 102.382564062 909.615531138 71.5575096797 910.126425806 44 918 c 1
 44 978 l 1
 139 978 l 1
 139 1120 157.166666667 1223.83333333 193.5 1289.5 c 128
 229.833333333 1355.16666667 280.666666667 1388 346 1388 c 0
 437.134731277 1388 503.663256717 1349.92543766 570 1304 c 1
 443 1089 l 1
 440 1091 l 1
 444 1101.66666667 446 1116 446 1134 c 0
 446 1193.87911953 423.736985349 1245.04760336 388 1268.5 c 128
 377.333333333 1275.5 366.666666667 1279 356 1279 c 0
 300.107676399 1279 293.251615703 1198.49518906 287 1136.5 c 128
 283 1096.83333333 281 1044 281 978 c 1
 352 978 l 2
 429.107687861 978 494.044537212 977.674089535 556 988 c 1
 516 858 l 1
 483.455584117 890.544415883 422.241050796 901 351 901 c 2
 280 901 l 1
EndSplineSet
EndChar

StartChar: g
Encoding: 103 103 44
Width: 791
Flags: HW
HStem: -480 113<280.452 445.725> -105 5<353.025 356> -17 96<287.227 483.761> 899 91<327.566 485.119> 970 5<762.996 770>
VStem: 62 150<186.631 745.49> 121 142<-352.985 -146.555> 496 155<-297.809 36 95.3304 896.58>
LayerCount: 2
Fore
SplineSet
661 802 m 0
 661 539.348175115 650 262.373930542 650 1 c 0
 650 -161.159773194 627.698303242 -288.820127049 565.5 -377 c 128
 520.607268089 -440.645392077 455.827701686 -480 358 -480 c 0
 250.852279379 -480 180.076957277 -412.723479931 144.5 -334 c 128
 128.833333333 -299.333333333 121 -257.333333333 121 -208 c 0
 121 -187.137441606 123.533449027 -169.732407781 126 -150 c 1
 355 -100 l 1
 356 -105 l 1
 305.340379571 -135.606854009 263 -180.856279035 263 -251 c 0
 263 -311.776288738 292.509435741 -367 354 -367 c 0
 437.610023395 -367 458.838473151 -314.861888926 474.5 -241.5 c 128
 491.364701806 -162.502186278 495 -71.680241518 495 36 c 1
 447 0.666666666667 400.333333333 -17 355 -17 c 0
 253.86597847 -17 187.279158602 41.1972350436 144 110 c 128
 89.6919168336 196.335927085 62 318.861545181 62 463 c 0
 62 688.885177456 126.997958124 868.941285552 270.5 950.5 c 128
 316.833333333 976.833333333 371 990 433 990 c 0
 479.470040127 990 543.0000717 977.222219036 593 975 c 1
 770 975 l 1
 770 970 l 1
 700.327014901 946.775671634 661 889.977959057 661 802 c 0
381 79 m 0
 426.467513839 79 462.88397289 97.9191326206 496 121 c 1
 496 135 l 1
 497 351 l 2
 498.340240926 525.231320439 492.78447226 719.633846417 485 887 c 1
 472.969785163 892.012589515 454.559081978 899 440 899 c 0
 357.90418831 899 307.574471163 846.719863799 275 787 c 128
 231.104888214 706.525628393 212 593.150271307 212 463 c 0
 212 207 268.333333333 79 381 79 c 0
EndSplineSet
EndChar

StartChar: h
Encoding: 104 104 45
Width: 849
Flags: HW
HStem: 0 5<28 34.2617 830.109 837> 885 107<353.037 542.399> 1262 5<-7 1.82812>
VStem: 133 140<40.5312 797.927 876 1242.07> 600 135<41.5167 825.094>
LayerCount: 2
Fore
SplineSet
274 876 m 1
 312.023063727 941.18239496 374.605714714 992 472 992 c 0
 618.39414483 992 686.137424762 886.770911094 716.5 764.5 c 128
 728.833333333 714.833333333 735 657.333333333 735 592 c 0
 735 527 735 527 735 472 c 128
 735 355.163292774 738.677679894 252.542828927 744 139 c 1
 749.561015319 69.4873085169 779.224478162 24.2585072793 837 5 c 1
 837 0 l 1
 515 0 l 1
 515 5 l 1
 567.591960146 25.5236917643 591.211613846 74.6845392388 594 143 c 0
 598 255.666666667 600 344.333333333 600 409 c 0
 600 533.621235165 601.33349535 657.048632637 580.5 753.5 c 128
 565.479291454 823.040317341 537.700070719 885 461 885 c 0
 364.864193573 885 311.169793015 806.396778368 286.5 730 c 128
 276.166666667 698 271 662.666666667 271 624 c 2
 271 534 l 2
 271 398.281524488 273.418477678 269.314141969 280 139 c 0
 284.086643653 70.8892724545 309.366985871 24.6218344373 363 5 c 1
 363 0 l 1
 28 0 l 1
 28 5 l 1
 90.9453738926 24.74756828 121.104702634 70.7826072624 127 143 c 1
 128.248029122 347.67677605 138 525.219097573 138 721 c 0
 138 861.053887591 140.642622773 973.360658406 133 1088 c 128
 127.509363258 1170.35955113 122.498901838 1245.17019767 54 1257.5 c 128
 37.3333333333 1260.5 17 1262 -7 1262 c 1
 -7 1267 l 1
 284 1347 l 1
 273.796926379 1244.96926379 274 1126.3714982 274 1011.5 c 128
 274 944 274 944 274 876 c 1
EndSplineSet
EndChar

StartChar: i
Encoding: 105 105 46
Width: 433
Flags: HW
HStem: 0 5<47 53.2617 401.73 408> 908 5<17 25.8281> 973 20G<235.25 302.5> 1145 181<149.815 276.669>
VStem: 123 181<1171.82 1298.67> 146 150.5<47.5698 515.815> 161.5 134.5<56.2378 889.599>
LayerCount: 2
Fore
SplineSet
308 993 m 1
 292.429580125 838.711293969 296 655.286619722 296 480 c 0
 296 424 296 424 296 386 c 128
 296 297.794832479 298.835799332 235.298809354 305 149 c 0
 310.686087927 72.2378129906 343.733411008 26.4221963308 408 5 c 1
 408 0 l 1
 47 0 l 1
 47 5 l 1
 111.120273362 26.3734244541 140.258174822 76.9208163908 146 153 c 1
 151.481348311 279.071011163 162 384.705648201 162 517 c 0
 162 619.055828013 164.557835991 701.308533597 157 783.5 c 128
 150.816868205 850.741558274 139.963157466 897.564421104 78 905 c 128
 61.3333333333 907 41 908 17 908 c 1
 17 913 l 1
 308 993 l 1
213 1145 m 256
 162.698065989 1145 123 1184.69934964 123 1235 c 256
 123 1285.27588168 162.699349637 1326 213 1326 c 256
 263.275881678 1326 304 1285.27450634 304 1235 c 256
 304 1184.69806599 263.274506341 1145 213 1145 c 256
EndSplineSet
EndChar

StartChar: j
Encoding: 106 106 47
Width: 397
Flags: HW
HStem: 908 5<7 15.8281> 973 20G<225.25 292.5> 1145 181<139.815 266.669>
VStem: 113 181<1171.82 1298.67> 154 132<-102.073 885.369>
LayerCount: 2
Fore
SplineSet
298 993 m 1
 282.2952114 810.253369014 286 605.328778393 286 400 c 0
 286 336 286 336 286 268 c 128
 286 -9.18662876499 235.506825712 -219.057258828 78 -340 c 1
 17 -260 l 1
 139.731040311 -134.41474945 162.789966693 83.485949236 154 334 c 128
 152.666666667 372 152 406.333333333 152 437 c 0
 152 560.19354894 154.686510316 660.075365897 147 760 c 128
 141.221697996 835.117926054 133.997291821 895.260379145 68 904.5 c 128
 51.3333333333 906.833333333 31 908 7 908 c 1
 7 913 l 1
 298 993 l 1
203 1145 m 256
 152.698065989 1145 113 1184.69934964 113 1235 c 256
 113 1285.27588168 152.699349637 1326 203 1326 c 256
 253.275881678 1326 294 1285.27450634 294 1235 c 256
 294 1184.69806599 253.274506341 1145 203 1145 c 256
EndSplineSet
EndChar

StartChar: u
Encoding: 117 117 48
Width: 846
Flags: HW
HStem: -29 107<313.86 479.239> 51 5<839.565 848> 966 20G<252.5 302 688.5 738>
VStem: 124.5 146.5<119.3 831.509> 562 143<179.016 829.711>
LayerCount: 2
Fore
SplineSet
587 107 m 1
 536.885517538 29.044138392 460.593814022 -29 339 -29 c 0
 272.333333333 -29 220.166666667 8 182.5 82 c 128
 144.833333333 156 126 265.666666667 126 411 c 0
 126 501.666666667 125.5 576.166666667 124.5 634.5 c 128
 122.203979232 768.434544812 114.657519155 861 -15 861 c 1
 -15 866 l 1
 306 986 l 1
 265.173183185 919.656422675 272.418527052 800.3861921 271.5 692 c 128
 271.166666667 652.666666667 271 606.666666667 271 554 c 0
 271 429.682084101 269.846731982 308.626595343 286.5 209.5 c 128
 297.169579917 145.990595734 316.51249007 78 380 78 c 0
 481.870780197 78 525.744453872 174.935224467 547 263.5 c 128
 557 305.166666667 562 354.333333333 562 411 c 0
 562 501.666666667 561.5 576.166666667 560.5 634.5 c 128
 558.203979232 768.434544812 550.657519155 861 421 861 c 1
 421 866 l 1
 742 986 l 1
 711.918980334 929.598088127 710.040598312 850.420940928 707.5 761.5 c 128
 704.875967042 669.658846469 705 578.462786064 705 472 c 0
 705 387.333333333 705.666666667 318.166666667 707 264.5 c 128
 709.126583625 178.905009093 715.882714449 102.536293005 764 73.5 c 128
 783.333333333 61.8333333333 811.333333333 56 848 56 c 1
 848 51 l 1
 577 -29 l 1
 587.895422842 7.77205209087 587 58.557935785 587 107 c 1
EndSplineSet
EndChar

StartChar: v
Encoding: 118 118 49
Width: 668
Flags: HW
HStem: 0 21G<159 510> 959 4<283.975 288 375 379.025 689.215 695>
VStem: 227 214<14.2113 229.329>
LayerCount: 2
Fore
SplineSet
160 4 m 1
 203.966396688 22.3193319535 230.387797505 53.0196449095 227 114 c 1
 214.738106376 229.806773117 191.629655361 325.507504185 169 432 c 1
 142.326254935 569.814349501 114.657787195 693.368851219 80 832 c 0
 64.9221594425 893.682075008 33.9609697443 940.751009208 -26 959 c 1
 -27 963 l 1
 288 963 l 1
 289 959 l 1
 238.946806453 941.908665618 214.655208908 902.103119826 222 836 c 1
 250.659134328 629.244816635 300.214310643 436.999860397 337 231 c 1
 349.359856038 298.979208206 362.389202874 367.689266166 374 433 c 1
 400.096436296 567.396646923 421.751115428 697.133047017 441 836 c 1
 448.341680932 902.075128387 424.035088412 941.914847859 374 959 c 1
 375 963 l 1
 695 963 l 1
 695 959 l 1
 634.306131737 939.629616512 604.319809006 894.671945934 589 832 c 0
 554.4134084 693.6536336 525.307945811 570.449350611 500 432 c 1
 476.127682593 325.900811525 453.313203667 230.291367964 441 114 c 1
 435.910641451 52.9276974093 463.018713434 20.4218880593 509 4 c 1
 510 0 l 1
 159 0 l 1
 160 4 l 1
EndSplineSet
EndChar

StartChar: x
Encoding: 120 120 50
Width: 761
Flags: HW
HStem: 0 5<-4 2.31836> 943 20G<12 346 416 740>
LayerCount: 2
Fore
SplineSet
434 5 m 1
 493.885870841 28.6758094024 495.599676708 80.6008313233 469 149 c 0
 440.734768479 220.336060505 412.963672608 281.341421608 382 350 c 1
 353.54499122 280.894978678 329.809696669 220.045696173 303 149 c 0
 277.615517732 80.4618978773 278.238171772 28.6267692993 338 5 c 1
 336 0 l 1
 -4 0 l 1
 -4 5 l 1
 67.636121809 28.8787072697 113.339252524 88.1718937498 147 153 c 1
 204.519202251 273.151222481 258.362286395 377.498163708 311 497 c 1
 263.699504477 601.883707465 212.464226684 710.391499407 166 813 c 1
 137.05429984 883.476487345 87.1281466054 933.957284465 15 958 c 1
 12 963 l 1
 343 963 l 1
 346 958 l 1
 294.75577312 938.290681969 282.987181382 893.623675004 306 830 c 1
 328.651276305 763.378599104 354.034227286 704.021277242 381 642 c 1
 407.962926814 704.014731672 433.349865339 763.381956879 456 830 c 1
 479.011540357 893.620140987 467.241690822 938.291657376 416 958 c 1
 419 963 l 1
 740 963 l 1
 737 958 l 1
 668.254892743 933.652774513 623.338603983 882.589173775 596 813 c 1
 549.524949337 710.367596453 497.166184904 601.585888266 450 497 c 1
 505.361904747 377.75897439 566.208230696 274.417784433 625 153 c 1
 656.880841011 90.4645041709 697.248690919 29.1440905185 764 5 c 1
 766 0 l 1
 436 0 l 1
 434 5 l 1
EndSplineSet
EndChar

StartChar: w
Encoding: 119 119 51
Width: 1072
Flags: HW
HStem: 0 21G<160 511 562 913> 959 4<284.975 289 376 380.025 691.047 696 778 782.025 1092.21 1098>
LayerCount: 2
Fore
SplineSet
161 4 m 1
 204.966396688 22.3193319535 231.387797505 53.0196449095 228 114 c 1
 215.738106376 229.806773117 192.629655361 325.507504185 170 432 c 1
 143.326254935 569.814349501 115.657787195 693.368851219 81 832 c 0
 65.9221594425 893.682075008 34.9609697443 940.751009208 -25 959 c 1
 -26 963 l 1
 289 963 l 1
 290 959 l 1
 239.946806453 941.908665618 215.655208908 902.103119826 223 836 c 0
 251.395851917 602.748359257 300.834402312 381.426705663 338 151 c 1
 375.300219072 378.531336342 413.346728451 600.633840848 442 836 c 0
 449.341680932 902.075128387 425.035088412 941.914847859 375 959 c 1
 376 963 l 1
 696 963 l 1
 696 959 l 1
 682.666666667 954.333333333 670.333333333 948.333333333 659 941 c 1
 631.64759344 919.864049476 619.276682251 884.648200865 625 836 c 0
 653.395851917 602.748359257 702.834402312 381.426705663 740 151 c 1
 777.300219072 378.531336342 815.346728451 600.633840848 844 836 c 0
 851.341680932 902.075128387 827.035088412 941.914847859 777 959 c 1
 778 963 l 1
 1098 963 l 1
 1098 959 l 1
 1037.30613174 939.629616512 1007.31980901 894.671945934 992 832 c 0
 957.4134084 693.6536336 928.307945811 570.449350611 903 432 c 1
 879.127682593 325.900811525 856.313203667 230.291367964 844 114 c 1
 838.910641451 52.9276974093 866.018713434 20.4218880593 912 4 c 1
 913 0 l 1
 562 0 l 1
 563 4 l 1
 606.966396688 22.3193319535 633.387797505 53.0196449095 630 114 c 1
 617.902816054 252.445549599 595.025320347 364.683522787 572 492 c 1
 561.051365494 568.640441542 548.896904133 648.908265614 536 725 c 1
 523.095156738 648.861424756 511.956629384 568.696405689 501 492 c 1
 476.705032965 365.126283261 454.13816945 252.914605932 442 114 c 0
 436.910641451 52.9276974093 464.018713434 20.4218880593 510 4 c 1
 511 0 l 1
 160 0 l 1
 161 4 l 1
EndSplineSet
EndChar

StartChar: y
Encoding: 121 121 52
Width: 835
Flags: HW
HStem: -480 113<309.184 498.875> -105 5<395.405 399> -17 96<328.678 536.761> 958 5<16 23.041 349.599 358 459 465.275 804.688 814>
VStem: 115 150<149.059 931.626> 144 142<-343.757 -152.22> 549 154<-302.609 36 95.3304 925.431>
LayerCount: 2
Fore
SplineSet
434 79 m 0
 479.467513839 79 515.88397289 97.9191326206 549 121 c 1
 549 135 l 1
 551 429 l 2
 551 572.825265881 548.542671566 715.295362801 542 854 c 1
 537.533578272 910.574675218 508.48313387 942.310225846 459 958 c 1
 459 963 l 1
 814 963 l 1
 814 958 l 1
 754.991170165 945.27260533 719.760855038 910.304163817 715 850 c 1
 708.781031429 711.938897717 704 589.207635155 704 452 c 0
 704 372 704 372 704 316 c 128
 704 244.040116415 703 183.78454521 703 114 c 128
 703 65 703 65 703 1 c 0
 703 -160.425009647 681.338645968 -288.079890153 621 -377 c 128
 578.079197748 -440.251708581 516.249346983 -480 421 -480 c 0
 301.294946964 -480 215.192720976 -416.6189633 171.5 -334 c 128
 153.166666667 -299.333333333 144 -257.333333333 144 -208 c 0
 144 -187.137441606 146.533449027 -169.732407781 149 -150 c 1
 398 -100 l 1
 399 -105 l 1
 340.713873419 -134.14306329 286 -177.987099644 286 -251 c 0
 286 -321.396976015 334.388552834 -367 407 -367 c 0
 490.610023395 -367 511.838473151 -314.861888926 527.5 -241.5 c 128
 544.364701806 -162.502186278 548 -71.680241518 548 36 c 1
 500 0.666666666667 453.333333333 -17 408 -17 c 0
 260.677917896 -17 174.120561799 70.2634178172 136.5 184 c 128
 122.166666667 227.333333333 115 277 115 333 c 0
 115 396 115 396 115 441.5 c 128
 115 586.332960923 113.563691043 712.525577656 109 854 c 1
 104.384096637 912.46810927 69.6204436516 942.846396359 16 958 c 1
 16 963 l 1
 358 963 l 1
 358 958 l 1
 303.773207269 945.032723477 272.092508993 908.757670874 269 850 c 1
 266.505406792 761.441941132 265 666.967515261 265 579 c 130
 265 373 l 2
 265 217.916398297 297.787992764 79 434 79 c 0
EndSplineSet
EndChar

StartChar: z
Encoding: 122 122 53
Width: 641
Flags: HW
HStem: 0 100<305 543.758> 0 4<26 30.7406> 864 99<103.804 345> 957 6<617.354 625>
VStem: 54 8<743 773.813> 592 8<199.86 221>
LayerCount: 2
Fore
SplineSet
600 222 m 1
 592.87861021 148.412305501 585.454607486 71.4398178204 575 0 c 1
 26 0 l 1
 26 4 l 1
 94.6549963491 25.538822384 136.677269666 79.718707213 159 148 c 1
 221.197161364 376.056258334 282.47164277 653.677343863 345 864 c 1
 246.651888206 859.902162009 140.557210917 854.907479098 87 806.5 c 128
 69.6666666667 790.833333333 61.3333333333 769.666666667 62 743 c 1
 54 742 l 1
 54 815.875677174 56.4562966222 892.125932443 60 963 c 1
 625 963 l 1
 625 957 l 1
 462.461351232 904.568177817 446.40209435 722.234031884 406 548 c 1
 372.854578619 412.536103923 341.986179036 293.094309695 309 151 c 1
 306.585450624 135.305429057 303.534067343 117.591191886 305 100 c 1
 405.582973798 102.052713751 507.222499944 110.823286988 562 158.5 c 128
 580 174.166666667 590 195 592 221 c 1
 600 222 l 1
EndSplineSet
EndChar

StartChar: exclam
Encoding: 33 33 54
Width: 383
Flags: HW
HStem: 0 181<129.815 256.669> 1306 20G<71 312>
VStem: 71 241<1078.65 1326> 103 181<27.3309 154.185> 135.5 108<560.189 1154.01> 148.5 88.5<333 980.128>
LayerCount: 2
Fore
SplineSet
71 1321 m 1
 71 1326 l 1
 312 1326 l 1
 312 1321 l 1
 290.24669979 1275.68062456 281.486424703 1205.0859675 273.5 1138 c 128
 247.00050677 915.404256867 243.433936576 659.672472176 231 425.5 c 128
 229 387.833333333 226.666666667 357 224 333 c 1
 153 333 l 1
 139.315002081 599.857459428 131.413060512 889.86104285 104.5 1144.5 c 128
 97.6841771341 1208.98817019 90.1316083586 1276.99730078 71 1321 c 1
193 0 m 256
 142.698065989 0 103 40.7254936592 103 91 c 256
 103 141.301934011 142.699349637 181 193 181 c 256
 243.275881678 181 284 141.300650363 284 91 c 256
 284 40.7241183217 243.274506341 0 193 0 c 256
EndSplineSet
EndChar

StartChar: hyphen
Encoding: 45 45 55
Width: 574
Flags: HW
HStem: 477 125<79.8806 493.027>
VStem: 79 415
LayerCount: 2
Fore
SplineSet
292 602 m 0
 378.456081989 602 446.651708463 597.397986651 494 631 c 1
 494 448 l 1
 441.381739404 472.429906705 378.228911789 477 290 477 c 0
 232.666666667 477 187.5 476.166666667 154.5 474.5 c 128
 121.5 472.833333333 96.3333333333 467 79 457 c 1
 79 630 l 1
 134.21580314 608.308077338 203.04224654 602 292 602 c 0
EndSplineSet
EndChar

StartChar: B
Encoding: 66 66 56
Width: 757
Flags: HW
HStem: 0 110<313 453.289> 736 112<304 409.821> 1216 110<303.625 413.479>
VStem: 160 144<112.623 736 848 1214.66> 463 149<901.427 1166.33> 563 149<226.999 596.409>
LayerCount: 2
Fore
SplineSet
481 809 m 1
 616.957940875 741.021029563 712 611.859073315 712 409 c 0
 712 215.796778284 616.264848347 83.0115195521 479 27.5 c 128
 433.666666667 9.16666666667 386.333333333 0 337 0 c 2
 55 0 l 1
 55 5 l 1
 113.949724983 26.7857679284 139.802567031 78.8453508837 144 153 c 1
 153.831161432 256.227195036 160 354.002446295 160 461 c 0
 160 551.730266434 163 652.188035649 163 743 c 0
 163 810.860538141 160 885.052613838 160 953 c 0
 160 1105.44296465 160.507069319 1271.9269445 55 1321 c 1
 55 1326 l 1
 337 1326 l 2
 467.358119341 1326 550.287113083 1254.48232609 589.5 1159.5 c 128
 604.5 1123.16666667 612 1081.66666667 612 1035 c 0
 612 925.333376722 553.522577918 851.304837119 481 809 c 1
304 424 m 2
 304 316.995115722 313 219.309385329 313 110 c 1
 479.309354006 110 563 242.011286865 563 406 c 0
 563 544.376338207 505.030659825 651.85732382 417.5 706 c 128
 385.166666667 726 347.333333333 736 304 736 c 1
 304 424 l 2
300 848 m 1
 407.20682823 848 463 932.489344199 463 1038 c 0
 463 1135.80036832 406.49108814 1216 308 1216 c 1
 301.392872732 1159.17870549 298 1092.481378 298 1029 c 128
 298 969.183193215 298.588366007 904.465359702 300 848 c 1
EndSplineSet
EndChar

StartChar: E.alt
Encoding: 65539 -1 57
Width: 656
Flags: HW
HStem: 0 5<42 48.9941> 688 77<301 419.187> 1225.5 6.5<468.343 474> 1231 1<468 470.727> 1253 74<314 466.719> 1322 5<42 48.2754>
VStem: 151 0<173 177> 167 134<177.839 688 765 1252.81> 541 0<570 616> 541 0<837 882> 552.5 7.5<1139.22 1156.92> 566 17<186 216.956 1123.76 1136>
LayerCount: 2
Fore
SplineSet
464 118 m 1
 528.93738708 128.253271644 573.750936176 160.691387182 566 232 c 1
 583 136 l 2
 590.790976288 91.8511343704 598.504314752 44.177563289 607 0 c 1
 42 0 l 1
 42 5 l 1
 114.274565437 29.0915218122 143.321113417 87.2463800532 151 173 c 1
 159.623984235 363.959650922 167 532.540511937 167 721 c 0
 167 879.681021386 162.222642536 1020.66036196 152 1174 c 1
 140.925084737 1248.75567803 107.902395507 1300.03253483 42 1322 c 1
 42 1327 l 1
 613 1327 l 1
 609 1313 605.666666667 1299.33333333 603 1286 c 0
 596.310461253 1261.91766051 591.46224292 1232.5565231 585 1208 c 1
 586 1208 l 1
 577.308183424 1170.02514991 568.662891575 1132.00377509 560 1094 c 1
 576.514396758 1232.72093277 444.77578599 1248.91325669 314 1253 c 1
 306.181395104 1091.41549881 302.369524035 930.712408186 301 765 c 1
 342.324244705 765 383.5611457 766.57633873 422 768 c 1
 489.532519905 779.84781051 534.975238578 814.221434001 541 882 c 1
 541 570 l 1
 535.024461294 638.71869512 489.426690092 673.158586268 420 684 c 1
 381.029764684 686.997710409 343.986454954 686.771815573 301 688 c 1
 301 684 l 2
 301 486 305 290 313 96 c 1
 365.201827987 102.73571974 420.689567602 108.990330816 477 118 c 1
 464 118 l 1
EndSplineSet
EndChar

StartChar: N.alt
Encoding: 65540 -1 58
Width: 933
Flags: HW
HStem: 0 5<52 58.2617 396.852 403> 1322 5<541 548.056 885.663 892>
VStem: 167 124<56.2378 907> 654.5 115<383 1171.51>
LayerCount: 2
Fore
SplineSet
650 383 m 1
 653.768679102 491.035467587 656 612.203624926 656 721 c 0
 656 888.75736561 654.948225674 1034.229415 641 1194 c 1
 633.953906193 1260.23328179 599.068552021 1304.32696243 541 1322 c 1
 541 1327 l 1
 892 1327 l 1
 892 1322 l 1
 823.333333333 1300 789 1251.66666667 789 1177 c 0
 789 910.399231342 768.20169306 626.069196511 766.5 355.5 c 128
 766.166666667 302.5 767 258.333333333 769 223 c 1
 771.432535885 124.482296676 802.651652693 35.2894629009 869 5 c 1
 869 0 l 1
 691 0 l 1
 706.187222148 7.59361107378 661.600385272 89.7992294558 653 107 c 1
 548.633885691 353.304029769 419.768653809 617.957909353 312.5 860 c 128
 299.5 889.333333333 293 905 293 907 c 1
 291.666666667 864.333333333 291 823.5 291 784.5 c 128
 291 726 291 726 291 684 c 0
 291 500.253594692 290.755142364 324.652295089 300 149 c 1
 307.019387692 73.1906129226 339.231215499 26.6813867304 403 5 c 1
 403 0 l 1
 52 0 l 1
 52 5 l 1
 116.120273362 26.3734244541 145.258174822 76.9208163908 151 153 c 1
 159.638326955 351.681519965 167 525.154402689 167 721 c 0
 167 862.683900294 166.01500928 981.494457718 152 1114 c 1
 145.945439176 1207.24023669 118.229839571 1293.20441758 52 1322 c 1
 52 1327 l 1
 218 1327 l 1
 217.333333333 1324.33333333 219 1318 223 1308 c 0
 237.226263243 1271.01171557 253.191116121 1243.64165727 277 1199 c 1
 391.16159386 948.581019919 519.594100718 676.69740629 631 427.5 c 128
 643.666666667 399.166666667 650 384.333333333 650 383 c 1
691 0 m 1
 687 0 l 1
 691 0 l 1
EndSplineSet
EndChar

StartChar: L.alt
Encoding: 65541 -1 59
Width: 597
Flags: HW
HStem: 0 5<42 48.9941> 1322 5<42 48.2754 415.998 423>
VStem: 151 0<173 177> 167 134<177.839 1221.72 1226 1247.84> 310 30.5<1233.46 1248> 310 3<1157 1190.74> 560 17<186 216.956>
LayerCount: 2
Fore
SplineSet
458 118 m 1
 522.93738708 128.253271644 567.750936176 160.691387182 560 232 c 1
 577 136 l 2
 584.790976288 91.8511343704 592.504314752 44.177563289 601 0 c 1
 42 0 l 1
 42 5 l 1
 114.274565437 29.0915218122 143.321113417 87.2463800532 151 173 c 1
 159.623984235 363.959650922 167 532.540511937 167 721 c 0
 167 879.681021386 162.222642536 1020.66036196 152 1174 c 1
 140.925084737 1248.75567803 107.902395507 1300.03253483 42 1322 c 1
 42 1327 l 1
 423 1327 l 1
 423 1322 l 1
 349.701470886 1297.56715696 316.983927863 1244.99749107 310 1157 c 1
 303.343226241 1002.0697384 301 844.053449489 301 684 c 0
 301 485.333333333 305 289.666666667 313 97 c 1
 364.00361329 102.100361329 417.282527912 109.047087985 471 118 c 1
 458 118 l 1
314 1248 m 2
 313.333333333 1244.66666667 313 1241.16666667 313 1237.5 c 128
 313 1232 313 1232 313 1226 c 2
 314 1248 l 2
EndSplineSet
EndChar

StartChar: H.alt
Encoding: 65542 -1 60
Width: 930
Flags: HW
HStem: 0 5<37 44.8009 410.184 418 509 516.801 882.184 890> 706 77<296.723 633.215> 1322 5<37 44.2095 410.184 418 509 516.209 882.184 890>
VStem: 143 164<37.3223 432.4> 162 134<54.8203 702.301 786.062 1273.86> 628 151<47.5057 703.351 785.08 1280.83>
LayerCount: 2
Fore
SplineSet
471 783 m 0
 534.608389379 783 583.731609261 783.978528741 634 788 c 1
 631.174124198 937.771417498 626.215576551 1075.15108708 616 1222 c 1
 601.105910502 1275.61872219 566.140991398 1306.19504493 509 1322 c 1
 509 1327 l 1
 890 1327 l 1
 890 1322 l 1
 828.172925646 1306.24015752 790.879497544 1275.88242491 779 1215 c 1
 771.184623421 1039.15402698 768 865.03738674 768 684 c 0
 768 490.654848473 772.358139553 304.300464608 779 117 c 1
 790.969709241 55.6552401424 828.487909899 21.8856717923 890 5 c 1
 890 0 l 1
 509 0 l 1
 509 5 l 1
 571.000864043 22.0198450313 602.965435949 55.3228592404 615 117 c 1
 624.76230798 319.567890579 632.48822127 500.956986403 634 699 c 1
 584.735557024 705.42579691 536.436422411 706 470 706 c 0
 397.674968887 706 347.988923194 705.089398617 296 698 c 1
 296 684 l 2
 296 490.654848473 300.358139553 304.300464608 307 117 c 1
 318.969709241 55.6552401424 356.487909899 21.8856717923 418 5 c 1
 418 0 l 1
 37 0 l 1
 37 5 l 1
 99.0008640425 22.0198450313 130.965435949 55.3228592404 143 117 c 1
 152.775868868 328.403164267 162 513.510145588 162 721 c 0
 162 897.579538168 155.48497667 1051.00145847 144 1222 c 1
 129.105910502 1275.61872219 94.1409913983 1306.19504493 37 1322 c 1
 37 1327 l 1
 418 1327 l 1
 418 1322 l 1
 356.172925646 1306.24015752 318.879497544 1275.88242491 307 1215 c 1
 300.461304512 1073.76417745 297.364798431 933.668633705 296 789 c 1
 348.802513854 784.408477056 400.728945157 783 471 783 c 0
EndSplineSet
EndChar

StartChar: A.alt
Encoding: 65543 -1 61
Width: 772
Flags: HW
HStem: 0 5<331.119 336 438 442.881> 360 89<287.052 487> 381 66<287 486.856> 1229 98<362.562 417.722>
LayerCount: 2
Fore
SplineSet
155 1327 m 1
 619 1327 l 1
 618 1322 l 1
 565.761434165 1302.41053781 532.167813137 1265.73796207 539 1194 c 1
 562.634322176 821.759425721 614.935800755 499.234669573 673 153 c 1
 690.866446026 80.1598738921 726.657018281 27.1450127635 797 5 c 1
 798 0 l 1
 438 0 l 1
 437 5 l 1
 496.259844947 25.9878617519 522.284976378 70.322255122 515 149 c 0
 508.258184366 220.463245723 502.652398599 288.154095126 496 360 c 1
 428.1002271 366.172706627 346.190820882 371.071376868 280 381 c 1
 272.143060654 303.740096433 265.795260532 226.465970066 259 149 c 0
 251.717759083 70.3517981016 277.757838844 25.9815987426 337 5 c 1
 336 0 l 1
 -24 0 l 1
 -23 5 l 1
 47.3525631326 27.1480291343 83.1304382454 80.1471713081 101 153 c 1
 159.158148911 499.794887954 211.293848021 820.628106334 235 1194 c 0
 240.096973435 1265.35762808 208.054465351 1301.17821386 156 1322 c 1
 155 1327 l 1
385 447 m 2
 420.968681849 447 454.828491869 447.468023422 487 449 c 1
 460 684 l 1
 440.824696015 866.165387859 430.311830468 1039.67250278 414 1228 c 1
 366 1229 l 1
 352.005415515 1055.46715239 337.300475051 905.104682644 320.5 739.5 c 128
 318.166666667 716.5 316 698 314 684 c 2
 287 447 l 1
 385 447 l 2
EndSplineSet
EndChar

StartChar: A
Encoding: 65 65 62
Width: 772
Flags: W
HStem: -169 115<0 59.1279> 0 5<435 439.458 787.506 794> 360 87<287.355 484> 381 66<286 483.401> 1229 98<358.727 414.781>
LayerCount: 2
Fore
SplineSet
434 5 m 1xd8
 493.259844947 25.9878617519 519.284976378 70.322255122 512 149 c 0
 505.258184366 220.463245723 499.652398599 288.154095126 493 360 c 1xe8
 425.368572482 366.148311593 343.806002733 371.12909959 278 381 c 1
 265.33354102 262.779716188 251.483063645 141.446915751 232.5 31 c 0
 210.587679617 -96.4898640482 153.241980347 -171.837814451 0 -169 c 1
 -80 -40 l 1
 -77 -37 l 1
 -52.3333333333 -48.3333333333 -29.6666666667 -54 -9 -54 c 0
 60.3027976644 -54 81.4660756183 28.6530458272 94 100 c 1
 136.271820211 284.18435949 152.217680537 519.213741902 175 721 c 1
 191.306398016 878.628514154 208.039814983 1026.83611463 216 1194 c 1
 221.096973435 1265.35762808 189.054465351 1301.17821386 137 1322 c 1
 136 1327 l 1
 631 1327 l 1
 630 1322 l 1
 577.761434165 1302.41053781 544.167813137 1265.73796207 551 1194 c 1
 563.51168939 931.254522818 598.072414913 701.500421373 627 452 c 0
 637.666666667 360 652 260.333333333 670 153 c 1
 687.866446026 80.1598738921 723.657018281 27.1450127635 794 5 c 1
 795 0 l 1
 435 0 l 1
 434 5 l 1xd8
382 447 m 2
 417.968681849 447 451.828491869 447.468023422 484 449 c 1
 463 684 l 1
 452.763403193 781.247669662 441.648680439 891.378004844 433 993 c 1
 425.666666667 1065 418.333333333 1143.33333333 411 1228 c 1
 363 1229 l 1
 340.39495637 999.182056429 314.619416136 785.512604394 296.5 556 c 0
 293.5 518 290 481.666666667 286 447 c 1xd8
 382 447 l 2
EndSplineSet
EndChar

StartChar: R
Encoding: 82 82 63
Width: 769
Flags: HW
HStem: -220 144<722.438 807> 0 5<48 54.2617 402.73 409> 577 115<299 375.904> 1220 107<306.533 491.5> 1322 5<48 55.0563>
VStem: 163 134<56.2378 153> 533 165<798.234 1174.29>
LayerCount: 2
Fore
SplineSet
698 1027 m 0
 698 836.089027028 623.391175013 696.633541861 501 632 c 1
 555.183461857 435.228480623 602.124350272 256.299487446 672 67 c 1
 691.869270635 16.423674747 713.588395912 -37.2137237341 756 -64 c 128
 768.666666667 -72 783 -76 799 -76 c 0
 829.983810122 -76 851.671426203 -63.2389627616 874 -47 c 1
 879 -50 l 1
 807 -220 l 1
 632.851682847 -220 563.431416904 -104.918935421 527 33 c 1
 376 588 l 1
 362.353650069 578.902433379 317.428761477 577 299 577 c 1
 301.818588617 436.070569142 303.204917019 288.754149041 306 149 c 1
 311.686087927 72.2378129906 344.733411008 26.4221963308 409 5 c 1
 409 0 l 1
 48 0 l 1
 48 5 l 1
 112.120273362 26.3734244541 141.258174822 76.9208163908 147 153 c 1
 155.638326955 351.681519965 163 525.154402689 163 721 c 0
 163 889.339998488 163.177530261 1034.63593226 148 1194 c 0
 140.953906193 1260.23328179 106.068552021 1304.32696243 48 1322 c 1
 48 1327 l 1
 403 1327 l 2
 543.310333585 1327 633.27945787 1257.5804504 675 1156 c 128
 690.333333333 1118.66666667 698 1075.66666667 698 1027 c 0
306 1177 m 1
 300.679139845 1047.52573623 297 908.501829619 297 774 c 0
 297 745.222225045 295.720523282 721.427964521 297 692 c 1
 481.650748163 692 533 829.263459391 533 1027 c 0
 533 1140.05907768 493.717150799 1220 387 1220 c 0
 363.575139311 1220 327.032335517 1219.47439241 306 1217 c 1
 306 1177 l 1
EndSplineSet
EndChar

StartChar: M
Encoding: 77 77 64
Width: 1135
Flags: HW
HStem: -170 118<28 84.9604> 0 5<786 791.246> 1322 5<75 77.4727 1029.34 1034>
LayerCount: 2
Fore
SplineSet
-49 -40 m 1
 -25.0677817734 -45.4391405061 -1.99586214157 -52 23 -52 c 0
 99.6709798453 -52 99.2221969682 37.8886515012 107 111 c 0
 129.876505081 336.496978656 146.232296353 560.868297112 162 789.5 c 128
 165 833 165 833 168 876.5 c 128
 174.231144113 966.851589645 180.118037495 1055.21910491 185 1147 c 0
 185.666666667 1151 186 1154.83333333 186 1158.5 c 128
 186 1164 186 1164 186 1169 c 0
 186 1245 148.666666667 1296 74 1322 c 1
 75 1327 l 1
 276 1327 l 2
 334.385369735 1327 358.163440497 1100.95842451 369 1054 c 1
 427.901789825 838.026770642 497.436827545 628.483545331 564 418 c 1
 638.955875818 672.314578667 702.374622347 882.983685769 773.5 1130.5 c 128
 787.956340093 1180.80806352 793.769765006 1196.31127933 800.5 1241.5 c 128
 808.259146221 1293.59712463 829.116541662 1327 891 1327 c 2
 1034 1327 l 1
 1035 1322 l 1
 973.666666667 1302 943 1259.66666667 943 1195 c 0
 943 1190 943 1190 943 1186 c 128
 943 1161.28051562 946.796591075 1137.11655555 949.5 1090 c 128
 967.354834503 778.815741513 988.474207616 440.138117093 1031 149 c 0
 1042.06093338 74.3386996608 1080.30024264 26.8999191211 1146 5 c 1
 1147 0 l 1
 786 0 l 1
 785 5 l 1
 847.873483057 25.9578276857 872 74.2790858721 872 153 c 1
 864.741551649 348.978105481 859.568418063 539.293260842 840 721 c 1
 827 905 l 1
 769.322801265 674.29120506 669.845377601 452.167878316 612 224 c 1
 599.849106245 182.339792839 590.923356389 127.667151075 571.5 94 c 128
 566.5 85.3333333333 561 81 555 81 c 256
 528.831236137 81 515.922587014 148.303697098 509.5 173.5 c 128
 448.953993466 411.02664102 365.438479407 650.645132001 296 885 c 1
 283.181430374 607.264324777 265.79275629 329.63580924 253.5 51 c 128
 247.035200001 -95.5354666373 183.724330372 -170 28 -170 c 1
 -52 -44 l 1
 -49 -40 l 1
EndSplineSet
EndChar

StartChar: period
Encoding: 46 46 65
Width: 294
Flags: HW
HStem: -29 202<76.9094 231.155>
VStem: 47 202<0.909424 155.155>
LayerCount: 2
Fore
SplineSet
147 -29 m 0
 91.416837321 -29 47 15.4183043476 47 71 c 0
 47 128.420250462 89.4916563826 173 147 173 c 256
 205.094265188 173 249 129.090957296 249 71 c 256
 249 13.4874427197 204.416780338 -29 147 -29 c 0
EndSplineSet
EndChar

StartChar: seven
Encoding: 55 55 66
Width: 756
Flags: HW
HStem: 0 21G<44 427> 1213 114<116.77 491>
VStem: 21 9<1074 1096.85>
LayerCount: 2
Fore
SplineSet
21 1073 m 1
 28.2491936456 1157.57392587 37.734640929 1246.39906896 50 1327 c 1
 800 1327 l 1
 799 1322 l 1
 721.969185708 1299.02589749 670.096873138 1244.66222389 640 1174 c 1
 586.341765535 1020.69075867 548.270843199 880.390842698 507 721 c 1
 456.783226079 540.219613883 416.047119074 369.244219308 373 173 c 1
 350.763904674 89.6146425293 362.491855831 29.5130947843 427 5 c 1
 425 0 l 1
 44 0 l 1
 46 5 l 1
 128.129693727 29.638908118 182.320176057 90.2839451942 212 169 c 1
 264.51112938 334.824619095 312.409138578 513.23279137 360 684 c 1
 405.555609161 862.202824072 449.465928586 1030.78600928 491 1213 c 1
 354.132919519 1210.36794076 204.883821174 1207.18403875 107 1164 c 128
 68.7175356169 1147.11067748 33.059085417 1121.41582396 30 1074 c 1
 21 1073 l 1
EndSplineSet
EndChar

StartChar: one
Encoding: 49 49 67
Width: 458
Flags: HW
HStem: 0 5<63 69.2617 417.729 424>
VStem: 173.5 137.5<50.4663 153 974 1192.82>
LayerCount: 2
Fore
SplineSet
106 1215 m 0
 71.3601549747 1215 34.4190047987 1194 2 1194 c 0
 -2 1194 -4 1195 -4 1197 c 0
 -4 1210.30195262 44.5076504277 1228.64861632 63 1237 c 2
 324 1347 l 1
 306.039381274 1098.54477429 311 820.768032181 311 554 c 0
 311 414.99883476 313.083120228 280.947996195 321 149 c 0
 325.288574286 71.8056628491 360.280347077 26.2398843077 424 5 c 1
 424 0 l 1
 63 0 l 1
 63 5 l 1
 127.120273362 26.3734244541 156.258174822 76.9208163908 162 153 c 1
 170.638326955 351.681519965 178 525.154402689 178 721 c 0
 178 876.358398785 184.408513531 997.74269216 170.5 1116.5 c 128
 164.056614661 1171.5165979 155.118613377 1215 106 1215 c 0
EndSplineSet
EndChar

StartChar: slash
Encoding: 47 47 68
Width: 483
Flags: HW
HStem: 0 21G<50 181.858> 1307 20G<302.142 434>
VStem: 50 384
LayerCount: 2
Fore
SplineSet
306 1327 m 1
 434 1327 l 1
 178 0 l 1
 50 0 l 1
 306 1327 l 1
EndSplineSet
EndChar

StartChar: fraction
Encoding: 8260 8260 69
Width: 752
Flags: HW
LayerCount: 2
Fore
SplineSet
629 1151 m 1
 760 1152 l 1
 127 224 l 1
 -4 223 l 1
 629 1151 l 1
EndSplineSet
EndChar

StartChar: two
Encoding: 50 50 70
Width: 673
Flags: HW
HStem: -1 107<160 515.305> 971 21G<186.686 203> 1217 109<243.769 461.512>
VStem: 490 142<878.805 1188.97> 566 5<235.458 246>
LayerCount: 2
Fore
SplineSet
58 1200 m 1
 124.626997828 1271.14408243 230.851928375 1326 357 1326 c 0
 479.422721436 1326 568.194097977 1274.02971298 609.5 1190.5 c 128
 624.5 1160.16666667 632 1124.66666667 632 1084 c 0
 632 974.134066823 592.930523731 876.593678394 554 789 c 128
 446.03006918 546.067655654 290.966062488 327.840473194 160 106 c 1
 395 106 l 2
 492.067701649 106 550.503165909 165.416462726 566 246 c 1
 571 246 l 1
 570 0 l 1
 516.729936542 0 445.575405628 -1 385 -1 c 2
 167 -1 l 2
 130.333333333 -1 95 -0.666666666667 61 0 c 1
 16 126 l 1
 59.4265732745 226.811687959 128.520931131 327.756501956 189.5 423 c 128
 288.840967145 578.161129637 401.862782257 741.059663975 463 929 c 128
 481 984.333333333 490 1037.33333333 490 1088 c 0
 490 1167.89198621 437.664686777 1217 359 1217 c 0
 262.035432991 1217 193 1149.89931226 193 1051 c 0
 193 1026.33333333 196.333333333 1000.66666667 203 974 c 1
 199 971 l 1
 58 1200 l 1
EndSplineSet
EndChar

StartChar: three
Encoding: 51 51 71
Width: 690
Flags: HW
HStem: -29 105<214.969 406.393> 677 106<226 375.908> 1029 5<260.11 264> 1243 105<195.512 399.107>
VStem: 44 134<111.267 301 1061.62 1218.04> 448 150<855.232 1193.65> 478 150<163.519 590.485>
LayerCount: 2
Fore
SplineSet
478 408 m 0
 478 588.3918781 403.417953831 672.139234142 226 677 c 1
 226 783 l 1
 390.697349533 785.573396086 448 875.359157957 448 1042 c 0
 448 1133.78689935 417.422244521 1201.76309221 356.5 1230.5 c 128
 338.833333333 1238.83333333 320.333333333 1243 301 1243 c 0
 233.473638822 1243 181 1213.76139484 181 1149 c 0
 181 1093.27324444 220.714495119 1055.64275244 264 1034 c 1
 263 1029 l 1
 44 1049 l 1
 44 1193.08279099 118.577096006 1291.216411 222 1330 c 128
 254 1342 285.333333333 1348 316 1348 c 0
 453.358430929 1348 537.204007676 1273.2803434 576 1171 c 128
 590.666666667 1132.33333333 598 1088 598 1038 c 0
 598 885.935312956 532.923903855 783.514735253 438 725 c 1
 545.890351034 669.194646017 628 570.277242258 628 412 c 0
 628 216.210094626 566.265892007 63.5374723424 437 0 c 128
 397.666666667 -19.3333333333 354.333333333 -29 307 -29 c 0
 180.759463157 -29 105.310429534 56.6147237042 68 153 c 128
 52 194.333333333 44 243.666666667 44 301 c 1
 263 361 l 1
 264 356 l 1
 228.132852419 335.077497244 178 287.228845119 178 237 c 0
 178 148.58922698 221.970422281 76 309 76 c 0
 361 76 402.166666667 103.333333333 432.5 158 c 128
 462.833333333 212.666666667 478 296 478 408 c 0
EndSplineSet
EndChar

StartChar: five
Encoding: 53 53 72
Width: 676
Flags: HW
HStem: -29 115<221.296 407.36> 356 5<270.11 274> 1220 106.5<218 503.305>
VStem: 44 147<119.469 321> 478 150<165.195 638.933> 554 5<1080 1090.54>
LayerCount: 2
Fore
SplineSet
554 1080 m 1
 538.504068185 1160.57884544 480.061820697 1220 383 1220 c 2
 218 1220 l 1
 239 813 l 1
 436.591441287 868.025464662 546.876063575 759.659490806 596.5 610 c 128
 617.5 546.666666667 628 467.333333333 628 372 c 0
 628 186.723414283 560.002418123 52.9671673084 433 -3 c 128
 393.666666667 -20.3333333333 351.333333333 -29 306 -29 c 0
 179.942861876 -29 105.144287618 67.5326188169 68.5 165.5 c 128
 52.1666666667 209.166666667 44 261 44 321 c 1
 273 361 l 1
 274 356 l 1
 230.907838745 333.427915533 191 296.051572841 191 240 c 0
 191 156.154792326 226.815797977 86 311 86 c 256
 401.93803697 86 443.630796337 165.888014705 464 243 c 128
 473.333333333 278.333333333 478 320 478 368 c 0
 478 534.630364285 469.009057393 682.911028174 330 705.5 c 128
 259.285864097 716.991047084 188.437604068 704.811582697 116 694 c 1
 83 1326 l 1
 248.010407692 1327.30960641 396.060949107 1326 559 1326 c 1
 559 1080 l 1
 554 1080 l 1
EndSplineSet
EndChar

StartChar: zero
Encoding: 48 48 73
Width: 865
Flags: HW
HStem: -18 118<336.674 518.738> 599 77<302.535 559.404> 1200 117<340.439 518.321>
VStem: 64 156<307.404 992.64> 643 159<316.562 993.064>
LayerCount: 2
Fore
SplineSet
802 649 m 0
 802 451.456163472 762.474138105 280.866849051 691.5 160 c 128
 639.453602733 71.3665313867 558.520521631 -18 437 -18 c 0
 307.621178489 -18 224.818200436 66.4708772537 171 158.5 c 128
 100.374450349 279.269689903 64 451.402193812 64 649 c 0
 64 849.000533537 100.571789997 1021.572043 172 1143 c 128
 225.555703354 1234.0446957 309.338695973 1317 437 1317 c 0
 561.147039811 1317 642.311665049 1232.61633274 694.5 1143 c 128
 765.273437614 1021.4698546 802 848.624092214 802 649 c 0
426 100 m 0
 515.072504806 100 561.042719598 192.118838155 588.5 268.5 c 128
 624.687424595 369.166835692 643 508.774666231 643 646 c 0
 643 843.247956005 611.111159732 1047.84630846 520.5 1153 c 128
 493.5 1184.33333333 462 1200 426 1200 c 0
 341.444220134 1200 297.94155248 1100.78394792 273 1025 c 128
 238.677719728 920.713071481 220 777.260036265 220 638 c 0
 220 460.372012253 242.558066321 288.102241137 311 178 c 128
 335.561225653 138.48846308 369.547286275 100 426 100 c 0
437 676 m 0
 489.182882997 676 530.241590597 684.205215114 560 703 c 1
 560 572 l 1
 531.33405348 592.234785779 490.273598832 599 436 599 c 0
 376.648539326 599 332.569639497 592.016627154 302 571 c 1
 302 702 l 1
 333.823345288 683.280385125 379.359044987 676 437 676 c 0
EndSplineSet
EndChar

StartChar: six
Encoding: 54 54 74
Width: 785
Flags: HW
HStem: -16 106<322.561 503.071> 726 100<372.815 536.359> 1207 110<347.347 519.973>
VStem: 64 156<303.158 989.69> 568 126<989.4 1158.41> 593 144<206.725 662.883>
LayerCount: 2
Fore
SplineSet
459 726 m 0
 414.34450242 726 370 709.30828021 370 664 c 0
 370 623.484673344 386.703044843 594.484505782 406 563 c 1
 268 677 l 1
 278.080453709 751.595357446 341.014680689 797.358137432 406.5 816.5 c 128
 428.166666667 822.833333333 448 826 466 826 c 0
 617.761080144 826 692.259715359 708.738745306 721 583 c 128
 731.666666667 536.333333333 737 487.666666667 737 437 c 0
 737 252.053287107 663.298948472 100.010039886 550.5 24.5 c 128
 510.166666667 -2.5 464.333333333 -16 413 -16 c 0
 313.784489532 -16 248.693947027 37.1605571312 203 97.5 c 128
 106.460233773 224.981998992 64 430.428942931 64 649 c 0
 64 926.879460728 131.484206402 1166.84240554 296.5 1272.5 c 128
 342.833333333 1302.16666667 393 1317 447 1317 c 0
 522.36957495 1317 581.436993607 1276.72662423 621 1236 c 128
 656.951623002 1198.99097632 694 1140.65052498 694 1076 c 0
 694 1042 680.666666667 1014 654 992 c 1
 525 906 l 1
 522 911 l 1
 549.078875186 936.95058872 568 973.976180809 568 1022 c 0
 568 1096.92433286 534.630204786 1160.87415198 488.5 1191 c 128
 472.166666667 1201.66666667 454.666666667 1207 436 1207 c 0
 378.333531521 1207 341.861752362 1163.43625394 317 1122 c 128
 246.34209966 1004.23683277 220 824.512440469 220 638 c 0
 220 469.487462018 234.632732409 297.576612982 291 183.5 c 128
 314.126127294 136.697123333 349.629414929 90 413 90 c 0
 481.102320189 90 522.701600168 149.14352037 546.5 201.5 c 128
 574.206519493 262.454342885 593 349.025080431 593 435 c 0
 593 543.548508677 573.955504088 649.806584387 518.5 702 c 128
 501.5 718 481.666666667 726 459 726 c 0
EndSplineSet
EndChar

StartChar: nine
Encoding: 57 57 75
Width: 785
Flags: HW
HStem: -16 110<265.007 437.869> 475 100<248.641 412.185> 1211 106<281.77 462.331>
VStem: 48 144<638.117 1094.27> 91 126<142.588 311.6> 565 156<311.415 997.842>
LayerCount: 2
Fore
SplineSet
326 575 m 0
 370.65549758 575 415 591.69171979 415 637 c 0
 415 677.515326656 398.296955157 706.515494218 379 738 c 1
 517 624 l 1
 506.815610728 548.635519389 444.508181004 503.794699063 378.5 484.5 c 128
 356.833333333 478.166666667 337 475 319 475 c 0
 167.238919856 475 92.7402846414 592.261254694 64 718 c 128
 53.3333333333 764.666666667 48 813.333333333 48 864 c 0
 48 1048.94671289 121.701051528 1200.98996011 234.5 1276.5 c 128
 274.833333333 1303.5 320.666666667 1317 372 1317 c 0
 471.215510468 1317 536.306052973 1263.83944287 582 1203.5 c 128
 678.539766227 1076.01800101 721 870.571057069 721 652 c 0
 721 374.120539272 653.515793598 134.157594462 488.5 28.5 c 128
 442.166666667 -1.16666666667 392 -16 338 -16 c 0
 262.63042505 -16 203.563006393 24.2733757716 164 65 c 128
 128.048376998 102.009023679 91 160.349475022 91 225 c 0
 91 259 104.333333333 287 131 309 c 1
 260 395 l 1
 263 390 l 1
 235.921124814 364.04941128 217 327.023819191 217 279 c 0
 217 204.248600896 250.39848384 140.401010773 296 110 c 128
 312 99.3333333333 329.666666667 94 349 94 c 0
 437.746948071 94 483.699452587 194.085404936 510 272.5 c 128
 545.29984071 377.745821376 565 522.454949756 565 663 c 0
 565 831.512537982 550.367267591 1003.42338702 494 1117.5 c 128
 471.109722179 1163.82556226 434.438246577 1211 372 1211 c 0
 302.958134306 1211 262.526800288 1152.35896063 238.5 1099.5 c 128
 210.793480507 1038.54565712 192 951.974919569 192 866 c 0
 192 757.451491323 211.044495912 651.193415613 266.5 599 c 128
 283.5 583 303.333333333 575 326 575 c 0
EndSplineSet
EndChar

StartChar: eight
Encoding: 56 56 76
Width: 778
Flags: HW
HStem: -29 106<273.074 488.738> 1243 104<295.966 487.159>
VStem: 62 150<140.87 556.294> 92 149<845.433 1185.79> 536 150<845.933 1193.64> 568 148<165.912 556.669>
LayerCount: 2
Fore
SplineSet
212 328 m 0
 212 188.630605779 256.715754885 77 381 77 c 0
 519.777696908 77 568 222.487170946 568 362 c 0
 568 498.941679124 529.84838171 626.863713717 451 686 c 1
 263.859203217 669.726887236 212 531.902751321 212 328 c 0
252 725 m 1
 157.060867832 783.524122569 92 885.921006621 92 1038 c 0
 92 1188.27193979 166.463707993 1286.43100296 276 1327 c 128
 312 1340.33333333 349.666666667 1347 389 1347 c 256
 528.242935729 1347 620.060128882 1272.35468853 662 1171 c 128
 678 1132.33333333 686 1088 686 1038 c 0
 686 885.935312956 620.923903855 783.514735253 526 725 c 1
 640.34571477 650.542325266 716 521.253440751 716 332 c 0
 716 110.446922547 602.529503814 -29 383 -29 c 0
 170.256606597 -29 62 117.369179021 62 332 c 0
 62 521.254360967 137.655294717 650.542982607 252 725 c 1
337 765 m 1
 486.304809847 780.716295773 536 877.437055614 536 1042 c 0
 536 1133.78689935 505.422244521 1201.76309221 444.5 1230.5 c 128
 426.833333333 1238.83333333 408.333333333 1243 389 1243 c 0
 279.962384354 1243 241 1125.55297663 241 1016 c 0
 241 907.43340302 271.488713887 808.674190742 337 765 c 1
EndSplineSet
EndChar

StartChar: plus
Encoding: 43 43 77
Width: 582
Flags: HW
HStem: 486 106<53.817 236 342 527.059>
VStem: 236 106<302.848 486 592 776.059>
LayerCount: 2
Fore
SplineSet
237 592 m 1
 237 665.312498192 238.390860626 728.522848434 219 777 c 1
 361 777 l 1
 345.902585762 724.159050169 344.183163103 667.319127068 342 592 c 1
 416.181872965 592 479.101015399 590.44040616 528 610 c 1
 528 468 l 1
 473.735793322 481.566051669 418.057506416 483.826928388 342 486 c 1
 344.118047568 410.80931134 344.80323658 352.614885689 361 302 c 1
 219 302 l 1
 229.027629946 356.149201711 233.851360933 412.946271737 236 486 c 1
 161.438120112 484.934830287 102.772239066 483.927116501 53 468 c 1
 53 610 l 1
 105.661482218 597.847350257 163.437256334 594.13225344 237 592 c 1
EndSplineSet
EndChar

StartChar: dagger
Encoding: 8224 8224 78
Width: 596
Flags: HW
HStem: 0 21G<206 388> 586 87<37.9729 243 349 557.964> 943 20G<206 388>
VStem: 243 106<140.401 586 673 961.681>
LayerCount: 2
Fore
SplineSet
244 673 m 1
 244 785.374105658 247.580433467 894.689287875 206 963 c 1
 388 963 l 1
 356.720321257 885.720793695 350.099315038 794.02396927 349 672 c 1
 437.305388884 672 511.478910733 672.55914179 559 710 c 1
 559 548 l 1
 504.787899968 574.231661306 435.769581182 582.662708416 349 586 c 1
 349.666666667 440.666666667 353.166666667 320.666666667 359.5 226 c 128
 365.833333333 131.333333333 375.333333333 56 388 0 c 1
 206 0 l 1
 232.263686302 171.724102742 240.864479366 356.431531821 243 586 c 1
 153.7633057 582.694937248 88.6958761069 578.304479097 37 548 c 1
 37 710 l 1
 95.3477531134 687.413772988 155.33572273 677.433213863 244 673 c 1
EndSplineSet
EndChar

StartChar: dollar
Encoding: 36 36 79
Width: 661
Flags: HW
HStem: -18 106<203.438 301.5> 971 21G<479 495.314> 1219 107<356.785 449.852>
VStem: 71 151<906.067 1179.67> 285 71<-128 88 100.5 1408> 422 164<126.724 416.713>
LayerCount: 2
Fore
SplineSet
182 304 m 1
 172.731954896 283.146898516 168 261.34103206 168 234 c 0
 168 170.167319353 201.011986626 120.738053354 243.5 99 c 128
 257.833333333 91.6666666667 272.333333333 88 287 88 c 0
 366.211432846 88 422 155.782047218 422 234 c 0
 422 344.523039351 376.814785721 429.078869037 331 502.5 c 128
 252.758185685 627.88752294 151.942089208 740.078990595 97 888 c 128
 79.6666666667 934.666666667 71 984.666666667 71 1038 c 0
 71 1173.09922292 152.575860266 1262.0701342 251.5 1302.5 c 128
 289.833333333 1318.16666667 333.333333333 1326 382 1326 c 0
 483.65888714 1326 562.971900333 1261.02809967 624 1200 c 1
 483 971 l 1
 479 974 l 1
 485.666666667 1000.66666667 489 1026.33333333 489 1051 c 0
 489 1125.61479615 457.985731244 1182.86461697 410 1208 c 128
 396 1215.33333333 382.333333333 1219 369 1219 c 0
 283.091103443 1219 222 1158.61241394 222 1073 c 0
 222 971.981628446 273.020603362 884.928878389 316.5 813 c 128
 396.551850992 680.568542803 499.629020037 552.126375092 559 401.5 c 128
 577 355.833333333 586 310.666666667 586 266 c 0
 586 130.459624018 508.922314945 43.9430190573 409 4.5 c 128
 371 -10.5 327.666666667 -18 279 -18 c 0
 177.34111286 -18 98.0280996665 46.9719003335 37 108 c 1
 178 307 l 1
 182 304 l 1
285 1408 m 1
 356 1408 l 1
 356 -128 l 1
 285 -128 l 1
 285 1408 l 1
EndSplineSet
EndChar

StartChar: bar
Encoding: 124 124 80
Width: 362
Flags: HW
VStem: 117 128<-128 1408>
LayerCount: 2
Fore
SplineSet
117 1408 m 1
 245 1408 l 1
 245 -128 l 1
 117 -128 l 1
 117 1408 l 1
EndSplineSet
EndChar

StartChar: florin
Encoding: 402 402 81
Width: 512
Flags: HW
HStem: -240 119<90.2637 196.471> 901 77<255 471.623> 918 60<18 105> 1279 109<250.792 354.945>
VStem: 97 137<981.306 1268.68> 208 139.5<-111.714 455.179>
LayerCount: 2
Fore
SplineSet
472 878 m 1
 435.194674811 896.402662595 385.736068379 901 326 901 c 2
 255 901 l 1
 281.060509398 663.84936448 310.987223801 395.955702107 343 149 c 1
 361.887202569 -9.96728828878 349.513507642 -159.641281149 253.5 -217 c 128
 227.833333333 -232.333333333 198.666666667 -240 166 -240 c 0
 80.2547924817 -240 30.0582445433 -213.1852086 -39 -176 c 1
 62 39 l 1
 65 37 l 1
 49.2290856945 -26.083657222 89.1242115332 -90.9068256795 128.5 -112.5 c 128
 138.833333333 -118.166666667 148.666666667 -121 158 -121 c 0
 212.044844051 -121 215.838488986 -54.6408392394 217 7.5 c 128
 218.42018088 83.4796770846 198.792573812 227.461266047 190 300 c 128
 164.761967316 508.213769641 141.382544801 703.591762256 113 907 c 1
 74.999514333 909.620723149 46.8038634871 909.770324718 18 918 c 1
 11 978 l 1
 105 978 l 1
 82.419889196 1162.11474963 82.4052379354 1388 263 1388 c 0
 356.349274378 1388 426.205010657 1349.51106458 497 1304 c 1
 395 1089 l 1
 392 1091 l 1
 409.742872506 1161.97149002 362.420242905 1242.74785426 319.5 1268.5 c 128
 307.833333333 1275.5 296.666666667 1279 286 1279 c 0
 232.977804547 1279 232.91268355 1201.1953288 234 1136.5 c 128
 234.666666667 1096.83333333 239 1044 247 978 c 1
 318 978 l 2
 394.64641667 978 458.738583924 977.789763987 520 988 c 1
 472 878 l 1
EndSplineSet
EndChar

StartChar: ellipsis
Encoding: 8230 8230 82
Width: 846
Flags: HW
HStem: -29 202<76.9094 231.155 352.909 507.155 628.909 783.155>
VStem: 47 202<0.909424 155.155> 323 202<0.909424 155.155> 599 202<0.909424 155.155>
CounterMasks: 1 70
LayerCount: 2
Fore
SplineSet
147 -29 m 0
 91.416837321 -29 47 15.4183043476 47 71 c 0
 47 128.420250462 89.4916563826 173 147 173 c 256
 205.094265188 173 249 129.090957296 249 71 c 256
 249 13.4874427197 204.416780338 -29 147 -29 c 0
423 -29 m 0
 367.416837321 -29 323 15.4183043476 323 71 c 0
 323 128.420250462 365.491656383 173 423 173 c 256
 481.094265188 173 525 129.090957296 525 71 c 256
 525 13.4874427197 480.416780338 -29 423 -29 c 0
699 -29 m 0
 643.416837321 -29 599 15.4183043476 599 71 c 0
 599 128.420250462 641.491656383 173 699 173 c 256
 757.094265188 173 801 129.090957296 801 71 c 256
 801 13.4874427197 756.416780338 -29 699 -29 c 0
EndSplineSet
EndChar

StartChar: daggerdbl
Encoding: 8225 8225 83
Width: 656
Flags: HW
HStem: 0 21G<236 418> 250 87<67.9729 273 379 587.964> 761 87<67.9729 273 379 587.964>
VStem: 273 106<1.224 250 337 761 848 1096.78>
LayerCount: 2
Fore
SplineSet
379 847 m 1
 467.305388884 847 541.478910733 847.55914179 589 885 c 1
 589 723 l 1
 534.787899968 749.231661306 465.769581182 757.662708416 379 761 c 1
 379 337 l 1
 465.937134245 340.343735933 534.632744862 348.693263643 589 375 c 1
 589 213 l 1
 541.513665487 250.413475677 467.253901683 251 379 251 c 1
 380.109422584 144.495431966 387.332386397 64.9431817478 418 0 c 1
 236 0 l 1
 278.035135688 58.5489389947 274 143.388542878 274 250 c 1
 185.146532857 245.557326643 125.569126939 235.671920106 67 213 c 1
 67 375 l 1
 118.544263708 344.784397136 183.915753533 340.299416536 273 337 c 1
 273 418 273 418 273 465 c 128
 273 504.472892762 273.511741582 523.654907104 274 549 c 129
 274 539 274 539 274 534 c 129
 273.863839992 563.763224438 273 589.670653514 273 633 c 128
 273 680 273 680 273 761 c 1
 183.7633057 757.694937248 118.695876107 753.304479097 67 723 c 1
 67 885 l 1
 125.347753113 862.413772988 185.33572273 852.433213863 274 848 c 1
 274 954.702251101 278.081045495 1039.3871152 236 1098 c 1
 418 1098 l 1
 387.436413418 1033.27711077 380.10730056 953.300853714 379 847 c 1
EndSplineSet
EndChar

StartChar: asterisk
Encoding: 42 42 84
Width: 939
Flags: HW
HStem: 597 88<103.507 389 537 831.993>
LayerCount: 2
Fore
SplineSet
392 597 m 1
 258.190870942 590.727697075 151.942841067 562.987298015 44 539 c 1
 44 742 l 1
 149.530697252 717.646762173 258.434704779 691.217395011 389 685 c 1
 328.56838061 777.237734858 266.760754851 856.658384761 197 932 c 128
 180.333333333 950 165.666666667 966.333333333 153 981 c 1
 322 1076 l 1
 366.065831827 952.615670886 406.769872388 833.327504749 468 722 c 1
 519.238889952 815.161618095 560.029783067 908.442354952 592.5 1011.5 c 128
 600.166666667 1035.83333333 607.666666667 1057.33333333 615 1076 c 1
 784 981 l 1
 698.465737467 886.912311213 611.748111665 797.080476622 537 684 c 1
 673.890862703 690.222311941 783.190018125 717.375559583 894 742 c 1
 894 539 l 1
 782.495120197 562.893902815 671.955405261 590.774754306 535 597 c 1
 611.188738175 482.716892737 695.300079851 391.923725871 784 299 c 1
 615 204 l 1
 569.892280175 325.790843527 528.929875812 443.218407615 468 554 c 1
 416.676745558 460.684991924 377.110130711 369.330392132 343 267 c 128
 331 231 331 231 322 204 c 1
 153 299 l 1
 237.750412547 392.225453802 318.606915993 484.087563067 392 597 c 1
EndSplineSet
EndChar

StartChar: quotesingle
Encoding: 39 39 85
Width: 280
Flags: HW
HStem: 852 475<97 181>
VStem: 97 84<852 1252.98>
LayerCount: 2
Fore
SplineSet
240 1327 m 1
 204.73673654 1185.94694616 186.896750882 1030.86811008 181 852 c 1
 97 852 l 1
 93.1053220376 1029.20784729 84.933703442 1197.9477215 37 1327 c 1
 240 1327 l 1
EndSplineSet
EndChar

StartChar: four
Encoding: 52 52 86
Width: 808
Flags: HW
HStem: 0 5<340 346.264 694.852 701> 319 107<140 446 591 716.429>
VStem: 442.5 152<43.4644 319> 772 5<555.458 566>
LayerCount: 2
Fore
SplineSet
601 1347 m 1
 585.15509722 1141.01626386 589 914.385413035 589 684 c 0
 589 618 589 618 589 554 c 128
 589 511.333333333 589.333333333 468.666666667 590 426 c 1
 687.970131627 426 756.359902926 484.671495217 772 566 c 1
 777 566 l 1
 777 319 l 1
 591 319 l 1
 593.643731401 262.15977487 595.309041203 205.510134731 598 149 c 1
 605.019387692 73.1906129226 637.231215499 26.6813867304 701 5 c 1
 701 0 l 1
 340 0 l 1
 340 5 l 1
 403.582461281 26.1941537604 434.667748637 76.4635592592 439 153 c 0
 441.586408273 209.900981998 443.222163215 263.443264292 446 319 c 1
 163 319 l 2
 119.666666667 319 79 319.333333333 41 320 c 1
 -4 446 l 1
 40.9963198397 497.918830584 83.9657149104 574.487003147 122.5 644.5 c 128
 237.238135615 852.967880202 329.728398584 1050.64097825 433 1280 c 1
 601 1347 l 1
450 426 m 1
 452.577446385 526.520409009 455 620.31649255 455 721 c 2
 455 1055 l 1
 355.945511826 844.50921263 250.631632726 627.148423139 140 426 c 1
 450 426 l 1
EndSplineSet
EndChar

StartChar: dotlessi
Encoding: 305 305 87
Width: 433
Flags: HW
HStem: 0 5<47 53.2617 401.73 408> 908 5<17 25.8281> 973 20G<235.25 302.5>
VStem: 146 150.5<47.5698 515.815> 161.5 134.5<56.2378 889.599>
LayerCount: 2
Fore
SplineSet
308 993 m 1
 292.429580125 838.711293969 296 655.286619722 296 480 c 0
 296 424 296 424 296 386 c 128
 296 297.794832479 298.835799332 235.298809354 305 149 c 0
 310.686087927 72.2378129906 343.733411008 26.4221963308 408 5 c 1
 408 0 l 1
 47 0 l 1
 47 5 l 1
 111.120273362 26.3734244541 140.258174822 76.9208163908 146 153 c 1
 151.481348311 279.071011163 162 384.705648201 162 517 c 0
 162 619.055828013 164.557835991 701.308533597 157 783.5 c 128
 150.816868205 850.741558274 139.963157466 897.564421104 78 905 c 128
 61.3333333333 907 41 908 17 908 c 1
 17 913 l 1
 308 993 l 1
EndSplineSet
EndChar

StartChar: parenleft
Encoding: 40 40 88
Width: 474
Flags: HW
HStem: -25 89<348.963 449> 1236 88<353.35 449>
VStem: 66 147<290.527 1000.12>
LayerCount: 2
Fore
SplineSet
449 1273.5 m 130
 449 1267.05100561 449.059227383 1236 447 1236 c 0
 383.855098147 1236 345.492188971 1191.41045911 318 1147 c 128
 241.790530498 1023.89239542 213 834.173700937 213 637 c 0
 213 429.648027167 246.138077384 219.70344375 344.5 112.5 c 128
 374.166666667 80.1666666667 409 64 449 64 c 1
 449 -18 l 1
 430.333333333 -22.6666666667 411.333333333 -25 392 -25 c 0
 307.083584246 -25 251.545627738 22.2089947996 210.5 74.5 c 128
 108.594276088 204.325100327 66 418.993507919 66 648 c 256
 66 879.602124557 109.923843435 1092.03946226 211 1224 c 128
 251.24759827 1276.54547552 306.915595918 1324 391 1324 c 0
 411 1324 430.333333333 1321.66666667 449 1317 c 1
 449 1273.5 l 130
EndSplineSet
EndChar

StartChar: parenright
Encoding: 41 41 89
Width: 474
Flags: HW
HStem: -25 89<25 124.472> 1236 81<25 117.178>
VStem: 261 147<290.527 1000.12>
LayerCount: 2
Fore
SplineSet
25 1317 m 1
 43.6666666667 1321.66666667 63 1324 83 1324 c 0
 167.010066717 1324 222.80555417 1276.47608206 263 1224 c 128
 364.192725454 1091.8872751 408 879.331992999 408 648 c 256
 408 418.819338895 365.15970883 204.011683852 263.5 74.5 c 128
 222.722867892 22.5510508759 166.060110288 -25 82 -25 c 0
 62.6666666667 -25 43.6666666667 -22.6666666667 25 -18 c 1
 25 64 l 1
 122.30039874 64 173.38935835 159.315471311 203 241 c 128
 241.339610806 346.764443604 261 492.26419866 261 637 c 0
 261 834.286750408 231.961528171 1024.29291603 156 1147 c 128
 128.742728493 1191.03097705 89.280310459 1236 27 1236 c 0
 25.6666666667 1236 25 1239.83333333 25 1247.5 c 130
 25 1317 l 1
EndSplineSet
EndChar

StartChar: comma
Encoding: 44 44 90
Width: 307
Flags: HW
HStem: -288 415<64.5 141.957>
VStem: 42 216
LayerCount: 2
Fore
SplineSet
258 127 m 1
 218.896854171 -11.0111029244 175.420295726 -151.66814972 126 -288 c 1
 42 -288 l 1
 62.3512477406 -154.020952374 71.960270678 -8.68216542393 55 127 c 1
 258 127 l 1
EndSplineSet
EndChar

StartChar: acute
Encoding: 180 180 91
Width: 282
Flags: HW
HStem: 1023 415
VStem: 44 83<1039.55 1164.16>
LayerCount: 2
Fore
SplineSet
272 1438 m 1
 216.77226401 1308.50048113 161.957077468 1171.56757924 127 1023 c 1
 44 1043 l 1
 52.7240208417 1177.34992096 60.0616989578 1310.62921015 69 1438 c 1
 272 1438 l 1
EndSplineSet
EndChar

StartChar: oe
Encoding: 339 339 95
Width: 1150
Flags: HW
HStem: -29 106<284.579 444.969 746.158 931.415> 885 107<284.579 445.584 736.185 900.496>
VStem: 63 150<194.95 770.313> 511 151<478 788.163> 959 137<123.068 310.085>
LayerCount: 2
Fore
SplineSet
959 220 m 0
 959 275.966646565 919.019564646 313.465942329 876 336 c 1
 877 341 l 1
 1096 321 l 1
 1096 159.791789412 1027.65309156 39.9732275558 918 -8 c 128
 886 -22 854.666666667 -29 824 -29 c 0
 707.63165675 -29 633.733598619 43.0661739931 588 128 c 1
 543.500012306 45.3571657103 476.013232982 -29 365 -29 c 0
 262.232507256 -29 194.679129643 33.0952240303 150.5 104 c 128
 93.0657100493 196.178490044 63 327.32627148 63 482 c 256
 63 695.063706564 116.931075001 879.885291137 246 958.5 c 128
 282.666666667 980.833333333 322.333333333 992 365 992 c 0
 474.291513927 992 543.644684818 917.423396805 587 836 c 1
 633.764124496 919.740408982 707.801892355 993 824 993 c 0
 912.960935874 993 969.055741518 938.836996078 1007 876.5 c 128
 1058.30085054 792.220031253 1083.87668437 672.937606906 1090 537 c 1
 667 389 l 1
 675.666666667 279.666666667 695 200.166666667 725 150.5 c 128
 755 100.833333333 793 76 839 76 c 0
 920.849374721 76 959 138.967396966 959 220 c 0
213 482 m 256
 213 348 226.333333333 247 253 179 c 128
 279.666666667 111 317 77 365 77 c 0
 413.666666667 77 450.166666667 111 474.5 179 c 128
 498.833333333 247 511 348 511 482 c 256
 511 616 498.833333333 716.666666667 474.5 784 c 128
 450.166666667 851.333333333 413.666666667 885 365 885 c 0
 317 885 279.666666667 851.333333333 253 784 c 128
 226.333333333 716.666666667 213 616 213 482 c 256
662 478 m 1
 735.696958735 505.954018831 835.129832012 542.378042378 906 587 c 128
 924 598.333333333 940 608 954 616 c 1
 947.333333333 708.666666667 933.166666667 777 911.5 821 c 128
 889.833333333 865 860.666666667 887 824 887 c 0
 772.666666667 887 732.833333333 853 704.5 785 c 128
 676.166666667 717 662 616 662 482 c 2
 662 478 l 1
EndSplineSet
EndChar

StartChar: braceright
Encoding: 125 125 96
Width: 455
Flags: HW
HStem: -29 88<28 110.704> 632 54<380.941 427> 1259 81<28 107.198>
VStem: 194 147<168.578 601.78 716.837 1149.42>
LayerCount: 2
Fore
SplineSet
294 659 m 1
 229.958510197 699.025931127 194 787.13018473 194 890 c 0
 194 1025.3388443 166.186635901 1158.08287381 100.5 1227 c 128
 80.1666666667 1248.33333333 56.6666666667 1259 30 1259 c 0
 28.6666666667 1259 28 1261.83333333 28 1267.5 c 128
 28 1291.66666667 28 1315.83333333 28 1340 c 1
 46.6666666667 1344.66666667 66 1347 86 1347 c 0
 182.324801334 1347 240.378748244 1277.07275734 276 1207.5 c 128
 316.278364151 1128.83132002 341 1017.4007499 341 901 c 0
 341 821.199748498 350.959207976 741.040792024 390 702 c 128
 400.666666667 691.333333333 413 686 427 686 c 1
 427 632 l 1
 350.453977105 632 341 497.340974484 341 417 c 0
 341 243.390906843 292.696950019 87.470159489 196.5 9.5 c 128
 164.833333333 -16.1666666667 128 -29 86 -29 c 0
 66 -29 46.6666666667 -26.6666666667 28 -22 c 1
 28 50 l 130
 28 56 28.6666666667 59 30 59 c 0
 94.8909834489 59 130.630047543 122.083927249 152 175 c 128
 178.822385098 241.417334529 194 335.783137723 194 428 c 0
 194 527.891536657 232.208266264 618.646214703 294 659 c 1
EndSplineSet
EndChar

StartChar: asciitilde
Encoding: 126 126 97
Width: 724
Flags: HW
HStem: 815 136<210.328 647.12> 856 136<98.5342 534.843>
VStem: 45 655
LayerCount: 2
Fore
SplineSet
700 982 m 1
 694.903795171 869.883493768 620.388568199 815 504 815 c 0
 385.278567284 815 297.87894274 856 177 856 c 0
 132.743497377 856 94.9520944146 844.699738791 85 812 c 1
 45 825 l 1
 50.0713194213 936.569027268 125.038019425 992 241 992 c 256
 357.473161944 992 454.737005494 951 568 951 c 0
 613.800643667 951 648.616318343 961.271915235 660 994 c 1
 700 982 l 1
EndSplineSet
EndChar

StartChar: braceleft
Encoding: 123 123 98
Width: 455
Flags: HW
HStem: -29 88<343.296 426> 632 54<27 73.0593> 1259 88<343.296 426>
VStem: 113 147<168.578 601.78 716.837 1149.42>
CounterMasks: 1 e0
LayerCount: 2
Fore
SplineSet
160 659 m 1
 221.818099403 618.628996309 260 527.918629539 260 428 c 0
 260 292.661155696 287.813364099 159.917126191 353.5 91 c 128
 373.833333333 69.6666666667 397.333333333 59 424 59 c 0
 425.333333333 59 426 56 426 50 c 128
 426 26 426 2 426 -22 c 1
 407.333333333 -26.6666666667 388 -29 368 -29 c 0
 271.675198666 -29 213.621251756 40.9272426643 178 110.5 c 128
 137.721635849 189.168679983 113 300.599250102 113 417 c 0
 113 496.276198251 102.8037364 577.1962636 64 616 c 128
 53.3333333333 626.666666667 41 632 27 632 c 1
 27 686 l 1
 103.597591282 686 113 820.430362765 113 901 c 0
 113 1074.60909316 161.303049981 1230.52984051 257.5 1308.5 c 128
 289.166666667 1334.16666667 326 1347 368 1347 c 0
 388 1347 407.333333333 1344.66666667 426 1340 c 1
 426 1267.5 l 130
 426 1261.83333333 425.333333333 1259 424 1259 c 0
 359.109016551 1259 323.369952457 1195.91607275 302 1143 c 128
 275.177614902 1076.58266547 260 982.216862277 260 890 c 0
 260 787.129171768 224.0420412 699.02627575 160 659 c 1
EndSplineSet
EndChar

StartChar: bracketleft
Encoding: 91 91 99
Width: 510
Flags: HW
HStem: 0 114<282 470.532> 1213 114<282 470.532>
VStem: 149 133<114.68 1212.32>
LayerCount: 2
Fore
SplineSet
282 114 m 1
 346.641014205 114 412.238004055 118.024621109 470 124 c 1
 484 0 l 1
 54 0 l 1
 54 5 l 1
 104.235225643 28.0810496198 130.098097585 82.7657565308 134 153 c 1
 147.846706002 304.054974562 149 456.431407151 149 616 c 0
 149 813.237759252 150.413385297 985.877353136 134 1174 c 1
 130.097567216 1244.24379011 104.24084282 1298.91636952 54 1322 c 1
 54 1327 l 1
 484 1327 l 1
 470 1203 l 1
 412.360556798 1208.96270102 345.607702397 1211.0122593 282 1213 c 1
 282 114 l 1
EndSplineSet
EndChar

StartChar: bracketright
Encoding: 93 93 100
Width: 509
Flags: HW
HStem: -1 124<38.3814 228> 1203 124<38.3814 228>
VStem: 228 133<113.68 1212.32>
LayerCount: 2
Fore
SplineSet
228 1213 m 1
 163.615362237 1211.04895037 98.1286896503 1209.01331272 40 1203 c 1
 26 1327 l 1
 456 1327 l 1
 456 1322 l 1
 405.764774357 1298.91895038 379.901902415 1244.23424347 376 1174 c 1
 358.346797214 986.119484634 361 814.002954667 361 616 c 0
 361 456.659311008 362.175914253 302.808208154 376 152 c 1
 379.902432784 81.7562098858 405.75915718 27.0836304848 456 4 c 1
 456 -1 l 1
 26 -1 l 1
 40 123 l 1
 98.1428093168 116.985226622 163.024261874 113 228 113 c 1
 228 1213 l 1
EndSplineSet
EndChar

StartChar: backslash
Encoding: 92 92 101
Width: 483
Flags: HW
HStem: 0 21G<301.142 433> 1307 20G<49 180.858>
VStem: 49 384
LayerCount: 2
Fore
SplineSet
433 0 m 1
 305 0 l 1
 49 1327 l 1
 177 1327 l 1
 433 0 l 1
EndSplineSet
EndChar

StartChar: grave
Encoding: 96 96 102
Width: 282
Flags: HW
HStem: 1023 415<143.643 214.494>
VStem: 155 83<1039.55 1164.16>
LayerCount: 2
Fore
SplineSet
213 1438 m 1
 221.935379223 1310.67084607 229.27862564 1177.30916514 238 1043 c 1
 155 1023 l 1
 118.540787851 1168.83684859 64.1601001818 1311.00390302 10 1438 c 1
 213 1438 l 1
EndSplineSet
EndChar

StartChar: tilde
Encoding: 732 732 104
Width: 630
Flags: HW
HStem: 1110 136<207.875 535.12> 1151 136<96.5342 423.234>
VStem: 43 545
LayerCount: 2
Fore
SplineSet
588 1277 m 1
 582.903795171 1164.88349377 508.388568199 1110 392 1110 c 0
 310.104266326 1110 256.898348082 1151 175 1151 c 0
 130.743497377 1151 92.9520944146 1139.69973879 83 1107 c 1
 43 1120 l 1
 48.0713194213 1231.56902727 123.038019425 1287 239 1287 c 0
 300.95608564 1287 357.179790943 1265.45505226 409 1252.5 c 128
 426.333333333 1248.16666667 442 1246 456 1246 c 0
 501.800643667 1246 536.616318343 1256.27191524 548 1289 c 1
 588 1277 l 1
EndSplineSet
EndChar

StartChar: cent
Encoding: 162 162 106
Width: 737
Flags: HW
HStem: -27 104<297.75 363 431 519.804> 883 108<292.175 363>
VStem: 50 150<209.454 760.555> 363 68<-192 -22.2029 83 883 986.594 1152>
LayerCount: 2
Fore
SplineSet
504 589 m 1
 525.599619912 615.99952489 541 646.17727157 541 688 c 0
 541 783.434149511 508.849623781 864.127363932 431 883 c 1
 431 77 l 1
 537.239575575 89.4987735971 585.935386108 195.128621654 609 292 c 1
 662 146 l 1
 604.666666667 40 527.666666667 -17.6666666667 431 -27 c 1
 431 -192 l 1
 363 -192 l 1
 363 -26 l 1
 199.754429831 -4.39396865404 112.939557524 124.615746556 73.5 276.5 c 128
 57.8333333333 336.833333333 50 405 50 481 c 0
 50 694.696571973 108.82372369 870.438994626 238.5 950.5 c 128
 276.833333333 974.166666667 318.333333333 987.666666667 363 991 c 1
 363 1152 l 1
 431 1152 l 1
 431 989 l 1
 600.194413171 966.440744911 658.990681916 837.73931783 701 687 c 1
 506 585 l 1
 504 589 l 1
200 481 m 0
 200 293.419527855 235.137255773 120.703116887 363 83 c 1
 363 883 l 1
 315 871.666666667 275.833333333 833 245.5 767 c 128
 215.166666667 701 200 605.666666667 200 481 c 0
EndSplineSet
EndChar

StartChar: OE
Encoding: 338 338 107
Width: 1142
Flags: HW
HStem: 0 118<357.009 627.436> 688 77<787 989.261> 1209 117<363.156 628> 1253 67.5<800 990.05>
VStem: 69 156<325.208 983.867> 628 159<121.815 688 765 1206.09> 1023 4<586 594.589 850.821 861> 1045 5<1115 1124.54> 1052 4<199.914 212>
LayerCount: 2
Fore
SplineSet
1099 1327 m 1
 1081.83216328 1258.3286531 1067.77601665 1191.94099608 1050 1114 c 1
 1045 1115 l 1
 1046.45772101 1166.0202353 1029.81836411 1200.70837595 994 1218 c 0
 938.536359259 1244.4112575 878.072109518 1250.26062774 800 1253 c 1
 792.181395104 1091.41549881 788.369524035 930.712408186 787 765 c 1
 820 765 820 765 850.5 765 c 128
 943.70343602 765 1007.96739081 786.849182499 1024 861 c 1
 1027 861 l 1
 1027 586 l 1
 1023 586 l 1
 1007.53222112 663.338894402 946.733699798 687 851 687 c 128
 831.666666667 687 810.333333333 687.333333333 787 688 c 1
 787 684 l 2
 787 484.096039726 792.36100662 289.858606696 799 96 c 1
 886.276806487 110.546134414 995.051715514 109.068954019 1038.5 167 c 128
 1047.5 179 1052 194 1052 212 c 1
 1056 212 l 1
 1068.31727033 136.55671924 1079.06824224 69.6587887773 1093 0 c 1
 472 0 l 2
 334.517882234 0 243.872288933 78.919701372 184 171.5 c 128
 108.994749754 287.480340659 69 453.447432965 69 649 c 0
 69 933.304275708 141.468981551 1175.67488666 313.5 1281 c 128
 362.5 1311 415.333333333 1326 472 1326 c 0
 676.460781446 1326 883.836462481 1316.91420918 1099 1327 c 1
628 1203 m 1
 576.322431735 1205.87097601 521.92903152 1209 461 1209 c 0
 365.838118741 1209 315.001255099 1111.00334693 285 1031 c 128
 245.800860308 926.468960823 225 781.589475598 225 638 c 0
 225 444.918319502 261.209980371 257.790019629 357 162 c 128
 386.333333333 132.666666667 421 118 461 118 c 0
 522.885699697 118 578.573304361 118.762217393 628 127 c 1
 628 1203 l 1
EndSplineSet
EndChar

StartChar: quoteright
Encoding: 8217 8217 108
Width: 293
Flags: HW
HStem: 912 415<80.5 157.957>
VStem: 58 216
LayerCount: 2
Fore
SplineSet
274 1327 m 1
 234.896854171 1188.98889708 191.420295726 1048.33185028 142 912 c 1
 58 912 l 1
 78.3512477406 1045.97904763 87.960270678 1191.31783458 71 1327 c 1
 274 1327 l 1
EndSplineSet
EndChar

StartChar: quotedblright
Encoding: 8221 8221 109
Width: 554
Flags: HW
HStem: 912 415<79.5 156.957 341.5 418.957>
VStem: 57 478
LayerCount: 2
Fore
SplineSet
273 1327 m 1
 233.896854171 1188.98889708 190.420295726 1048.33185028 141 912 c 1
 57 912 l 1
 77.3512477406 1045.97904763 86.960270678 1191.31783458 70 1327 c 1
 273 1327 l 1
535 1327 m 1
 495.896854171 1188.98889708 452.420295726 1048.33185028 403 912 c 1
 319 912 l 1
 339.351247741 1045.97904763 348.960270678 1191.31783458 332 1327 c 1
 535 1327 l 1
EndSplineSet
EndChar

StartChar: quotedblleft
Encoding: 8220 8220 110
Width: 566
Flags: HW
HStem: 912 415<147.043 224.5 409.043 486.5>
VStem: 31 478
LayerCount: 2
Fore
SplineSet
293 912 m 1
 332.248704596 1050.52483975 375.865968221 1189.76356641 425 1327 c 1
 509 1327 l 1
 488.803211413 1192.35474275 478.978200155 1048.17439876 496 912 c 1
 293 912 l 1
31 912 m 1
 70.2487045965 1050.52483975 113.865968221 1189.76356641 163 1327 c 1
 247 1327 l 1
 226.803211413 1192.35474275 216.978200155 1048.17439876 234 912 c 1
 31 912 l 1
EndSplineSet
EndChar

StartChar: quoteleft
Encoding: 8216 8216 111
Width: 304
Flags: HW
HStem: 912 415<148.043 225.5>
VStem: 32 216
LayerCount: 2
Fore
SplineSet
32 912 m 1
 71.2487045965 1050.52483975 114.865968221 1189.76356641 164 1327 c 1
 248 1327 l 1
 227.803211413 1192.35474275 217.978200155 1048.17439876 235 912 c 1
 32 912 l 1
EndSplineSet
EndChar

StartChar: quotesinglbase
Encoding: 8218 8218 112
Width: 305
Flags: HW
HStem: -287 415<64.5 141.957>
VStem: 42 216
LayerCount: 2
Fore
SplineSet
258 128 m 1
 218.896854171 -10.0111029244 175.420295726 -150.66814972 126 -287 c 1
 42 -287 l 1
 62.3512477406 -153.020952374 71.960270678 -7.68216542393 55 128 c 1
 258 128 l 1
EndSplineSet
EndChar

StartChar: bullet
Encoding: 8226 8226 113
Width: 617
Flags: HW
HStem: 256 512<154.938 462.008>
VStem: 52 512<357.621 667.496>
LayerCount: 2
Fore
SplineSet
52 513 m 256
 52 672.456737175 152.803332083 768 311 768 c 0
 429.95264976 768 507.941080612 708.139933546 544 622.5 c 128
 557.333333333 590.833333333 564 554.333333333 564 513 c 256
 564 356.448654688 465.658766152 256 311 256 c 0
 152.711366446 256 52 354.168437632 52 513 c 256
EndSplineSet
EndChar

StartChar: ring
Encoding: 730 730 114
Width: 530
Flags: HW
HStem: 1088 75<170.057 361.248> 1446 73<170.113 358.524>
VStem: 39 88<1199.51 1410.2> 402 89<1197.05 1410.28>
LayerCount: 2
Fore
SplineSet
265 1519 m 256
 366.731809662 1519 437.470231623 1467.17721124 471.5 1396.5 c 128
 484.5 1369.5 491 1338.66666667 491 1304 c 0
 491 1195.91127115 428.008822918 1129.83021039 347.5 1102 c 128
 320.5 1092.66666667 293 1088 265 1088 c 256
 164.30723975 1088 92.2490947258 1140.40572634 58.5 1210.5 c 128
 45.5 1237.5 39 1268.66666667 39 1304 c 0
 39 1435.92576122 134.974688367 1519 265 1519 c 256
127 1304 m 0
 127 1219.50287299 183.243917523 1167.67177614 265 1163 c 1
 347.563173129 1165.3589478 402 1218.87211384 402 1302 c 0
 402 1384.80828773 348.987155767 1446 265 1446 c 256
 181.067126677 1446 127 1386.72072112 127 1304 c 0
EndSplineSet
EndChar

StartChar: exclamdown
Encoding: 161 161 117
Width: 383
Flags: HW
HStem: 0 21G<72 313> 973 20G<153 227> 1145 181<130.815 257.669>
VStem: 72 241<0 247.352> 104 181<1171.82 1298.67> 143.5 94.5<185.355 991.777> 154 71<581.875 993>
LayerCount: 2
Fore
SplineSet
72 5 m 1
 91.0312333037 48.7718365984 98.7083321225 117.240373159 105.5 181.5 c 128
 132.565589468 437.582115736 140.245394737 724.785197381 154 993 c 1
 225 993 l 1
 257.835463135 697.480831787 236.655810781 351.720946095 291.5 77.5 c 128
 297.833333333 45.8333333333 305 21.6666666667 313 5 c 1
 313 0 l 1
 72 0 l 1
 72 5 l 1
194 1145 m 256
 143.698065989 1145 104 1184.69934964 104 1235 c 256
 104 1285.27588168 143.699349637 1326 194 1326 c 256
 244.275881678 1326 285 1285.27450634 285 1235 c 256
 285 1184.69806599 244.274506341 1145 194 1145 c 256
EndSplineSet
EndChar

StartChar: brokenbar
Encoding: 166 166 118
Width: 370
Flags: HW
VStem: 121 128<-128 512 768 1408>
LayerCount: 2
Fore
SplineSet
121 1408 m 1
 249 1408 l 1
 249 768 l 1
 121 768 l 1
 121 1408 l 1
121 512 m 1
 249 512 l 1
 249 -128 l 1
 121 -128 l 1
 121 512 l 1
EndSplineSet
EndChar

StartChar: fi
Encoding: 64257 64257 119
Width: 1010
Flags: HW
HStem: 0 5<28 34.2637 382.729 389 624 630.262 978.73 985> 901 77<44.2202 139 281 730.117> 918 60<44 138.127> 1145 181<726.815 853.669> 1279 109<317.952 419.329>
VStem: 140 138<51.8276 901 978 1263.09> 700 181<1171.82 1298.67> 723 150.5<47.5698 515.815> 738.5 134.5<56.2378 893.622>
LayerCount: 2
Fore
SplineSet
885 992 m 1
 869.420135856 837.617709849 873 655.39962036 873 480 c 0
 873 424 873 424 873 386 c 128
 873 297.794832479 875.835799332 235.298809354 882 149 c 0
 887.686087927 72.2378129906 920.733411008 26.4221963308 985 5 c 1
 985 0 l 1
 624 0 l 1
 624 5 l 1
 688.120273362 26.3734244541 717.258174822 76.9208163908 723 153 c 1
 728.481348311 279.071011163 739 384.705648201 739 517 c 0
 739 643.830623687 743.253063838 749.806780072 731 856 c 128
 729 873.333333333 726.333333333 886 723 894 c 1
 633.027747828 902.997225217 552.646364382 901 441 901 c 2
 280 901 l 1
 278.3082 747.046200015 278 600.635107312 278 427 c 0
 278 393 278 393 278 363.5 c 128
 278 288.890566774 281.31848988 223.904161912 286 149 c 0
 290.288574286 71.8056628491 325.280347077 26.2398843077 389 5 c 1
 389 0 l 1
 28 0 l 1
 28 5 l 1
 91.5824612812 26.1941537604 122.667748637 76.4635592592 127 153 c 0
 136.174565237 307.132695974 143 440.830210411 143 597 c 0
 143 704.214982206 139 800.795006666 139 907 c 1
 102.382564062 909.615531138 71.5575096797 910.126425806 44 918 c 1
 44 978 l 1
 139 978 l 1
 139 1120 157.166666667 1223.83333333 193.5 1289.5 c 128
 229.833333333 1355.16666667 280.666666667 1388 346 1388 c 0
 437.134731277 1388 503.663256717 1349.92543766 570 1304 c 1
 443 1089 l 1
 440 1091 l 1
 444 1101.66666667 446 1116 446 1134 c 0
 446 1193.87911953 423.736985349 1245.04760336 388 1268.5 c 128
 377.333333333 1275.5 366.666666667 1279 356 1279 c 0
 300.107676399 1279 293.251615703 1198.49518906 287 1136.5 c 128
 283 1096.83333333 281 1044 281 978 c 1
 442 978 l 2
 608.654302373 978 744.76418254 978.644207861 885 992 c 1
790 1145 m 256
 739.698065989 1145 700 1184.69934964 700 1235 c 256
 700 1285.27588168 739.699349637 1326 790 1326 c 256
 840.275881678 1326 881 1285.27450634 881 1235 c 256
 881 1184.69806599 840.274506341 1145 790 1145 c 256
EndSplineSet
EndChar

StartChar: circumflex
Encoding: 710 710 121
Width: 486
Flags: HW
HStem: 1088 314
VStem: 27 432
LayerCount: 2
Fore
SplineSet
309 1402 m 1
 459 1088 l 1
 309 1088 l 1
 243 1336 l 1
 177 1088 l 1
 27 1088 l 1
 177 1402 l 1
 309 1402 l 1
EndSplineSet
EndChar

StartChar: paragraph
Encoding: 182 182 123
Width: 988
Flags: HW
HStem: 0 5<307 313.27 925.738 932> 1199 128<568.192 674> 1322 5<924.944 932>
VStem: 38 515<780.406 1139.4> 414 143<42.875 627> 674 145<53.8809 1199.82>
LayerCount: 2
Fore
SplineSet
413 1327 m 2
 932 1327 l 1
 932 1322 l 1
 873.91384399 1304.32160469 839.047975127 1260.2509662 832 1194 c 1
 818.041287784 1034.10929643 817 888.890390884 817 721 c 0
 817 526.521266159 823.732066237 340.675658698 833 153 c 1
 838.739916839 76.9461018876 867.898837505 26.3670541651 932 5 c 1
 932 0 l 1
 641 0 l 1
 641 5 l 1
 667.427603969 33.0793292175 671.840049938 90.6813483244 674 149 c 1
 676.839202299 347.744160927 678.18745653 557.30941363 681 757 c 1
 674 1201 l 1
 642 1199.66666667 617.333333333 1199 600 1199 c 128
 582.666666667 1199 572 1197.33333333 568 1194 c 1
 552.810507098 1034.51032453 553 889.478839742 553 721 c 0
 553 526.521266159 559.732066237 340.675658698 569 153 c 1
 570.022526347 98.8061036332 570.978018586 37.1526315597 588 5 c 1
 588 0 l 1
 307 0 l 1
 307 5 l 1
 371.285050175 26.4283500582 404.312354576 72.2167867806 410 149 c 1
 412.839685415 305.182697844 414.193730505 469.848908262 417 627 c 1
 211.080140973 616.162112683 77.3527572514 711.803480046 45 880.5 c 128
 40.3333333333 904.833333333 38 927 38 947 c 0
 38 1133.13321121 132.771387365 1251.91595124 269 1302 c 128
 314.333333333 1318.66666667 362.333333333 1327 413 1327 c 2
EndSplineSet
EndChar

StartChar: mu
Encoding: 181 181 124
Width: 869
Flags: HW
HStem: -319 5<38 44.2695 392.729 399> -29 107<340.171 506.239> 51 5<866.565 875> 966 20G<279.5 329 715.5 765>
VStem: 156 142<-199.831 -8 118.062 829.633> 589 143<179.016 829.711>
LayerCount: 2
Fore
SplineSet
366 -29 m 0
 333.726106448 -29 309.99955072 -20.2219726221 288 -8 c 1
 293.048210575 -91.2954744933 285.835585624 -204.387709195 323.5 -260.5 c 128
 339.833333333 -284.833333333 365 -302.666666667 399 -314 c 1
 399 -319 l 1
 38 -319 l 1
 38 -314 l 1
 89.4451940559 -295.842872686 101.723930979 -250.290364279 114 -185.5 c 128
 131.769922456 -91.7142981515 136.611837688 10.8838789328 142.5 134 c 128
 147.876782674 246.423637725 156 456.677539416 156 587 c 0
 156 699.879772421 158.274100481 815.788348 85 848.5 c 128
 66.3333333333 856.833333333 42 861 12 861 c 1
 12 866 l 1
 333 986 l 1
 292.173183185 919.656422675 299.418527052 800.3861921 298.5 692 c 128
 298.166666667 652.666666667 298 606.666666667 298 554 c 0
 298 429.682084101 296.846731982 308.626595343 313.5 209.5 c 128
 324.169579917 145.990595734 343.51249007 78 407 78 c 0
 508.870780197 78 552.744453872 174.935224467 574 263.5 c 128
 584 305.166666667 589 354.333333333 589 411 c 0
 589 501.666666667 588.5 576.166666667 587.5 634.5 c 128
 585.203979232 768.434544812 577.657519155 861 448 861 c 1
 448 866 l 1
 769 986 l 1
 738.918980334 929.598088127 737.040598312 850.420940928 734.5 761.5 c 128
 731.875967042 669.658846469 732 578.462786064 732 472 c 0
 732 387.333333333 732.666666667 318.166666667 734 264.5 c 128
 736.126583625 178.905009093 742.882714449 102.536293005 791 73.5 c 128
 810.333333333 61.8333333333 838.333333333 56 875 56 c 1
 875 51 l 1
 604 -29 l 1
 614.895422842 7.77205209087 614 58.557935785 614 107 c 1
 563.885517538 29.044138392 487.593814022 -29 366 -29 c 0
EndSplineSet
EndChar

StartChar: numbersign
Encoding: 35 35 125
Width: 847
Flags: HW
HStem: 0 21G<50 181.848 394 525.836> 395 105<47 126 274 470 619 711.28> 904 105<142 224 372 568 717 805.778> 1307 20G<302.139 434 646.164 778>
LayerCount: 2
Fore
SplineSet
712 386 m 1
 675.116424375 389.207267446 639.357954438 389.823390155 597 391 c 1
 522 0 l 1
 394 0 l 1
 470 394 l 1
 455 394 455 394 437 394 c 128
 404.511722168 394 372.722903578 395 335.5 395 c 128
 302 395 302 395 254 395 c 1
 178 0 l 1
 50 0 l 1
 126 395 l 1
 47 395 l 1
 47 508 l 1
 71.6666666667 506 105 504 147 502 c 1
 224 904 l 1
 142 904 l 1
 142 1017 l 1
 174.956984511 1013.53084374 206.603945475 1013.25859144 245 1011 c 1
 306 1327 l 1
 434 1327 l 1
 372 1009 l 1
 589 1009 l 1
 650 1327 l 1
 778 1327 l 1
 717 1012 l 1
 751 1012.66666667 781 1014.66666667 807 1018 c 1
 807 895 l 1
 771.541418009 898.223507454 735.903641559 898.831324527 695 900 c 1
 619 502 l 1
 651.814094243 504.430673648 681.754269447 505.975426945 712 509 c 1
 712 386 l 1
534 903 m 128
 501.171037645 903 470.831625831 904 433 904 c 128
 399 904 399 904 352 904 c 1
 274 500 l 1
 490 500 l 1
 568 903 l 1
 552 903 552 903 534 903 c 128
EndSplineSet
EndChar

StartChar: percent
Encoding: 37 37 126
Width: 1370
Flags: HW
HStem: -28 87<956.59 1122.5> 552 87<249.59 415.497> 681 87<956.59 1122.5> 1261 87<249.59 415.497>
VStem: 40 151<722.461 1179.64> 470 151<722.461 1179.64> 747 151<142.461 599.642> 1177 151<142.461 599.642>
LayerCount: 2
Fore
SplineSet
191 951 m 0
 191 848.333333333 203.333333333 770.666666667 228 718 c 128
 252.666666667 665.333333333 288 639 334 639 c 0
 379.333333333 639 413.333333333 665.333333333 436 718 c 128
 458.666666667 770.666666667 470 848.333333333 470 951 c 0
 470 1053 458.666666667 1130.16666667 436 1182.5 c 128
 413.333333333 1234.83333333 379.333333333 1261 334 1261 c 0
 288 1261 252.666666667 1234.83333333 228 1182.5 c 128
 203.333333333 1130.16666667 191 1053 191 951 c 0
40 951 m 256
 40 1129.2064872 100.447637031 1264.62875818 218.5 1322 c 128
 254.166666667 1339.33333333 292.666666667 1348 334 1348 c 0
 482.50474159 1348 562.191670267 1240.41406223 598.5 1121 c 128
 613.5 1071.66666667 621 1015 621 951 c 256
 621 773.667074363 561.421207292 637.012609395 445.5 578.5 c 128
 410.5 560.833333333 373.333333333 552 334 552 c 0
 182.432793719 552 99.2517265904 658.810949734 62.5 780.5 c 128
 47.5 830.166666667 40 887 40 951 c 256
1038 1151 m 1
 1169 1152 l 1
 385 224 l 1
 254 223 l 1
 1038 1151 l 1
898 371 m 0
 898 268.333333333 910.333333333 190.666666667 935 138 c 128
 959.666666667 85.3333333333 995 59 1041 59 c 0
 1086.33333333 59 1120.33333333 85.3333333333 1143 138 c 128
 1165.66666667 190.666666667 1177 268.333333333 1177 371 c 0
 1177 473 1165.66666667 550.166666667 1143 602.5 c 128
 1120.33333333 654.833333333 1086.33333333 681 1041 681 c 0
 995 681 959.666666667 654.833333333 935 602.5 c 128
 910.333333333 550.166666667 898 473 898 371 c 0
747 371 m 256
 747 549.206487196 807.447637031 684.628758183 925.5 742 c 128
 961.166666667 759.333333333 999.666666667 768 1041 768 c 0
 1189.50474159 768 1269.19167027 660.414062233 1305.5 541 c 128
 1320.5 491.666666667 1328 435 1328 371 c 256
 1328 193.667074363 1268.42120729 57.0126093952 1152.5 -1.5 c 128
 1117.5 -19.1666666667 1080.33333333 -28 1041 -28 c 0
 889.432793719 -28 806.25172659 78.8109497339 769.5 200.5 c 128
 754.5 250.166666667 747 307 747 371 c 256
EndSplineSet
EndChar

StartChar: ordmasculine
Encoding: 186 186 127
Width: 683
Flags: HW
HStem: 552 87<260.59 426.497> 1261 87<260.59 426.497>
VStem: 51 151<722.461 1179.64> 481 151<722.461 1179.64>
LayerCount: 2
Fore
SplineSet
202 951 m 0
 202 848.333333333 214.333333333 770.666666667 239 718 c 128
 263.666666667 665.333333333 299 639 345 639 c 0
 390.333333333 639 424.333333333 665.333333333 447 718 c 128
 469.666666667 770.666666667 481 848.333333333 481 951 c 0
 481 1053 469.666666667 1130.16666667 447 1182.5 c 128
 424.333333333 1234.83333333 390.333333333 1261 345 1261 c 0
 299 1261 263.666666667 1234.83333333 239 1182.5 c 128
 214.333333333 1130.16666667 202 1053 202 951 c 0
51 951 m 256
 51 1129.2064872 111.447637031 1264.62875818 229.5 1322 c 128
 265.166666667 1339.33333333 303.666666667 1348 345 1348 c 0
 493.50474159 1348 573.191670267 1240.41406223 609.5 1121 c 128
 624.5 1071.66666667 632 1015 632 951 c 256
 632 773.667074363 572.421207292 637.012609395 456.5 578.5 c 128
 421.5 560.833333333 384.333333333 552 345 552 c 0
 193.432793719 552 110.25172659 658.810949734 73.5 780.5 c 128
 58.5 830.166666667 51 887 51 951 c 256
EndSplineSet
EndChar

StartChar: perthousand
Encoding: 8240 8240 128
Width: 2048
Flags: HW
HStem: -28 87<970.59 1136.5 1637.59 1803.5> 552 87<250.59 416.497> 681 87<970.59 1136.5 1637.59 1803.5> 1261 87<250.59 416.497>
VStem: 41 151<722.461 1179.64> 471 151<722.461 1179.64> 761 151<142.461 599.642> 1191 151<142.461 599.642> 1428 151<142.461 599.642> 1858 151<142.461 599.642>
LayerCount: 2
Fore
SplineSet
192 951 m 0
 192 848.333333333 204.333333333 770.666666667 229 718 c 128
 253.666666667 665.333333333 289 639 335 639 c 0
 380.333333333 639 414.333333333 665.333333333 437 718 c 128
 459.666666667 770.666666667 471 848.333333333 471 951 c 0
 471 1053 459.666666667 1130.16666667 437 1182.5 c 128
 414.333333333 1234.83333333 380.333333333 1261 335 1261 c 0
 289 1261 253.666666667 1234.83333333 229 1182.5 c 128
 204.333333333 1130.16666667 192 1053 192 951 c 0
41 951 m 256
 41 1129.2064872 101.447637031 1264.62875818 219.5 1322 c 128
 255.166666667 1339.33333333 293.666666667 1348 335 1348 c 0
 483.50474159 1348 563.191670267 1240.41406223 599.5 1121 c 128
 614.5 1071.66666667 622 1015 622 951 c 256
 622 773.667074363 562.421207292 637.012609395 446.5 578.5 c 128
 411.5 560.833333333 374.333333333 552 335 552 c 0
 183.432793719 552 100.25172659 658.810949734 63.5 780.5 c 128
 48.5 830.166666667 41 887 41 951 c 256
1039 1151 m 1
 1170 1152 l 1
 386 224 l 1
 255 223 l 1
 1039 1151 l 1
912 371 m 0
 912 268.333333333 924.333333333 190.666666667 949 138 c 128
 973.666666667 85.3333333333 1009 59 1055 59 c 0
 1100.33333333 59 1134.33333333 85.3333333333 1157 138 c 128
 1179.66666667 190.666666667 1191 268.333333333 1191 371 c 0
 1191 473 1179.66666667 550.166666667 1157 602.5 c 128
 1134.33333333 654.833333333 1100.33333333 681 1055 681 c 0
 1009 681 973.666666667 654.833333333 949 602.5 c 128
 924.333333333 550.166666667 912 473 912 371 c 0
761 371 m 256
 761 549.206487196 821.447637031 684.628758183 939.5 742 c 128
 975.166666667 759.333333333 1013.66666667 768 1055 768 c 0
 1203.50474159 768 1283.19167027 660.414062233 1319.5 541 c 128
 1334.5 491.666666667 1342 435 1342 371 c 256
 1342 193.667074363 1282.42120729 57.0126093952 1166.5 -1.5 c 128
 1131.5 -19.1666666667 1094.33333333 -28 1055 -28 c 0
 903.432793719 -28 820.25172659 78.8109497339 783.5 200.5 c 128
 768.5 250.166666667 761 307 761 371 c 256
1579 371 m 0
 1579 268.333333333 1591.33333333 190.666666667 1616 138 c 128
 1640.66666667 85.3333333333 1676 59 1722 59 c 0
 1767.33333333 59 1801.33333333 85.3333333333 1824 138 c 128
 1846.66666667 190.666666667 1858 268.333333333 1858 371 c 0
 1858 473 1846.66666667 550.166666667 1824 602.5 c 128
 1801.33333333 654.833333333 1767.33333333 681 1722 681 c 0
 1676 681 1640.66666667 654.833333333 1616 602.5 c 128
 1591.33333333 550.166666667 1579 473 1579 371 c 0
1428 371 m 256
 1428 549.206487196 1488.44763703 684.628758183 1606.5 742 c 128
 1642.16666667 759.333333333 1680.66666667 768 1722 768 c 0
 1870.50474159 768 1950.19167027 660.414062233 1986.5 541 c 128
 2001.5 491.666666667 2009 435 2009 371 c 256
 2009 193.667074363 1949.42120729 57.0126093952 1833.5 -1.5 c 128
 1798.5 -19.1666666667 1761.33333333 -28 1722 -28 c 0
 1570.43279372 -28 1487.25172659 78.8109497339 1450.5 200.5 c 128
 1435.5 250.166666667 1428 307 1428 371 c 256
EndSplineSet
EndChar

StartChar: twosuperior
Encoding: 178 178 129
Width: 538
Flags: HW
HStem: 383 77<156 401.625> 1249 77<189.969 340.921>
VStem: 360 121<974.007 1232.77> 434 4<552.323 560>
LayerCount: 2
Fore
SplineSet
276 1326 m 0
 390.125618892 1326 481 1269.17845825 481 1155 c 0
 481 1077.05734825 454.053028552 1007.76302624 427 945 c 128
 352.810314296 772.879929168 246.6450877 617.29588748 156 460 c 1
 303 460 l 2
 375.747742704 460 421.524701093 500.74233019 434 560 c 1
 438 560 l 1
 437 385 l 1
 395.622627711 385 343.161913213 384 296 384 c 0
 246.146721169 384 188.670167085 383 141 383 c 2
 66 383 l 1
 34 474 l 1
 119.479168668 670.602087936 273.512050479 829.511078543 341.5 1044.5 c 128
 353.833333333 1083.5 360 1121 360 1157 c 0
 360 1212.36502136 327.93203327 1249 277 1249 c 0
 208.684317365 1249 160 1200.53683711 160 1131 c 0
 160 1111.41688421 162.449880586 1093.0629478 167 1076 c 1
 164 1074 l 1
 64 1237 l 1
 111.511997642 1287.90571176 185.983971353 1326 276 1326 c 0
EndSplineSet
EndChar

StartChar: threesuperior
Encoding: 179 179 130
Width: 552
Flags: HW
HStem: 384 73<183.242 297.198> 878 74<178 280.992> 1274 74<176.392 295.042>
VStem: 51 113<488.458 615 1138 1252.86> 323 135<986.138 1247.48> 351 128<505.053 821.559>
LayerCount: 2
Fore
SplineSet
351 674 m 0
 351 790.750613654 295.888453645 878 178 878 c 1
 178 952 l 1
 287.885208563 954.61631449 323 1020.64802834 323 1133 c 0
 323 1208.21284235 294.261688246 1274 230 1274 c 0
 187.997984607 1274 166 1246.62475507 166 1208 c 0
 166 1173.52290195 182.4596838 1143.87181194 204 1128 c 1
 204 1124 l 1
 51 1138 l 1
 51 1239.58043634 101.747096985 1308.56878566 175 1335.5 c 128
 197.666666667 1343.83333333 219.666666667 1348 241 1348 c 0
 373.922667333 1348 458 1264.64978705 458 1131 c 0
 458 1019.87707656 400.739954561 951.861309099 326 912 c 1
 410.951215437 868.908803764 479 795.452125796 479 672 c 0
 479 504.322931476 398.908216432 384 234 384 c 0
 145.473821385 384 93.2641924741 443.576219841 67.5 511.5 c 128
 56.5 540.5 51 575 51 615 c 1
 204 657 l 1
 204 653 l 1
 185.172775124 637.495226573 164 602.181553256 164 570 c 0
 164 513.99710068 186.039774341 457 236 457 c 0
 318.789616434 457 351 589.043047663 351 674 c 0
EndSplineSet
EndChar

StartChar: onesuperior
Encoding: 185 185 131
Width: 406
Flags: HW
HStem: 384 4<73 78.5029 345.485 351>
VStem: 155 115<408.66 1237.01>
LayerCount: 2
Fore
SplineSet
103 1253 m 0
 78.538737642 1253 52.0979835633 1238 29 1238 c 256
 26.3333333333 1238 25 1238.66666667 25 1240 c 0
 25 1249.14033696 59.4410828062 1262.10481861 73 1268 c 2
 279 1347 l 1
 272.285856606 1214.95517992 270 1073.03760693 270 932 c 128
 270 856 270 856 270 780 c 0
 270 680.463690951 270.462930432 585.133801785 277 491 c 0
 279.838913605 437.060641504 305.850239595 401.795760124 351 388 c 1
 351 384 l 1
 73 384 l 1
 73 388 l 1
 118.397898664 401.871580147 140.152211936 438.892026787 143 493 c 0
 150.390322512 635.879568571 155 757.451168141 155 899 c 0
 155 1010.50432128 159.112366062 1096.55674612 149.5 1182 c 128
 144.976288727 1222.21076687 139.139218267 1253 103 1253 c 0
EndSplineSet
EndChar

StartChar: foursuperior
Encoding: 8308 8308 135
Width: 609
Flags: HW
HStem: 384 4<253 258.506 506.638 512> 609 76<109 329 434 528.935>
VStem: 335 96<409.445 609 685 1137> 563 4<778.323 786>
LayerCount: 2
Fore
SplineSet
441 1347 m 1
 429.469197727 1198.54092073 431 1037.22351683 431 871 c 0
 431 823 431 823 431 777.5 c 128
 431 747.166666667 431.333333333 716.333333333 432 685 c 1
 503.856921513 685 550.62053921 727.197561246 563 786 c 1
 567 786 l 1
 567 609 l 1
 434 609 l 1
 435.359947564 565.481677959 435.278143096 533.188782016 438 491 c 1
 443.57833369 438.005829948 467.174952629 403.36858767 512 388 c 1
 512 384 l 1
 253 384 l 1
 253 388 l 1
 332.312855832 414.437618611 325.522126756 508.141675933 329 609 c 1
 38 609 l 1
 6 699 l 1
 60.0306451603 765.037455196 106.048316745 857.999558958 148.5 940.5 c 128
 209.585250581 1059.21284547 260.665155114 1167.8461467 320 1298 c 1
 441 1347 l 1
109 685 m 1
 332 685 l 1
 334 759.666666667 335 830.333333333 335 897 c 2
 335 1137 l 1
 263.88471331 985.493519661 189.512694259 828.413236649 109 685 c 1
EndSplineSet
EndChar

StartChar: germandbls
Encoding: 223 223 136
Width: 750
Flags: HW
HStem: -170 110<309 416.096> 0 21G<33 321> 776 113<338 411.328> 1216 110<313.347 413.447>
VStem: 137 148.5<50.4663 1202.37> 441 149<923.638 1196.91> 541 149<101.443 602.822>
LayerCount: 2
Fore
SplineSet
282 299.5 m 128
 282 185.839578714 288.721562745 86.645458939 321 5 c 1
 321 0 l 1
 33 0 l 1
 33 5 l 1
 92.4154751077 26.9578929746 116.439874627 79.32833881 122 153 c 0
 136.912031607 346.856410891 141 533.149539221 141 743 c 0
 141 833.484366675 137 944.435673927 137 1035 c 0
 137 1162.89754726 178.193830417 1265.09691521 262 1307 c 128
 287.333333333 1319.66666667 315 1326 345 1326 c 0
 464.562125411 1326 537.82757955 1250.81522639 570.5 1159.5 c 128
 583.5 1123.16666667 590 1081.66666667 590 1035 c 0
 590 935.598796588 508.622434116 880.203386343 429 849 c 1
 585.185390859 760.135898304 690 603.340387538 690 359 c 0
 690 128.511938475 605.628283325 -55.3144382399 457 -134 c 128
 411.666666667 -158 364.333333333 -170 315 -170 c 2
 309 -170 l 1
 309 -60 l 1
 444.928326094 -51.0866671414 505.474834489 84.8788846498 528 210.5 c 128
 536.666666667 258.833333333 541 307.333333333 541 356 c 256
 541 509.754810214 502.776359754 655.713424986 426 733.5 c 128
 400.666666667 759.166666667 371.333333333 773.333333333 338 776 c 1
 338 889 l 1
 407.848889519 896.483809591 441 961.478040153 441 1038 c 0
 441 1102.79168563 426.115374224 1166.38102033 394 1199.5 c 128
 383.333333333 1210.5 370.666666667 1216 356 1216 c 0
 317.663553628 1216 307.509313052 1161.21279273 299.5 1114 c 128
 280.584688565 1002.4992168 281 881.821167763 281 731 c 2
 282 424 l 2
 282 357 282 357 282 299.5 c 128
EndSplineSet
EndChar

StartChar: Thorn
Encoding: 222 222 137
Width: 718
Flags: HW
HStem: 0 5<43 49.2617 397.109 404> 306 116<294 424.516> 1043 107<308 468.58> 1322 5<52 58.2617 406.004 413>
VStem: 142 154.5<44.9902 307 422 447.682> 158 134<56.311 307 422 1042.31> 513 160<536.202 973.893>
LayerCount: 2
Fore
SplineSet
294 307 m 1
 299.832102997 164.113476573 291.426671927 42.5244426911 404 5 c 1
 404 0 l 1
 43 0 l 1
 43 5 l 1
 107.120273362 26.3734244541 136.258174822 76.9208163908 142 153 c 1
 150.638326955 351.681519965 158 525.154402689 158 721 c 0
 158 879.209633852 161.18010768 1020.02587133 151 1174 c 0
 145.260083161 1250.05389811 116.101162495 1300.63294583 52 1322 c 1
 52 1327 l 1
 413 1327 l 1
 413 1322 l 1
 341.450577621 1298.15019254 308 1241.45929687 308 1150 c 1
 438 1150 l 2
 515.21432026 1150 567.940546637 1106.37737174 603.5 1055.5 c 128
 648.480884687 991.142734217 673 898.716368828 673 787 c 0
 673 571.896761321 596.065156706 396.481720426 445 329.5 c 128
 409.666666667 313.833333333 368.666666667 306 322 306 c 0
 315 306 315 306 308 306 c 128
 303.333333333 306 298.666666667 306.333333333 294 307 c 1
301 1000 m 1
 295.775571996 898.994391918 292 789.522094939 292 684 c 0
 292 595.272220607 292.671284964 509.695192362 294 422 c 1
 481.101020711 422 513 595.152092473 513 787 c 0
 513 909.904031007 491.376855506 1043 387 1043 c 0
 359.87430125 1043 326.050460079 1042.50504601 301 1040 c 1
 301 1000 l 1
EndSplineSet
EndChar

StartChar: oslash
Encoding: 248 248 138
Width: 745
Flags: HW
HStem: -29 106<293.67 455.33> -12 21G<53.8205 94.6207> 885 107<294.579 454.598>
VStem: 73 150<325 769.641> 521 150<194.95 622.713>
LayerCount: 2
Fore
SplineSet
126 171 m 1
 90.0473140688 255.350532377 73 359.424633952 73 482 c 0
 73 695.063706564 126.931075001 879.885291137 256 958.5 c 128
 292.666666667 980.833333333 332.333333333 992 375 992 c 0
 478.724959724 992 545.379686656 924.473705709 589 850 c 1
 661 955 l 1
 714 916 l 1
 622 781 l 1
 653.912758112 697.749326665 671 599.463324097 671 482 c 0
 671 269.381935892 617.136357623 85.0488177624 490 5 c 128
 454 -17.6666666667 415.666666667 -29 375 -29 c 0
 271.25083706 -29 205.545271589 32.4288589312 160 104 c 1
 81 -12 l 1
 28 27 l 1
 126 171 l 1
223 482 m 0
 223 424.290034434 223.956919631 374.301562584 231 325 c 1
 501 721 l 1
 479 830.333333333 437 885 375 885 c 0
 327 885 289.666666667 851.333333333 263 784 c 128
 236.333333333 716.666666667 223 616 223 482 c 0
521 482 m 0
 521 533.333333333 519 580.666666667 515 624 c 1
 247 231 l 1
 272.333333333 128.333333333 315 77 375 77 c 0
 423.666666667 77 460.166666667 111 484.5 179 c 128
 508.833333333 247 521 348 521 482 c 0
EndSplineSet
EndChar

StartChar: Oslash
Encoding: 216 216 139
Width: 960
Flags: HW
HStem: -18 118<366.706 576.404> 1200 117<371.368 574.983>
VStem: 78 156<402.834 978.811> 717 159<327.24 869.872>
LayerCount: 2
Fore
SplineSet
816 1027 m 1
 855.824582698 922.632128101 876 795.501065974 876 649 c 0
 876 449.101799407 832.223716996 279.186175667 756 160 c 128
 698.181882844 69.5934895374 610.497837549 -18 481 -18 c 0
 330.354418712 -18 234.845906674 79.1892605928 175 188 c 1
 85 70 l 1
 32 109 l 1
 144 255 l 1
 100.277825612 362.93911802 78 495.311811041 78 649 c 0
 78 930.598560889 151.267425857 1168.82857756 322.5 1272.5 c 128
 371.5 1302.16666667 424.333333333 1317 481 1317 c 0
 633.080294589 1317 727.808005466 1211.3259528 786 1096 c 1
 881 1221 l 1
 934 1182 l 1
 816 1027 l 1
234 638 m 0
 234 553.333333333 241 474 255 400 c 1
 679 956 l 1
 652.777499972 1048.65283343 613.188810241 1140.26879424 539 1182 c 128
 517.666666667 1194 494.666666667 1200 470 1200 c 0
 374.999006857 1200 324.166946382 1104.43962547 294 1025 c 128
 254.954705873 922.180725466 234 779.458005749 234 638 c 0
470 100 m 0
 569.176944867 100 623.564917786 188.400531497 655.5 268.5 c 128
 695.195435131 368.063960246 717 507.151764472 717 646 c 0
 717 724 710.333333333 799.333333333 697 872 c 1
 274 318 l 1
 298.616459064 233.60071178 336.652765078 153.340873178 405.5 116 c 128
 425.166666667 105.333333333 446.666666667 100 470 100 c 0
EndSplineSet
EndChar

StartChar: multiply
Encoding: 215 215 140
Width: 657
Flags: HW
HStem: 279 521
VStem: 68 522
LayerCount: 2
Fore
SplineSet
328 463 m 1
 261.636824421 395.615852489 210.06690494 345.163346847 169 279 c 1
 69 379 l 1
 132.614461864 425.065644798 185.305497029 473.427974437 254 539 c 1
 213.333333333 579.666666667 178.166666667 613.333333333 148.5 640 c 128
 118.833333333 666.666666667 92 686.666666667 68 700 c 1
 168 800 l 1
 212.393602237 732.352606116 260.669686206 682.4343861 328 613 c 1
 369.333333333 654.333333333 403.333333333 689.833333333 430 719.5 c 128
 456.666666667 749.166666667 476.666666667 776 490 800 c 1
 590 700 l 1
 523.465035662 652.781638211 473.63338469 606.524925445 403 538 c 1
 471.365155742 471.675595176 522.447198437 420.308635453 589 379 c 1
 489 279 l 1
 441.428325972 341.708115764 394.017037484 394.887183548 328 463 c 1
EndSplineSet
EndChar

StartChar: hungarumlaut
Encoding: 733 733 141
Width: 586
Flags: HW
HStem: 1023 415
VStem: 51 83<1039.55 1164.16>
LayerCount: 2
Fore
SplineSet
279 1438 m 1
 223.77226401 1308.50048113 168.957077468 1171.56757924 134 1023 c 1
 51 1043 l 1
 59.7240208417 1177.34992096 67.0616989578 1310.62921015 76 1438 c 1
 279 1438 l 1
567 1438 m 1
 484.723947268 1307.88903289 402.865495815 1170.02845718 338 1023 c 1
 259 1043 l 1
 293.787836657 1176.93317113 330.340817093 1310.09510495 364 1438 c 1
 567 1438 l 1
EndSplineSet
EndChar

StartChar: breve
Encoding: 728 728 143
Width: 530
Flags: HW
HStem: 1072 115<164.555 382.756>
VStem: 39 88<1218.85 1279> 402 89<1210.89 1279>
LayerCount: 2
Fore
SplineSet
265 1187 m 1
 334.184270807 1189.03483149 398.381413495 1214.86544292 402 1280 c 1
 491 1279 l 1
 486.069671671 1153.27662762 393.323154819 1072 265 1072 c 256
 166.308151621 1072 95.7656320091 1122.57615838 61 1189.5 c 128
 47.6666666667 1215.16666667 40.3333333333 1245 39 1279 c 1
 127 1279 l 1
 132.252606315 1219.47046176 193.738631287 1191.19184522 265 1187 c 1
EndSplineSet
EndChar

StartChar: caron
Encoding: 711 711 144
Width: 486
Flags: HW
HStem: 1088 314
VStem: 27 432
LayerCount: 2
Fore
SplineSet
177 1088 m 1
 27 1402 l 1
 177 1402 l 1
 243 1154 l 1
 309 1402 l 1
 459 1402 l 1
 309 1088 l 1
 177 1088 l 1
EndSplineSet
EndChar

StartChar: dieresis
Encoding: 168 168 145
Width: 644
Flags: HW
HStem: 1098 202<77.9094 232.155 423.909 578.155>
VStem: 48 202<1127.91 1282.15> 394 202<1127.91 1282.15>
LayerCount: 2
Fore
SplineSet
494 1098 m 0
 438.416837321 1098 394 1142.41830435 394 1198 c 0
 394 1255.42025046 436.491656383 1300 494 1300 c 256
 552.094265188 1300 596 1256.0909573 596 1198 c 256
 596 1140.48744272 551.416780338 1098 494 1098 c 0
148 1098 m 0
 92.416837321 1098 48 1142.41830435 48 1198 c 0
 48 1255.42025046 90.4916563826 1300 148 1300 c 256
 206.094265188 1300 250 1256.0909573 250 1198 c 256
 250 1140.48744272 205.416780338 1098 148 1098 c 0
EndSplineSet
EndChar

StartChar: Lslash
Encoding: 321 321 194
Width: 751
Flags: HW
HStem: 0 5<39 45.9961> 767 130<50.5648 162 299 464.153> 1322 5<39 45.2754 412.996 420>
VStem: 164 134<97.8262 767 897 1260.2> 467 129<135.308 544.025>
LayerCount: 2
Fore
SplineSet
310 97 m 1
 376.437797486 101.152362343 450.616118728 107.248633651 514 117 c 1
 503.40686288 226.46241691 478.374465001 341.098966239 467 452 c 0
 450.866452785 611.868786038 508.097774073 713.119290993 615 769 c 1
 755 573 l 1
 752 569 l 1
 729.7272023 577.90911908 708.349456269 580 681 580 c 1
 580.939237042 570.237974346 591.336511448 448.797644802 604.5 347 c 128
 618.970518773 235.094654823 644 122.18302668 644 0 c 1
 39 0 l 1
 39 5 l 1
 110.816413624 28.9388045414 142.267926546 87.0188981844 148 173 c 0
 160.2438778 362.780105899 164 530.727357646 164 721 c 2
 164 767 l 1
 116.517923458 765.869474368 77.9467743736 764.439279043 50 748 c 1
 50 921 l 1
 81.4784643544 908.758374973 118.593031326 902.564995984 162 897 c 1
 159.22049363 991.50321657 155.450384111 1081.1144688 149 1174 c 1
 137.925084737 1248.75567803 104.902395507 1300.03253483 39 1322 c 1
 39 1327 l 1
 420 1327 l 1
 420 1322 l 1
 347.202783543 1297.73426118 312.615647931 1245.44645492 307 1157 c 0
 302.352049034 1076.43551659 300.173234935 983.339090026 299 893 c 1
 369.695065217 893 425.354405795 894.101248522 465 922 c 1
 465 739 l 1
 420.4929831 758.583087436 368.076267509 764.775356587 298 767 c 1
 298 684 l 2
 298 485.333333333 302 289.666666667 310 97 c 1
EndSplineSet
EndChar

StartChar: lslash
Encoding: 322 322 195
Width: 502
Flags: HW
HStem: 0 5<67 73.2617 421.73 428> 735 127<43.6593 182 316 457.247> 1262 5<37 46.0934>
VStem: 182 134<56.2378 733 862 1235.38>
LayerCount: 2
Fore
SplineSet
316 860 m 1
 375.697762065 861.243703376 423.53227489 864.58536138 458 889 c 1
 458 706 l 1
 419.938977623 723.300464717 374.442985956 729.628289272 316 733 c 1
 316 684 l 2
 316 499.714218128 314.463444852 324.170229336 325 149 c 1
 330.686087927 72.2378129906 363.733411008 26.4221963308 428 5 c 1
 428 0 l 1
 67 0 l 1
 67 5 l 1
 131.120273362 26.3734244541 160.258174822 76.9208163908 166 153 c 1
 174.638326955 351.681519965 182 525.154402689 182 721 c 2
 182 735 l 1
 123.6208164 733.89850597 77.4602948925 733.953162191 43 715 c 1
 43 888 l 1
 81.6658985501 873.270133886 125.719833306 866.414130721 182 862 c 1
 182 965.02361175 182.207185752 1049.5560468 173 1131.5 c 128
 165.588946688 1197.45837447 153.357338751 1249.58507721 93.5 1258.5 c 128
 77.8333333333 1260.83333333 59 1262 37 1262 c 1
 37 1267 l 1
 328 1347 l 1
 316.699758782 1194.44674355 316 1028.81808326 316 860 c 1
EndSplineSet
EndChar

StartChar: ordfeminine
Encoding: 170 170 198
Width: 539
Flags: HW
HStem: 630 65<187.282 286.344> 640 4<495.641 501> 1034 58<219.768 324> 1281 67<194.18 301.174>
VStem: 54 111<702.258 979.648> 324 111<717.443 1034 1087 1272.06>
LayerCount: 2
Fore
SplineSet
221 630 m 0
 109.804144864 630 54 708.795669749 54 819 c 0
 54 934.156160552 111.727366063 1024.75799483 186.5 1068 c 128
 214.166666667 1084 244.666666667 1092 278 1092 c 0
 292 1092 307.333333333 1090.33333333 324 1087 c 1
 324 1175.42114023 325.526537581 1281 244 1281 c 0
 199.375735141 1281 182 1243.444019 182 1200 c 0
 182 1168.35923032 192.174544188 1138.98710951 205 1118 c 1
 72 1194 l 1
 90.9890357328 1290.84408224 141.081157522 1348 252 1348 c 0
 389.618153887 1348 437 1244.1643206 437 1097 c 0
 437 979.220463988 435 898.559491823 435 800.5 c 128
 435 785 435 785 435 775 c 0
 435 710.053562352 450.67453967 660.012646469 501 644 c 1
 501 640 l 1
 381 640 l 1
 358.766586437 654.386326423 349.905088582 676.998627955 343 706 c 1
 319.046274911 667.674039858 284.677710374 630 221 630 c 0
233 695 m 0
 308.922754949 695 324 814.767151428 324 891 c 2
 324 1027 l 1
 310.666666667 1031.66666667 297 1034 283 1034 c 0
 196.181069029 1034 165 925.606067 165 838 c 0
 165 783.553337672 174.972652302 732.871397875 203 707 c 128
 211.666666667 699 221.666666667 695 233 695 c 0
EndSplineSet
EndChar

StartChar: yen
Encoding: 165 165 199
Width: 875
Flags: HW
HStem: 0 7<246 255.735 612.846 620> 268 106<149.004 355 518 721.903> 475 109<148.879 312 561 722.059> 1322 5<382.115 387 489 493.883>
VStem: 363 153<59.2754 267>
LayerCount: 2
Fore
SplineSet
518 373 m 1
 603.325279298 374.185073324 668.502885842 375.529973123 723 402 c 1
 723 239 l 1
 664.236589909 257.363565653 600.206107521 263.676074703 516 267 c 1
 516 223 l 2
 516 104.962883702 534.743351301 41.9770866456 620 7 c 1
 620 0 l 1
 246 0 l 1
 246 7 l 1
 330.451760708 30.9014417099 363 128.989769604 363 242.5 c 128
 363 255 363 255 363 268 c 1
 275.351882133 266.917924471 204.93389002 270.038925169 148 248 c 1
 148 401 l 1
 207.986578724 386.003355319 272.26460864 377.309415654 355 374 c 1
 349.650896368 408.769173609 343.687087616 441.564561922 337 475 c 1
 260.127581836 473.901822598 198.151845035 474.70251055 148 455 c 1
 148 608 l 1
 193.977528511 593.85306815 248.990491984 588.421719861 312 584 c 1
 289.167532352 683.388388587 261.972796863 777.445168451 238 876 c 1
 210.844835553 974.616123517 180.860322366 1072.36147341 152 1174 c 0
 131.489849656 1245.10185452 98.8736465665 1299.68792608 28 1322 c 1
 27 1327 l 1
 387 1327 l 1
 388 1322 l 1
 329.358158777 1301.23101457 299.77559531 1256.87397904 310 1178 c 0
 339.106334253 953.087417133 401.87395765 765.336685695 438 546 c 1
 474.171426821 765.612234272 536.758041132 952.039408749 566 1178 c 1
 574.749676904 1256.74709213 546.933537807 1301.12770536 488 1322 c 1
 489 1327 l 1
 849 1327 l 1
 848 1322 l 1
 777.11947353 1299.68576019 744.513289108 1245.11273557 724 1174 c 0
 695.113739149 1072.27012483 665.180113968 974.706729672 638 876 c 1
 612.663080173 775.985842789 585.202796666 681.844986108 561 581 c 1
 626.999144711 583.444412767 679.959122601 586.737477207 723 609 c 1
 723 446 l 1
 670.460259579 463.513246807 611.112214159 469.63676653 536 473 c 1
 529.292699445 439.463497224 523.365034937 407.87272709 518 373 c 1
EndSplineSet
EndChar

StartChar: thorn
Encoding: 254 254 200
Width: 784
Flags: HW
HStem: -371 21G<100 170.75> -291 5<380.262 389> -16 96<289.071 484.682> 900 91<310.311 484.969> 1243 5<-32 -23.1719> 1308 20G<186.25 257.5>
VStem: 107.5 139.5<-256.334 70 120.633 829.906 885 1221.34> 570 150<194.494 771.295>
LayerCount: 2
Fore
SplineSet
407 -16 m 0
 332.367446111 -16 273.951754577 20.5468957475 246 70 c 1
 246 -60.6033643641 227.286272299 -211.458024349 302.5 -265 c 128
 322.166666667 -279 351 -286 389 -286 c 1
 389 -291 l 1
 98 -371 l 1
 114.737210773 -220.36510304 110 -27.9452790629 110 136 c 2
 111 352 l 2
 112.321313805 455.062476752 113 563.89574048 113 668 c 0
 113 816.05929072 115.607832048 934.274687224 108 1056 c 128
 102.654607411 1141.52628142 98.2805419182 1224.14389162 29 1238 c 128
 12.3333333333 1241.33333333 -8 1243 -32 1243 c 1
 -32 1248 l 1
 259 1328 l 1
 246.393376855 1193.52935312 247 1030.82493861 247 885 c 1
 277.136182452 940.249667828 333.758162341 988.814311855 419 991 c 1
 533.103244409 992.521376592 600.7695224 922.70391239 644 842.5 c 128
 695.363186987 747.20777151 720 612.37558399 720 464 c 0
 720 258.810651494 662.25526739 89.2747163507 533.5 16.5 c 128
 495.166666667 -5.16666666667 453 -16 407 -16 c 0
402 900 m 0
 326.393829143 900 287.493416165 836.720745392 267.5 776 c 128
 258.5 748.666666667 253.333333333 716.666666667 252 680 c 0
 245.02446847 563.741141163 244 448.886530479 244 327 c 0
 244 229.997339271 257.177616712 157.105727603 298 113.5 c 128
 319.929162397 90.0756674392 345.338858084 80 381 80 c 0
 507 80 570 208 570 464 c 0
 570 590.262161044 557.959031196 703.766812632 523.5 788 c 128
 501.182926993 842.552845128 466.275160028 900 402 900 c 0
EndSplineSet
EndChar

StartChar: plusminus
Encoding: 177 177 201
Width: 618
Flags: HW
HStem: 74 125<99.8806 513.027> 486 106<71.817 254 360 545.059>
VStem: 254 106<302.848 486 592 776.059>
LayerCount: 2
Fore
SplineSet
255 592 m 1
 255 665.312498192 256.390860626 728.522848434 237 777 c 1
 379 777 l 1
 363.902585762 724.159050169 362.183163103 667.319127068 360 592 c 1
 434.181872965 592 497.101015399 590.44040616 546 610 c 1
 546 468 l 1
 491.735793322 481.566051669 436.057506416 483.826928388 360 486 c 1
 362.118047568 410.80931134 362.80323658 352.614885689 379 302 c 1
 237 302 l 1
 247.027629946 356.149201711 251.851360933 412.946271737 254 486 c 1
 179.438120112 484.934830287 120.772239066 483.927116501 71 468 c 1
 71 610 l 1
 123.661482218 597.847350257 181.437256334 594.13225344 255 592 c 1
312 199 m 0
 398.456081989 199 466.651708463 194.397986651 514 228 c 1
 514 45 l 1
 461.381739404 69.4299067052 398.228911789 74 310 74 c 0
 252.666666667 74 207.5 73.1666666667 174.5 71.5 c 128
 141.5 69.8333333333 116.333333333 64 99 54 c 1
 99 227 l 1
 154.21580314 205.308077338 223.04224654 199 312 199 c 0
EndSplineSet
EndChar

StartChar: cedilla
Encoding: 184 184 202
Width: 458
Flags: HW
HStem: -372 93<228.927 346.703> -110 113<218.219 287>
VStem: 203 84<-53.156 3> 356 129<-271.496 -124.853>
LayerCount: 2
Fore
SplineSet
252 -110 m 0
 239.66298777 -110 229.115202344 -112.412113951 218 -114 c 1
 212.732184287 -75.267815713 207.698014439 -36.3019855609 203 3 c 1
 287 3 l 1
 291 -49 l 1
 371.031212713 -54.7165151938 438.644139155 -78.2730579112 470.5 -131 c 128
 480.166666667 -147 485 -165 485 -185 c 0
 485 -300.82759358 394.374680257 -372 280 -372 c 0
 186.195938028 -372 120.346627268 -322.5272717 99 -249 c 1
 222 -187 l 1
 223 -189 l 1
 217.666666667 -206.333333333 215 -220.666666667 215 -232 c 0
 215 -266.35638195 237.831531726 -279 277 -279 c 0
 329.500883679 -279 356 -239.612354438 356 -185 c 0
 356 -130.466274998 310.008679722 -110 252 -110 c 0
EndSplineSet
EndChar

StartChar: Euro
Encoding: 8364 8364 206
Width: 948
Flags: HW
HStem: -18 109<452.092 677.383> 542 95<321 575.714> 761 95<338 575.808> 1207 110<485.401 714.317>
VStem: 162 156<314.376 541 642 760> 776 126<989.4 1143.83>
LayerCount: 2
Fore
SplineSet
318 637 m 1
 425.642446116 637 511.195685347 632.295351032 577 666 c 1
 577 513 l 1
 504.650662472 535.847159219 428.069425892 539.814909676 321 542 c 1
 332.014888773 376.776668409 369.036677509 209.929907924 460.5 127.5 c 128
 487.5 103.166666667 518.666666667 91 554 91 c 0
 673.220527715 91 736.957207177 184.029964676 774 271 c 128
 789.333333333 307 801.666666667 345.666666667 811 387 c 1
 904 191 l 1
 838.06338576 77.8088122221 725.852109531 -18 565 -18 c 0
 440.303243227 -18 354.956084173 48.8883806027 296.5 128.5 c 128
 222.477978379 229.310943732 178.608861002 373.30214868 166 541 c 1
 115.856379499 538.720744523 75.0758380742 536.884127133 42 522 c 1
 42 665 l 1
 76.3832376493 652.965866823 115.994147504 647.610469817 162 642 c 1
 162 649 l 2
 162 687.77128067 163.325568843 723.895179382 166 760 c 1
 115.856379499 757.720744523 75.0758380742 755.884127133 42 741 c 1
 42 884 l 1
 81.3047341536 870.32878812 125.678680036 864.526776664 180 860 c 1
 215.535238499 1057.22057367 305.950380852 1219.10654504 465.5 1287 c 128
 512.5 1307 562.333333333 1317 615 1317 c 0
 739.966235674 1317 834.887982993 1240.47029267 879 1158 c 128
 894.333333333 1129.33333333 902 1102 902 1076 c 0
 902 1042 888.666666667 1014 862 992 c 1
 733 906 l 1
 730 911 l 1
 757.078875186 936.95058872 776 973.976180809 776 1022 c 0
 776 1102.18154342 728.149360991 1163.4253195 673 1191 c 128
 651.666666667 1201.66666667 628.666666667 1207 604 1207 c 0
 522.000546152 1207 469.860346907 1157.47362621 432.5 1104.5 c 128
 386.85109592 1039.77394198 356.038381198 950.057273388 338 856 c 1
 436.299049817 856 517.076300903 853.461211002 577 885 c 1
 577 732 l 1
 506.652213421 754.81549835 428.487515325 758.823176764 324 761 c 1
 320 719.666666667 318 678.666666667 318 638 c 2
 318 637 l 1
EndSplineSet
EndChar

StartChar: Eth
Encoding: 208 208 207
Width: 816
Flags: HW
HStem: 0 110<308 423.651> 0 5<50 56.2637> 640 128<32.6281 165 299 446.216> 1217 110<308 486.252> 1322 5<50 57.0563>
VStem: 165 134<110.773 639 768 1216.66> 598 149<414.247 1059.87>
LayerCount: 2
Fore
SplineSet
165 640 m 1
 109.765861591 638.895317232 64.2169036942 638.651891612 32 620 c 1
 32 793 l 1
 68.2691891558 778.492324338 112.115916454 772.407006962 165 768 c 1
 165 918.375761771 162.661840456 1050.92120284 150 1194 c 1
 142.953906193 1260.23328179 108.068552021 1304.32696243 50 1322 c 1
 50 1327 l 1
 411 1327 l 2
 522.661746629 1327 598.935858448 1262.20786457 648.5 1186.5 c 128
 712.787459902 1088.30267114 747 946.719594275 747 779 c 0
 747 550.713850584 701.01843881 350.43238817 620.5 209 c 128
 582.166666667 141.666666667 538 90 488 54 c 128
 438 18 386 0 332 0 c 2
 50 0 l 1
 50 5 l 1
 113.582461281 26.1941537604 144.667748637 76.4635592592 149 153 c 0
 157.661585753 322.519606882 162.031234065 473.749107628 165 640 c 1
299 765 m 1
 362.243144137 766.24006165 410.881343451 767.994567285 447 794 c 1
 447 611 l 1
 407.374845892 629.95116066 360.962568723 635.620223524 299 639 c 1
 300.314718158 474.66023025 308 313.130082456 308 149 c 2
 308 110 l 1
 387.511878974 110 438.538060567 158.993502973 474.5 211 c 128
 565.917201249 343.203337192 598 555.014425017 598 776 c 0
 598 937.74498229 563.98183432 1097.06771154 482 1177 c 128
 455.333333333 1203 424 1216 388 1216 c 2
 308 1217 l 1
 304.003668722 1069.13574272 299 917.812782329 299 765 c 1
EndSplineSet
EndChar

StartChar: degree
Encoding: 176 176 208
Width: 538
Flags: HW
HStem: 849 75<174.057 365.248> 1207 73<174.113 362.524>
VStem: 43 88<960.505 1171.2> 406 89<958.051 1171.28>
LayerCount: 2
Fore
SplineSet
269 1280 m 256
 370.731809662 1280 441.470231623 1228.17721124 475.5 1157.5 c 128
 488.5 1130.5 495 1099.66666667 495 1065 c 0
 495 956.911271151 432.008822918 890.830210391 351.5 863 c 128
 324.5 853.666666667 297 849 269 849 c 256
 168.30723975 849 96.2490947258 901.405726339 62.5 971.5 c 128
 49.5 998.5 43 1029.66666667 43 1065 c 0
 43 1196.92576122 138.974688367 1280 269 1280 c 256
131 1065 m 0
 131 980.502872993 187.243917523 928.671776142 269 924 c 1
 351.563173129 926.358947804 406 979.872113844 406 1063 c 0
 406 1145.80828773 352.987155767 1207 269 1207 c 256
 185.067126677 1207 131 1147.72072112 131 1065 c 0
EndSplineSet
EndChar

StartChar: asciicircum
Encoding: 94 94 209
Width: 621
Flags: HW
VStem: 25 570
LayerCount: 2
Fore
SplineSet
180 156 m 0
 180 124.91134643 179.094628776 101.207161632 192 84 c 1
 168.666666667 86 148.666666667 87 132 87 c 0
 82.1749413774 87 45.7060842352 83.7480722016 25 66 c 1
 29.9292813394 69.2861875596 30.031869589 77.0743623744 33 84 c 0
 111.371841384 325.144127336 164.82039477 584.806738594 220 849 c 1
 400 849 l 1
 448.728319801 615.694711255 497.322224987 396.439990048 558 178 c 128
 569.40621533 136.937624812 583.694149415 105.376327632 591 72.5 c 128
 591.666666667 69.5 593 67.3333333333 595 66 c 1
 574.415858905 83.6435495103 537.692158901 87 488 87 c 0
 470.666666667 87 450.666666667 86 428 84 c 1
 440.897403103 101.196537471 440 124.928015402 440 156 c 0
 440 239.216283579 417.738968033 321.864378888 398.5 403.5 c 128
 370.772882487 521.152904041 338.929166656 646.640277824 310 772 c 1
 270.02070835 598.756402848 222.741887994 433.151212491 191.5 262 c 128
 183.833333333 220 180 184.666666667 180 156 c 0
EndSplineSet
EndChar

StartChar: endash
Encoding: 8211 8211 210
Width: 685
Flags: HW
HStem: 497 105<76.1631 608.744>
VStem: 75 535
LayerCount: 2
Fore
SplineSet
348 602 m 0
 453.457401403 602 539.573538686 596.35073854 610 621 c 1
 610 478 l 1
 533.406858305 494.560679285 455.808081503 497 346 497 c 0
 235.36556642 497 152.478223278 502.95139891 75 487 c 1
 75 620 l 1
 154.011114251 605.051951358 236.27267298 602 348 602 c 0
EndSplineSet
EndChar

StartChar: emdash
Encoding: 8212 8212 211
Width: 845
Flags: HW
HStem: 497 105<76.5399 768.368>
LayerCount: 2
Fore
SplineSet
75 620 m 1
 179.546006982 605.064856145 285.63121038 602 428 602 c 0
 512 602 581.333333333 602.833333333 636 604.5 c 128
 690.666666667 606.166666667 735.333333333 611.666666667 770 621 c 1
 770 478 l 1
 667.389650694 494.752710091 567.532225739 497 426 497 c 0
 283.201509812 497 179.158957936 502.850276208 75 487 c 1
 75 620 l 1
EndSplineSet
EndChar

StartChar: minus
Encoding: 8722 8722 212
Width: 725
Flags: HW
HStem: 497 105<96.1631 628.744>
VStem: 95 535
LayerCount: 2
Fore
SplineSet
368 602 m 0
 473.457401403 602 559.573538686 596.35073854 630 621 c 1
 630 478 l 1
 553.406858305 494.560679285 475.808081503 497 366 497 c 0
 255.36556642 497 172.478223278 502.95139891 95 487 c 1
 95 620 l 1
 174.011114251 605.051951358 256.27267298 602 368 602 c 0
EndSplineSet
EndChar

StartChar: logicalnot
Encoding: 172 172 213
Width: 700
Flags: HW
HStem: 495.5 106.5<70.1631 530>
VStem: 530 74<256 492.406>
LayerCount: 2
Fore
SplineSet
69 620 m 1
 148.011114251 605.051951358 230.27267298 602 342 602 c 2
 521 602 l 2
 549.666666667 602 577.333333333 602.333333333 604 603 c 1
 604 256 l 1
 530 256 l 1
 530 489 l 1
 471.837842347 495.647103732 411.349951985 497 340 497 c 0
 229.36556642 497 146.478223278 502.95139891 69 487 c 1
 69 620 l 1
EndSplineSet
EndChar

StartChar: trademark
Encoding: 8482 8482 216
Width: 1495
Flags: HW
HStem: 514 4<202 206.912 478.025 484 868.102 872 1174 1178.02> 1160 3<590.191 591> 1244 75<113.874 284.961 403 570.705> 1323 4<678 681.491 1364.57 1368>
VStem: 85 8<1163 1185.07> 292 105<545.063 1244> 590 12<1160 1163 1163 1191.4>
LayerCount: 2
Fore
SplineSet
282 1244 m 1
 209.02002944 1239.13466863 93 1238.73506757 93 1163 c 1
 91.107684884 1161.10768488 89.4037635693 1160 85 1160 c 1
 83 1216 82 1258 82 1286 c 0
 82 1302.66666667 82.3333333333 1316.33333333 83 1327 c 1
 169.362289345 1321.76592186 253.600108838 1319 344 1319 c 256
 433.434977524 1319 515.912214163 1323.02671758 602 1327 c 1
 602 1233.5 l 130
 602 1212.5 601.333333333 1188 600 1160 c 1
 593.333333333 1160 590 1160.66666667 590 1162 c 0
 590 1162.66666667 590.333333333 1163 591 1163 c 1
 591 1239.74766766 475.618776153 1239.31491767 403 1244 c 1
 397.957843206 1122.98823695 397 966.261348323 397 841 c 0
 397 765.770368724 397.495899293 701.244287641 404 631 c 1
 406.823265563 571.711423169 434.84315756 533.125182289 484 518 c 1
 484 514 l 1
 202 514 l 1
 202 518 l 1
 252.008809867 534.252863207 276.122062002 573.563302039 279 634 c 1
 288.81933207 722.373988631 292 809.710834521 292 903 c 0
 292 1024.0688431 292.196622083 1129.28800156 282 1244 c 1
805 634 m 1
 805 571.626811732 823.730377011 535.244368046 873 518 c 1
 872 514 l 1
 590 514 l 1
 591 518 l 1
 642.380377555 534.698622705 672.684972343 572.794806404 681 631 c 1
 712.99138103 794.156043255 731.614736181 983.683359292 744.5 1161.5 c 128
 746.492047463 1188.99025499 750 1202.01148667 750 1216.5 c 128
 750 1221 750 1221 750 1224 c 0
 750 1274 725.666666667 1307 677 1323 c 1
 678 1327 l 1
 790 1327 l 2
 858.465199592 1327 854.326240579 1275.82553391 869 1223 c 0
 889.210358732 1148.89535131 923.961204845 1069.09975897 952 997 c 0
 973.333333333 941 997 880.333333333 1023 815 c 1
 1074.09501967 946.771366507 1119.56073312 1058.72673275 1166.5 1188.5 c 128
 1177.07739735 1217.74339268 1181.51131173 1229.98370684 1185.5 1259.5 c 128
 1190.98024249 1300.05379444 1208.45337605 1327 1256 1327 c 2
 1368 1327 l 1
 1369 1323 l 1
 1321 1307 1297 1274 1297 1224 c 0
 1297 1181.15423863 1304.68590098 1130.72992588 1309 1079.5 c 128
 1321.61937364 929.64493801 1338.98541524 768.774382277 1366 631 c 1
 1374.24631612 573.275787183 1404.2683465 533.519496049 1456 518 c 1
 1457 514 l 1
 1174 514 l 1
 1173 518 l 1
 1223.5926746 534.041579751 1242 571.519865196 1242 634 c 1
 1235.62568029 725.79020384 1223.01349479 814.629965646 1216 903 c 2
 1206 1047 l 1
 1168.44914165 925.681842268 1108.36816732 806.740488011 1068 689 c 1
 1063 679 1063 679 1057.5 668 c 128
 1050.65818773 654.316375466 1041.22359164 627 1023 627 c 0
 1001.71874865 627 987.998291596 671.821443317 979 689 c 1
 938.756515549 806.37682965 877.426276442 926.084337649 840 1047 c 1
 830 903 l 2
 822.989666799 814.669801673 811.369710789 725.723835362 805 634 c 1
EndSplineSet
EndChar

StartChar: at
Encoding: 64 64 217
Width: 1224
Flags: HW
HStem: -58 120<418.991 832.499> 172 91<507.885 646.81> 189 100<869.141 1003.15> 739 73<571.975 716.155> 937 122<441.125 825.405>
VStem: 46 164<268.544 684.065> 349 132<282.585 640.804> 709 146<349.205 738.912> 1046 139<330.754 709.133>
LayerCount: 2
Fore
SplineSet
889 -13 m 1
 816.024855239 -38.5413006664 730.539708412 -58 637 -58 c 0
 365.609250125 -58 176.513302334 60.4205870607 91 249.5 c 128
 61 315.833333333 46 391 46 475 c 0
 46 762.425420837 192.35992526 944.697751134 405 1020.5 c 128
 477 1046.16666667 554.333333333 1059 637 1059 c 0
 895.189983757 1059 1063.30894936 928.540775661 1141.5 742.5 c 128
 1170.5 673.5 1185 594.333333333 1185 505 c 0
 1185 362.773356766 1118.9210546 257.960527301 1025 211 c 128
 995.666666667 196.333333333 966.333333333 189 937 189 c 0
 842.228477814 189 789.274016887 259.434557811 769 348 c 1
 738.600923126 256.802769378 690.821202056 172 570 172 c 0
 418.248408528 172 349 287.825609409 349 439 c 0
 349 571.070645623 399.316418307 684.012621495 467.5 751 c 128
 500.76492845 783.681333214 546.577889309 812 608 812 c 0
 659.473092522 812 701.182697845 794.609886946 739 773 c 1
 752.890582017 783.102241467 775.473618834 788 799 788 c 0
 820.13505741 788 862 780.671591973 862 763 c 0
 862 663.177366468 848 545.954237118 848 445 c 0
 848 369.842877345 865.162011722 289 927 289 c 0
 989.491696127 289 1019.19096912 348.585586896 1034.5 402.5 c 128
 1042.16666667 429.5 1046 462.666666667 1046 502 c 0
 1046 697.682886653 948.116936246 834.059165266 812 899.5 c 128
 760 924.5 699.333333333 937 630 937 c 256
 414.894892308 937 288.135790297 801.149972833 236.5 636.5 c 128
 218.833333333 580.166666667 210 522.666666667 210 464 c 0
 210 277.787245208 305.72746569 154.847612552 439 96 c 128
 490.333333333 73.3333333333 550.666666667 62 620 62 c 0
 704.694355235 62 770.679037955 73.5738259424 834 96 c 1
 889 -13 l 1
570 263 m 0
 679.704765571 263 703.489401865 433.298635435 709 538 c 1
 717 729 l 1
 697 735.666666667 677.666666667 739 659 739 c 0
 594.208478985 739 553.366753345 692.270446253 528 646.5 c 128
 499.514767625 595.102732889 481 521.496883517 481 444 c 0
 481 374.665785459 494.063971605 309.519540105 530.5 277.5 c 128
 541.5 267.833333333 554.666666667 263 570 263 c 0
EndSplineSet
EndChar

StartChar: currency
Encoding: 164 164 218
Width: 871
Flags: HW
HStem: 71 106<348.097 527.062> 785 107<347.403 526.989>
VStem: 156 130<278.12 686.43> 584 130<281.385 682.694>
LayerCount: 2
Fore
SplineSet
57 201 m 1
 95.7938517476 234.733784128 134.898529949 267.312162655 177 306 c 1
 163 356.666666667 156 415.333333333 156 482 c 0
 156 548.05926102 163.238725126 608.00650498 178 659 c 1
 135.335201506 697.052387846 98.4398055205 730.505747804 57 762 c 1
 158 863 l 1
 175.333333333 837 199 807 229 773 c 1
 271.755198654 839.383071595 338.916586185 892 438 892 c 0
 535.308730408 892 602.066973159 836.210042381 644 770 c 1
 671.44903288 801.029341517 695.264357712 830.396536568 717 863 c 1
 818 762 l 1
 774.975008781 728.903852908 736.876069047 695.412168859 693 655 c 1
 707 605 714 547.333333333 714 482 c 0
 714 417.089006707 706.465124226 360.16747206 693 309 c 1
 737.64161604 268.937011246 775.777771075 234.77778314 818 201 c 1
 724 107 l 1
 699.579951975 136.304057631 674.905638073 165.938136404 646 196 c 1
 603.753064259 127.070789054 538.128667762 71 438 71 c 0
 336.826094413 71 268.995298299 125.112686896 226 193 c 1
 198.182815909 162.864717235 173.999421814 136.57068519 151 107 c 1
 57 201 l 1
584 482 m 256
 584 629.895413245 561.243603683 785 438 785 c 0
 390 785 352.666666667 759.333333333 326 708 c 128
 299.333333333 656.666666667 286 581.333333333 286 482 c 256
 286 382.666666667 299.333333333 307 326 255 c 128
 352.666666667 203 390 177 438 177 c 0
 561.068025219 177 584 334.562152987 584 482 c 256
EndSplineSet
EndChar

StartChar: section
Encoding: 167 167 219
Width: 579
Flags: HW
HStem: -29 106<190.286 334.882> 990 21G<404 420.459> 1138 105<236.753 391.756>
VStem: 84 134<544.084 725.689 934.664 1119.27> 352 143<91.1367 277.242 484.479 668.136>
LayerCount: 2
Fore
SplineSet
169 187 m 0
 169 130.996087859 209.683659647 77 266 77 c 0
 317.401413362 77 352 129.122420766 352 181 c 0
 352 230.735780088 310.522994504 274.777413393 282.5 308.5 c 128
 221.379853549 382.051362679 146.66639704 454.267246364 104 546 c 128
 90.6666666667 574.666666667 84 604 84 634 c 0
 84 716.201045546 133.162992573 776.949484103 186 811 c 1
 147.900792327 856.356199611 110.368370089 905.358727818 92 968.5 c 128
 86.6666666667 986.833333333 84 1005.66666667 84 1025 c 0
 84 1130.05748777 157.650748391 1196.97097353 235.5 1226.5 c 128
 264.5 1237.5 294.333333333 1243 325 1243 c 0
 410.34109972 1243 471.572637982 1203.39405387 514 1149 c 1
 407 990 l 1
 404 992 l 1
 408 1002.66666667 410 1014.33333333 410 1027 c 256
 410 1080.85675362 378.343179399 1138 325 1138 c 0
 263.939831403 1138 218 1095.40118486 218 1034 c 0
 218 981.829056085 260.618449665 935.042197985 290 899.5 c 128
 352.115545977 824.360226641 429.627534012 747.339382365 474.5 656.5 c 128
 488.166666667 628.833333333 495 602 495 576 c 0
 495 487.31805927 446.078806091 426.36442052 388 393 c 1
 425.391383253 346.705906449 466.574964205 296.947168315 486.5 236 c 128
 492.166666667 218.666666667 495 201.666666667 495 185 c 0
 495 81.7392580457 431.391716094 15.7142899863 356 -13.5 c 128
 329.333333333 -23.8333333333 301.666666667 -29 273 -29 c 0
 175.482173784 -29 108.514667772 25.5662436651 68 97 c 1
 175 226 l 1
 178 223 l 1
 172 213 169 201 169 187 c 0
310 484 m 1
 332.698081231 500.72490196 352 534.251725562 352 572 c 0
 352 594 343 617.833333333 325 643.5 c 128
 307 669.166666667 285.333333333 696.666666667 260 726 c 1
 237.210713979 709.20789451 218 680.724246846 218 643 c 0
 218 620.333333333 227 595.666666667 245 569 c 128
 263 542.333333333 284.666666667 514 310 484 c 1
EndSplineSet
EndChar

StartChar: underscore
Encoding: 95 95 220
Width: 753
Flags: HW
HStem: -56 105<30.5399 722.368>
LayerCount: 2
Fore
SplineSet
29 67 m 1
 133.546006982 52.0648561455 239.63121038 49 382 49 c 0
 466 49 535.333333333 49.8333333333 590 51.5 c 128
 644.666666667 53.1666666667 689.333333333 58.6666666667 724 68 c 1
 724 -75 l 1
 621.389650694 -58.2472899093 521.532225739 -56 380 -56 c 0
 237.201509812 -56 133.158957936 -50.1497237924 29 -66 c 1
 29 67 l 1
EndSplineSet
EndChar

StartChar: ampersand
Encoding: 38 38 221
Width: 1107
Flags: HW
HStem: -28 109<812.877 932.329> 0 96<300 674.747> 0 5<29 35.9961> 787 77<288 655 795 1024.12> 1253 74<299.026 498.048> 1322 5<29 35.2812>
VStem: 154 134<96.288 787 864 1249.85> 540 7<1140.7 1156> 547 23.5<1136.17 1179.84> 657 134.5<121.001 783 866 1102>
LayerCount: 2
Fore
SplineSet
655 866 m 1
 655 909.387799935 657.182741697 1102 632 1102 c 1
 632 1107 l 1
 913 1237 l 1
 858.795846301 1170.28719545 819.530321404 1114.9404095 803.5 1006.5 c 128
 797.833333333 968.166666667 795 920.666666667 795 864 c 1
 865 864 l 2
 942.107687861 864 1007.04453721 863.674089535 1069 874 c 1
 1029 744 l 1
 996.606193933 776.393806067 935.001497174 787 864 787 c 2
 792 787 l 1
 792 773.806475653 792.110454686 768.110454686 791 767 c 129
 791 745 l 2
 791 556.696928923 794 396.053623083 794 211 c 256
 794 164.333333333 801.666666667 131 817 111 c 128
 832.333333333 91 849.666666667 81 869 81 c 0
 930.257680588 81 959 162.216871613 959 226 c 0
 959 243.333333333 957 257.666666667 953 269 c 1
 956 271 l 1
 1083 56 l 1
 1016.4846735 9.95092780499 950.374077867 -28 859 -28 c 0
 824.333333333 -28 793 -18.6666666667 765 0 c 1
 29 0 l 1
 29 5 l 1
 100.816413624 28.9388045414 132.267926546 87.0188981844 138 173 c 0
 150.2438778 362.780105899 154 530.727357646 154 721 c 0
 154 881.96826384 154.166040839 1022.33959161 139 1174 c 0
 131.958025583 1250.0533237 93.3841363346 1300.53862122 29 1322 c 1
 29 1327 l 1
 600 1327 l 1
 582.821760636 1251.4157468 566.179136366 1178.93617534 547 1094 c 1
 554.208433232 1154.55083915 535.818201831 1198.20935669 495 1218 c 0
 439.536359259 1244.4112575 379.072109518 1250.26062774 301 1253 c 1
 293.132965483 1120.57158564 289.381420786 1000.76065783 288 864 c 1
 296 864 296 864 320 864 c 128
 359.660922567 864 406.089915353 865 450 865 c 128
 498.777450912 865 551.293224568 866 598.5 866 c 128
 632 866 632 866 655 866 c 1
288 787 m 1
 288 553.982806665 292.011273181 321.015805395 300 96 c 1
 422.271703838 99.7052031466 566.500198489 100.837534736 676 120 c 1
 661.224385721 159.401638077 652 206.111934351 652 258 c 0
 652 387.336170825 657 494.500681868 657 621 c 2
 657 721.5 l 130
 657 745.567502818 656 755.997227917 656 783 c 1
 591.889969479 783 518.074971197 785 451 785 c 128
 395.926703758 785 337.673779196 787 288 787 c 1
EndSplineSet
EndChar

StartChar: quotedbl
Encoding: 34 34 222
Width: 542
Flags: HW
HStem: 852 475<97 181 359 443>
VStem: 97 84<852 1252.98> 359 84<852 1252.98>
LayerCount: 2
Fore
SplineSet
502 1327 m 1
 466.73673654 1185.94694616 448.896750882 1030.86811008 443 852 c 1
 359 852 l 1
 355.105322038 1029.20784729 346.933703442 1197.9477215 299 1327 c 1
 502 1327 l 1
240 1327 m 1
 204.73673654 1185.94694616 186.896750882 1030.86811008 181 852 c 1
 97 852 l 1
 93.1053220376 1029.20784729 84.933703442 1197.9477215 37 1327 c 1
 240 1327 l 1
EndSplineSet
EndChar

StartChar: ogonek
Encoding: 731 731 223
Width: 458
Flags: HW
HStem: -371 96<224.033 368.237>
VStem: 99 113<-255.919 -102.804>
LayerCount: 2
Fore
SplineSet
485 -249 m 1
 459.074824803 -322.061857373 391.936867211 -371 295 -371 c 0
 213.008282731 -371 148.154125289 -339.068316635 116 -288 c 128
 104.666666667 -270 99 -249 99 -225 c 256
 99 -139.292903044 154.749807507 -79.4632693796 204.5 -39.5 c 128
 224.833333333 -23.1666666667 245.666666667 -9 267 3 c 1
 361 3 l 1
 309.604821399 -38.1161428808 255.578839784 -89.173159026 226 -151.5 c 128
 216.666666667 -171.166666667 212 -190.333333333 212 -209 c 0
 212 -256.241157143 246.415274608 -275 300 -275 c 0
 333.003664726 -275 369 -254.782361647 369 -222 c 0
 369 -199.231672643 365.606046734 -179.727210303 361 -159 c 1
 362 -157 l 1
 485 -249 l 1
EndSplineSet
EndChar

StartChar: AE
Encoding: 198 198 224
Width: 1043
Flags: HW
HStem: 0 5<490 494.881> 360 89<341.352 539> 381 66<341 538.856> 688 77<663 850.212> 1229 98<413.905 470.095> 1253 74<612 813.814>
VStem: 875 4<1113 1126.98> 880 3<853.688 863> 984 4<203.035 208>
LayerCount: 2
Fore
SplineSet
903 1327 m 1
 896.074375245 1257.74375245 887.246864519 1191.34521293 879 1113 c 1
 875 1113 l 1
 870.723377683 1162.89392703 848.780139069 1200.48638881 810 1218 c 0
 751.436174251 1244.028367 691.794872092 1250.20017993 612 1253 c 1
 622.742770798 1086.48705262 636.746292378 925.592201712 654 765 c 1
 687 765 687 765 717.5 765 c 128
 808.022239277 765 871.722356144 784.362383368 880 863 c 1
 883 864 l 1
 914 588 l 1
 909 588 l 1
 884.557161512 659.448297119 824.998425197 687 727 687 c 128
 707.666666667 687 686.333333333 687.333333333 663 688 c 1
 685.661239421 485.381859293 711.535277365 291.538613851 741 96 c 1
 824.451038437 110.726653842 933.565103079 107.717229361 974 165 c 128
 982 176.333333333 985.333333333 190.666666667 984 208 c 1
 988 209 l 1
 1009.26937952 136.076413063 1028.74929757 69.0028097013 1046 0 c 1
 490 0 l 1
 489 5 l 1
 548.259844947 25.9878617519 574.284976378 70.322255122 567 149 c 0
 560.258184366 220.463245723 554.652398599 288.154095126 548 360 c 1
 480.368572482 366.148311593 398.806002733 371.12909959 333 381 c 1
 322.091841303 293.734730421 311.398973806 225.574728112 298 133 c 0
 275.587367493 -18.2852694242 218.677682675 -121.26783733 93 -170 c 1
 -29 37 l 1
 -22 42 l 1
 2.66666666667 30.6666666667 25.3333333333 25 46 25 c 0
 111.245250934 25 135.069789619 78.9929398981 149 139 c 0
 189.248837842 314.369936313 208.240208922 528.270421877 230 721 c 1
 246.306398016 878.628514154 263.039814983 1026.83611463 271 1194 c 1
 276.096973435 1265.35762808 244.054465351 1301.17821386 192 1322 c 1
 191 1327 l 1
 903 1327 l 1
437 447 m 2
 472.968681849 447 506.828491869 447.468023422 539 449 c 1
 518 684 l 1
 507.688838141 781.956037665 497.618979206 891.726994335 489 993 c 1
 481.666666667 1065 474 1143.33333333 466 1228 c 1
 418 1229 l 1
 395.39495637 999.182056429 369.619416136 785.512604394 351.5 556 c 128
 348.5 518 345 481.666666667 341 447 c 1
 437 447 l 2
EndSplineSet
EndChar

StartChar: sterling
Encoding: 163 163 225
Width: 826
Flags: HW
HStem: 0 5<54 60.9961> 637 85<51.6587 176 314 604.619> 1237 110<380.075 538.747>
VStem: 171 147.5<97.8262 635 727 1157.65> 178.5 134.5<728.781 1157.65> 478 123<114.982 229.337> 583 126<1044 1193.31>
LayerCount: 2
Fore
SplineSet
537 941 m 1
 564.078875186 966.95058872 583 1003.97618081 583 1052 c 0
 583 1126.07944798 553.346438383 1189.82031048 509.5 1221 c 128
 494.5 1231.66666667 478.333333333 1237 461 1237 c 0
 403.705975393 1237 370.011569317 1187.32387546 350.5 1142.5 c 128
 327.123719823 1088.79773473 313 1013.68205515 313 938 c 2
 314 722 l 1
 385.333333333 722 444.5 723.166666667 491.5 725.5 c 128
 538.5 727.833333333 576.666666667 736.333333333 606 751 c 1
 606 598 l 1
 529.370435952 629.773233874 437.612980755 637 314 637 c 1
 316.591082169 456.91978924 319.541564016 271.669951493 325 97 c 1
 529 117 l 1
 504.879163995 136.482213696 478 163.794377284 478 198 c 0
 478 244 496.166666667 283 532.5 315 c 128
 568.833333333 347 624.666666667 371.666666667 700 389 c 1
 792 222 l 1
 787 219 l 1
 771.015983234 237.267447732 745.437715162 250 714 250 c 0
 653.512393385 250 601 210.647307495 601 150 c 0
 601 89.9228489163 659 61.0611180328 659 0 c 1
 54 0 l 1
 54 5 l 1
 125.816413624 28.9388045414 157.267926546 87.0188981844 163 173 c 1
 169.27859955 331.220708663 173.121494209 479.560687296 176 635 c 1
 122.55919176 632.624852967 81.7319271389 628.512348997 51 607 c 1
 51 750 l 1
 87.2301048815 737.923298373 128.825696797 732.601663163 177 727 c 1
 178.310298882 801.68703627 179 873.883825372 179 949 c 0
 179 1127.56523685 240.311289568 1263.56249586 358.5 1321 c 128
 394.166666667 1338.33333333 432 1347 472 1347 c 0
 544.542844123 1347 598.489109675 1307.20242933 635 1263.5 c 128
 677.862053508 1212.1954208 707.646786784 1136.01849868 709 1044 c 1
 540 936 l 1
 537 941 l 1
EndSplineSet
EndChar

StartChar: ae
Encoding: 230 230 226
Width: 1057
Flags: HW
HStem: -29 105<228.093 365.249 654.992 838.456> 552 81<271.472 419> 887 106<230.837 386.838 646.122 806.596>
VStem: 54 141<103.514 446.704> 419 151<478 551.451 626 788.163> 867 137<123.068 310.085>
LayerCount: 2
Fore
SplineSet
867 220 m 0
 867 275.966646565 827.019564646 313.465942329 784 336 c 1
 785 341 l 1
 1004 321 l 1
 1004 159.791789412 935.653091556 39.9732275558 826 -8 c 128
 794 -22 762.666666667 -29 732 -29 c 0
 615.725470171 -29 545.397116725 50.2057665492 501 139 c 1
 463.233761839 74.797395127 416.543110356 14.0102150711 345.5 -15.5 c 128
 323.833333333 -24.5 300 -29 274 -29 c 0
 121.089217651 -29 54 97.8541101445 54 250 c 0
 54 409.604701683 130.207291665 536.691780302 231 599 c 128
 267.666666667 621.666666667 308.666666667 633 354 633 c 0
 376.666666667 633 398.333333333 630.666666667 419 626 c 1
 419 712.911886422 416.451789669 784.687428174 391 836.5 c 128
 374.765832532 869.548126632 350.457811244 886 306 886 c 0
 245.300854004 886 219 845.301773548 219 785 c 0
 219 741.542912722 234.623774517 698.960375805 252 670 c 1
 78 777 l 1
 102.20334728 909.187512067 167.65580385 993 317 993 c 0
 419.943385201 993 478.780894115 933.038562277 512 854 c 1
 570.666666667 946.666666667 644 993 732 993 c 0
 820.960935874 993 877.055741518 938.836996078 915 876.5 c 128
 966.300850542 792.220031253 991.876684374 672.937606906 998 537 c 1
 575 389 l 1
 583.666666667 279.666666667 603 200.166666667 633 150.5 c 128
 663 100.833333333 701 76 747 76 c 0
 828.849374721 76 867 138.967396966 867 220 c 0
291 76 m 0
 396.663152716 76 419 245.842042345 419 351 c 2
 419 542 l 1
 399.666666667 548.666666667 380.333333333 552 361 552 c 0
 238.274289776 552 195 400.863222573 195 277 c 0
 195 202.246019715 210.682289466 129.188948837 249 93 c 128
 261 81.6666666667 275 76 291 76 c 0
570 478 m 1
 643.696958735 505.954018831 743.129832012 542.378042378 814 587 c 128
 832 598.333333333 848 608 862 616 c 1
 855.333333333 708.666666667 841.166666667 777 819.5 821 c 128
 797.833333333 865 768.666666667 887 732 887 c 0
 680.666666667 887 640.833333333 853 612.5 785 c 128
 584.166666667 717 570 616 570 482 c 2
 570 478 l 1
EndSplineSet
EndChar

StartChar: copyright
Encoding: 169 169 227
Width: 926
Flags: HW
HStem: 251 88<324.507 595.327> 453 79<412.005 565.121> 1043 79<407.864 542.603> 1239 87<330.632 592.69>
VStem: 74 106<522.444 1040.16> 247 113<589.36 989.145> 753 99<534.513 1037.61>
LayerCount: 2
Fore
SplineSet
360 787 m 0
 360 663.116973228 385.772737824 532 489 532 c 0
 571.584524126 532 603.506547343 624.603229952 618 695 c 1
 658 585 l 1
 614.666666667 497 556.333333333 453 483 453 c 0
 359.481829153 453 293.959973632 542.944536001 265 643.5 c 128
 253 685.166666667 247 733 247 787 c 256
 247 932.225547324 289.316003158 1049.57380174 381 1100 c 128
 407.666666667 1114.66666667 436.333333333 1122 467 1122 c 0
 613.074995266 1122 658.959645204 1011.17150788 687 892 c 1
 541 816 l 1
 539 818 l 1
 556.347496462 838.600152048 566 860.595651604 566 893 c 0
 566 963.927139887 548.830602614 1043 478 1043 c 0
 444 1043 415.833333333 1022.33333333 393.5 981 c 128
 371.166666667 939.666666667 360 875 360 787 c 0
852 788 m 0
 852 552.750181819 764.58852249 367.373828358 612.5 287.5 c 128
 566.166666667 263.166666667 517.666666667 251 467 251 c 0
 338.475693474 251 246.937457548 312.643507771 186.5 391.5 c 128
 115.094346072 484.66737703 74 621.226209064 74 788 c 0
 74 1028.25219076 153.99693949 1213.41108926 312.5 1291 c 128
 360.166666667 1314.33333333 411.666666667 1326 467 1326 c 0
 590.569484844 1326 680.284303136 1264.78206513 739 1188 c 128
 810.702860383 1094.23472104 852 956.808680623 852 788 c 0
456 339 m 0
 624.058206093 339 702.191512815 479.287622984 734.5 619 c 128
 746.833333333 672.333333333 753 727.666666667 753 785 c 256
 753 968.656091978 695.721929118 1124.73343656 586.5 1200.5 c 128
 549.5 1226.16666667 506 1239 456 1239 c 0
 351.749570472 1239 288.637115513 1168.73659445 249.5 1095 c 128
 206.323547385 1013.65306029 180 898.422775063 180 777 c 0
 180 600.863059598 230.07385919 448.44815653 334 375.5 c 128
 368.666666667 351.166666667 409.333333333 339 456 339 c 0
EndSplineSet
EndChar

StartChar: registered
Encoding: 174 174 228
Width: 926
Flags: HW
HStem: 251 88<324.507 595.388> 486 3<305 308.665> 776 57<423 458.937> 1098 54<426.251 515.464> 1239 87<330.632 592.69>
VStem: 74 106<522.444 1040.16> 359 63<502.025 776 833 1097.46> 533 77<868.138 1082.24> 753 99<536.975 1037.61>
LayerCount: 2
Fore
SplineSet
852 788 m 0
 852 552.750181819 764.58852249 367.373828358 612.5 287.5 c 128
 566.166666667 263.166666667 517.666666667 251 467 251 c 0
 338.475693474 251 246.937457548 312.643507771 186.5 391.5 c 128
 115.094346072 484.66737703 74 621.226209064 74 788 c 0
 74 1028.25219076 153.99693949 1213.41108926 312.5 1291 c 128
 360.166666667 1314.33333333 411.666666667 1326 467 1326 c 0
 590.569484844 1326 680.284303136 1264.78206513 739 1188 c 128
 810.702860383 1094.23472104 852 956.808680623 852 788 c 0
459 781 m 1
 451.369689896 777.184844948 433.405054948 776 423 776 c 1
 426 561 l 1
 428 523.666666667 444 499.666666667 474 489 c 1
 474 486 l 1
 305 486 l 1
 305 489 l 1
 335.661136934 499.220378978 348.17977133 526.337027293 351 563 c 1
 355.934268703 662.918941239 359 749.02672021 359 848 c 0
 359 932.063613134 358.380146249 1004.61015727 352 1085 c 0
 349.182529773 1117.40090761 331.33254857 1139.96855293 305 1150 c 1
 305 1152 l 1
 472 1152 l 2
 559.459043223 1152 610 1090.87919412 610 1002 c 0
 610 907.408274119 577.16626016 835.40057104 518 803 c 1
 562.045249401 684.628392236 604.660336367 570.12588181 654 455 c 1
 657 444 l 1
 717.177917166 524.237222889 753 648.093913573 753 785 c 0
 753 968.656091978 695.721929118 1124.73343656 586.5 1200.5 c 128
 549.5 1226.16666667 506 1239 456 1239 c 0
 351.749570472 1239 288.637115513 1168.73659445 249.5 1095 c 128
 206.323547385 1013.65306029 180 898.422775063 180 777 c 0
 180 600.863059598 230.07385919 448.44815653 334 375.5 c 128
 368.666666667 351.166666667 409.333333333 339 456 339 c 0
 522.084049238 339 570.353373741 361.599616164 609 393 c 1
 602.03507625 399.96492375 598.872227356 408.674060385 595 419 c 2
 459 781 l 1
426 1077 m 1
 424.23109322 1011.55044913 422 942.19534763 422 875 c 0
 422 859.947561146 420.661317487 847.725507642 422 833 c 1
 511.335596821 833 533 904.418606161 533 1002 c 0
 533 1057.54686273 515.878739941 1098 464 1098 c 0
 456 1098 456 1098 445 1098 c 128
 437.666666667 1098 431.333333333 1097.66666667 426 1097 c 1
 426 1077 l 1
EndSplineSet
EndChar

StartChar: guilsinglleft
Encoding: 8249 8249 229
Width: 742
Flags: HW
VStem: 650 7<76 84.2837 875.716 884>
LayerCount: 2
Fore
SplineSet
593 288 m 128
 620.705718525 288 638.856333345 299.283791695 648 321 c 1
 657 321 l 1
 657 76 l 1
 650 76 l 1
 634.260765823 117.315489715 604.969454322 140.515272839 567 159.5 c 128
 548 169 548 169 526 180 c 1
 431.447322608 222.548704826 330.524569338 276.237715331 237 323 c 0
 171.666666667 355.666666667 102.333333333 391.333333333 29 430 c 1
 29 530 l 1
 199.413403314 618.305127172 351.80917551 701.614128979 526 780 c 0
 579.551557439 804.341617018 628.589472403 827.797365058 650 884 c 1
 657 884 l 1
 657 639 l 1
 648 639 l 1
 638.848846498 660.733989566 620.732256728 672 593 672 c 128
 550.906269452 672 527.898433187 653.499287812 496 639 c 128
 382.405108696 587.365958498 280.085271674 536.865663651 165 480 c 1
 280.98664576 422.688951507 382.372544695 374.731285487 496 320.5 c 128
 527.75718415 305.34316211 551.055349769 288 593 288 c 128
EndSplineSet
EndChar

StartChar: guilsinglright
Encoding: 8250 8250 230
Width: 742
Flags: HW
VStem: 85 7<76 84.9004 875.1 884>
LayerCount: 2
Fore
SplineSet
149 672 m 128
 121.294281475 672 103.143666655 660.716208305 94 639 c 1
 85 639 l 1
 85 884 l 1
 92 884 l 1
 116.582569396 810.252291812 200.563599728 788.164506382 268 755.5 c 128
 420.250546303 681.753641634 560.20040138 609.177973831 713 530 c 1
 713 430 l 1
 542.751966991 340.232855322 390.668839613 258.600977826 216 180 c 1
 194 169 194 169 175 159.5 c 128
 138.081168027 141.040584014 105.837001424 117.511004273 92 76 c 1
 85 76 l 1
 85 321 l 1
 94 321 l 1
 103.151153502 299.266010434 121.267743272 288 149 288 c 128
 190.098301887 288 214.603175823 305.410853309 245.5 320.5 c 128
 358.072440269 375.477238271 460.508430527 423.108768397 577 480 c 1
 448.91561496 542.552839206 336.752627871 592.623686064 212 655 c 256
 196.826260729 662.586869635 171.673759112 672 149 672 c 128
EndSplineSet
EndChar

StartChar: less
Encoding: 60 60 231
Width: 759
Flags: HW
VStem: 656 7<76 84.2837 875.716 884>
LayerCount: 2
Fore
SplineSet
599 288 m 128
 626.705718525 288 644.856333345 299.283791695 654 321 c 1
 663 321 l 1
 663 76 l 1
 656 76 l 1
 640.260765823 117.315489715 610.969454322 140.515272839 573 159.5 c 128
 554 169 554 169 532 180 c 1
 437.447322608 222.548704826 336.524569338 276.237715331 243 323 c 0
 177.666666667 355.666666667 108.333333333 391.333333333 35 430 c 1
 35 530 l 1
 205.413403314 618.305127172 357.80917551 701.614128979 532 780 c 0
 585.551557439 804.341617018 634.589472403 827.797365058 656 884 c 1
 663 884 l 1
 663 639 l 1
 654 639 l 1
 644.848846498 660.733989566 626.732256728 672 599 672 c 128
 556.906269452 672 533.898433187 653.499287812 502 639 c 128
 388.405108696 587.365958498 286.085271674 536.865663651 171 480 c 1
 286.98664576 422.688951507 388.372544695 374.731285487 502 320.5 c 128
 533.75718415 305.34316211 557.055349769 288 599 288 c 128
EndSplineSet
EndChar

StartChar: greater
Encoding: 62 62 232
Width: 759
Flags: HW
VStem: 96 7<76 84.9004 875.1 884>
LayerCount: 2
Fore
SplineSet
160 672 m 128
 132.294281475 672 114.143666655 660.716208305 105 639 c 1
 96 639 l 1
 96 884 l 1
 103 884 l 1
 127.582569396 810.252291812 211.563599728 788.164506382 279 755.5 c 128
 431.250546303 681.753641634 571.20040138 609.177973831 724 530 c 1
 724 430 l 1
 553.751966991 340.232855322 401.668839613 258.600977826 227 180 c 1
 205 169 205 169 186 159.5 c 128
 149.081168027 141.040584014 116.837001424 117.511004273 103 76 c 1
 96 76 l 1
 96 321 l 1
 105 321 l 1
 114.151153502 299.266010434 132.267743272 288 160 288 c 128
 201.098301887 288 225.603175823 305.410853309 256.5 320.5 c 128
 369.072440269 375.477238271 471.508430527 423.108768397 588 480 c 1
 459.91561496 542.552839206 347.752627871 592.623686064 223 655 c 256
 207.826260729 662.586869635 182.673759112 672 160 672 c 128
EndSplineSet
EndChar

StartChar: equal
Encoding: 61 61 233
Width: 725
Flags: HW
HStem: 288 105<96.1631 628.744> 567 105<96.1631 628.744>
VStem: 95 535
LayerCount: 2
Fore
SplineSet
368 672 m 0
 473.457401403 672 559.573538686 666.35073854 630 691 c 1
 630 548 l 1
 553.406858305 564.560679285 475.808081503 567 366 567 c 0
 255.36556642 567 172.478223278 572.95139891 95 557 c 1
 95 690 l 1
 174.011114251 675.051951358 256.27267298 672 368 672 c 0
368 393 m 0
 473.457401403 393 559.573538686 387.35073854 630 412 c 1
 630 269 l 1
 553.406858305 285.560679285 475.808081503 288 366 288 c 0
 255.36556642 288 172.478223278 293.95139891 95 278 c 1
 95 411 l 1
 174.011114251 396.051951358 256.27267298 393 368 393 c 0
EndSplineSet
EndChar

